<?xml version="1.0" encoding="UTF-8"?>
<svg width="76px" height="100px" viewBox="0 0 76 100" version="1.1" xmlns="http://www.w3.org/2000/svg" xmlns:xlink="http://www.w3.org/1999/xlink">
    <!-- Generator: Sketch 43.1 (39012) - http://www.bohemiancoding.com/sketch -->
    <title>Icon</title>
    <desc>Created with Sketch.</desc>
    <defs>
        <path d="M0,7.99335421 C0,3.57874658 3.57681119,0 8.00379696,0 L50.8661826,0 L75.4098361,25.5117603 L75.4098361,91.9930985 C75.4098361,96.4151881 71.8233942,100 67.4110553,100 L7.99878078,100 C3.58117614,100 0,96.4114635 0,92.0066458 L0,7.99335421 Z" id="path-1"></path>
    </defs>
    <g id="Symbols" stroke="none" stroke-width="1" fill="none" fill-rule="evenodd">
        <g id="Icon">
            <mask id="mask-2" fill="white">
                <use xlink:href="#path-1"></use>
            </mask>
            <use id="Mask" fill="#00BB89" xlink:href="#path-1"></use>
            <path d="M83.525438,25.5275113 L58.8204025,25.5275113 C54.4017211,25.5275113 50.8196721,21.9450518 50.8196721,17.5247858 L50.8196721,-3.68852459 L83.525438,25.5275113 Z" id="Rectangle" fill="#028B66" mask="url(#mask-2)"></path>
            <path d="M20.7260742,56.0878906 C21.0424821,56.0878906 21.3120106,55.9750988 21.534668,55.7495117 C21.7573253,55.5239247 21.8686523,55.2558609 21.8686523,54.9453125 C21.8686523,54.6289047 21.7573253,54.3593761 21.534668,54.1367188 C21.3120106,53.9140614 21.0424821,53.8027344 20.7260742,53.8027344 C20.4155258,53.8027344 20.1474621,53.9140614 19.921875,54.1367188 C19.6962879,54.3593761 19.5834961,54.6289047 19.5834961,54.9453125 C19.5834961,55.2558609 19.6962879,55.5239247 19.921875,55.7495117 C20.1474621,55.9750988 20.4155258,56.0878906 20.7260742,56.0878906 Z M28.6362305,56.2988281 C29.9838935,56.2988281 31.1220657,55.9516636 32.0507812,55.2573242 C32.9794968,54.5629848 33.5493154,53.6328183 33.7602539,52.4667969 L32.1518555,52.4667969 C31.9526357,53.1992224 31.5380891,53.7778299 30.9082031,54.2026367 C30.2783172,54.6274435 29.5210005,54.8398438 28.6362305,54.8398438 C27.4174744,54.8398438 26.4506872,54.3740281 25.7358398,53.4423828 C25.0209925,52.5107375 24.6635742,51.2509845 24.6635742,49.6630859 C24.6635742,48.069328 25.0195277,46.8066453 25.7314453,45.875 C26.4433629,44.9433547 27.4086853,44.4775391 28.6274414,44.4775391 C29.5004926,44.4775391 30.2534148,44.7163062 30.8862305,45.1938477 C31.5190461,45.6713891 31.9409169,46.3203084 32.1518555,47.140625 L33.7602539,47.140625 C33.572753,45.9160095 33.0043993,44.9228554 32.0551758,44.1611328 C31.1059523,43.3994103 29.9633856,43.0185547 28.6274414,43.0185547 C26.9047765,43.0185547 25.5424855,43.6132753 24.5405273,44.8027344 C23.5385692,45.9921934 23.0375977,47.6122944 23.0375977,49.6630859 C23.0375977,51.708018 23.540034,53.3251894 24.5449219,54.5146484 C25.5498097,55.7041075 26.9135656,56.2988281 28.6362305,56.2988281 Z M35.3774414,52.6865234 C35.4594731,53.782232 35.9296832,54.6581998 36.7880859,55.3144531 C37.6464887,55.9707064 38.7465753,56.2988281 40.0883789,56.2988281 C41.5415112,56.2988281 42.6943317,55.9545933 43.546875,55.2661133 C44.3994183,54.5776333 44.8256836,53.6503965 44.8256836,52.484375 C44.8256836,51.5527297 44.5400419,50.8115262 43.96875,50.2607422 C43.3974581,49.7099582 42.455573,49.2705095 41.1430664,48.9423828 L39.815918,48.5908203 C38.9428667,48.3681629 38.3173847,48.1015641 37.9394531,47.7910156 C37.5615215,47.4804672 37.3725586,47.0761744 37.3725586,46.578125 C37.3725586,45.9335905 37.6289037,45.4179707 38.1416016,45.03125 C38.6542994,44.6445293 39.3325153,44.4511719 40.1762695,44.4511719 C40.9672891,44.4511719 41.6162084,44.6342755 42.1230469,45.0004883 C42.6298853,45.366701 42.9389643,45.8749967 43.050293,46.5253906 L44.6411133,46.5253906 C44.5766598,45.4999949 44.1313518,44.659183 43.3051758,44.0029297 C42.4789998,43.3466764 41.4536194,43.0185547 40.2290039,43.0185547 C38.8872003,43.0185547 37.8046916,43.3510709 36.9814453,44.0161133 C36.158199,44.6811557 35.746582,45.552729 35.746582,46.6308594 C35.746582,47.5332076 36.0073216,48.2553684 36.5288086,48.7973633 C37.0502956,49.3393582 37.8852482,49.7568345 39.0336914,50.0498047 L40.659668,50.4716797 C41.5327192,50.6884776 42.1743144,50.9755842 42.5844727,51.3330078 C42.994631,51.6904315 43.199707,52.1386692 43.199707,52.6777344 C43.199707,53.3046906 42.9199247,53.824705 42.3603516,54.237793 C41.8007785,54.650881 41.093266,54.8574219 40.237793,54.8574219 C39.3354447,54.8574219 38.5913115,54.6611348 38.0053711,54.2685547 C37.4194307,53.8759746 37.0766607,53.3486361 36.9770508,52.6865234 L35.3774414,52.6865234 Z M52.0766602,56 L56.7524414,43.3173828 L55.0913086,43.3173828 L51.3647461,53.9521484 L51.2241211,53.9521484 L47.4975586,43.3173828 L45.8364258,43.3173828 L50.512207,56 L52.0766602,56 Z" id=".CSV" fill="#FFFFFF" mask="url(#mask-2)"></path>
        </g>
    </g>
</svg>