<?xml version="1.0" encoding="UTF-8"?>
<svg width="32px" height="32px" viewBox="0 0 32 32" version="1.1" xmlns="http://www.w3.org/2000/svg" xmlns:xlink="http://www.w3.org/1999/xlink">
    <!-- Generator: Sketch 43.2 (39069) - http://www.bohemiancoding.com/sketch -->
    <title>PayPal</title>
    <desc>Created with Sketch.</desc>
    <defs></defs>
    <g id="BP-1200-/-1024" stroke="none" stroke-width="1" fill="none" fill-rule="evenodd">
        <g id="Shopping-cart-Alternative" transform="translate(-338.000000, -1302.000000)" fill-rule="nonzero">
            <g id="Page" transform="translate(20.000000, 20.000000)">
                <g id="Container" transform="translate(233.166667, 70.000000)">
                    <g id="Header" transform="translate(20.000000, 20.000000)">
                        <g id="Delivery-Copy" transform="translate(0.000000, 1090.000000)">
                            <g id="Active-Copy" transform="translate(20.000000, 101.108963)">
                                <g id="Form/Input/Text/Empty-Copy-5" transform="translate(0.000000, -0.000000)">
                                    <g id="Select-/-Selected" transform="translate(0.000000, 0.998828)">
                                        <g id="radioChecked" transform="translate(0.000000, -0.000000)">
                                            <g id="fedexPic" transform="translate(41.000000, -0.000000)">
                                                <g id="PayPal" transform="translate(4.000000, -0.000000)">
                                                    <g id="name" transform="translate(0.000000, 22.857143)">
                                                        <path d="M4.03092135,0.269303371 L1.57195506,0.269303371 C1.40368539,0.269303371 1.26058427,0.391550562 1.23433708,0.557662921 L0.239820225,6.86310112 C0.220044944,6.98750562 0.316404494,7.09968539 0.442606742,7.09968539 L1.61653933,7.09968539 C1.78480899,7.09968539 1.92791011,6.9774382 1.9541573,6.81096629 L2.22238202,5.11029213 C2.24826966,4.94382022 2.39173034,4.82157303 2.55964045,4.82157303 L3.33806742,4.82157303 C4.9578427,4.82157303 5.89267416,4.03775281 6.13680899,2.48449438 C6.24683146,1.80494382 6.14148315,1.27101124 5.8232809,0.897078652 C5.47379775,0.48647191 4.85393258,0.269303371 4.03092135,0.269303371 Z M4.31460674,2.57222472 C4.18013483,3.4545618 3.50597753,3.4545618 2.85411236,3.4545618 L2.48305618,3.4545618 L2.74337079,1.80674157 C2.75883146,1.70714607 2.8451236,1.63379775 2.94579775,1.63379775 L3.11586517,1.63379775 C3.55991011,1.63379775 3.97878652,1.63379775 4.19523596,1.88692135 C4.32431461,2.03793258 4.36386517,2.26229213 4.31460674,2.57222472 Z" id="Shape" fill="#253B80"></path>
                                                        <path d="M11.3812135,2.54382022 L10.2036854,2.54382022 C10.1033708,2.54382022 10.0167191,2.61716854 10.0012584,2.71676404 L9.9491236,3.04611236 L9.86678652,2.92674157 C9.61186517,2.55676404 9.04341573,2.43307865 8.47604494,2.43307865 C7.17483146,2.43307865 6.06346067,3.41860674 5.84701124,4.80107865 C5.73447191,5.49069663 5.89447191,6.15011236 6.28566292,6.60997753 C6.64449438,7.03280899 7.15793258,7.20898876 7.76880899,7.20898876 C8.81725843,7.20898876 9.39865169,6.53483146 9.39865169,6.53483146 L9.3461573,6.86202247 C9.32638202,6.98714607 9.42274157,7.09932584 9.54822472,7.09932584 L10.6088989,7.09932584 C10.7775281,7.09932584 10.9199101,6.97707865 10.9465169,6.81060674 L11.5829213,2.78040449 C11.6030562,2.65635955 11.5070562,2.54382022 11.3812135,2.54382022 Z M9.73986517,4.83559551 C9.62624719,5.50831461 9.09231461,5.95991011 8.41132584,5.95991011 C8.06939326,5.95991011 7.79613483,5.85024719 7.62067416,5.64242697 C7.44665169,5.43604494 7.38049438,5.14229213 7.43586517,4.81510112 C7.54193258,4.14813483 8.08485393,3.68179775 8.75541573,3.68179775 C9.08979775,3.68179775 9.36161798,3.79289888 9.54067416,4.00251685 C9.72008989,4.21429213 9.7912809,4.5098427 9.73986517,4.83559551 Z" id="Shape" fill="#253B80"></path>
                                                        <path d="M17.6524944,2.54382022 L16.4692135,2.54382022 C16.3563146,2.54382022 16.2502472,2.59991011 16.1862472,2.69375281 L14.5542472,5.09770787 L13.8624719,2.78759551 C13.8189663,2.64305618 13.685573,2.54382022 13.5345618,2.54382022 L12.3717753,2.54382022 C12.2304719,2.54382022 12.1323146,2.68188764 12.1772584,2.81492135 L13.4806292,6.63982022 L12.2552809,8.36961798 C12.1589213,8.50588764 12.256,8.69321348 12.4224719,8.69321348 L13.6043146,8.69321348 C13.7164944,8.69321348 13.8214831,8.6385618 13.8851236,8.54651685 L17.820764,2.86561798 C17.9149663,2.72970787 17.8182472,2.54382022 17.6524944,2.54382022 Z" id="Shape" fill="#253B80"></path>
                                                        <path d="M21.5701573,0.269303371 L19.1108315,0.269303371 C18.9429213,0.269303371 18.7998202,0.391550562 18.773573,0.557662921 L17.7790562,6.86310112 C17.7592809,6.98750562 17.8556404,7.09968539 17.9811236,7.09968539 L19.2431461,7.09968539 C19.3603596,7.09968539 19.4606742,7.01411236 19.4790112,6.89761798 L19.7612584,5.11029213 C19.7871461,4.94382022 19.9306067,4.82157303 20.0985169,4.82157303 L20.8765843,4.82157303 C22.4967191,4.82157303 23.431191,4.03775281 23.6756854,2.48449438 C23.7860674,1.80494382 23.68,1.27101124 23.3617978,0.897078652 C23.0126742,0.48647191 22.3931685,0.269303371 21.5701573,0.269303371 Z M21.8538427,2.57222472 C21.7197303,3.4545618 21.045573,3.4545618 20.3933483,3.4545618 L20.0226517,3.4545618 L20.2833258,1.80674157 C20.2987865,1.70714607 20.3843596,1.63379775 20.4853933,1.63379775 L20.6554607,1.63379775 C21.0991461,1.63379775 21.518382,1.63379775 21.7348315,1.88692135 C21.8639101,2.03793258 21.9031011,2.26229213 21.8538427,2.57222472 Z" id="Shape" fill="#179BD7"></path>
                                                        <path d="M28.9200899,2.54382022 L27.7432809,2.54382022 C27.6422472,2.54382022 27.5563146,2.61716854 27.5412135,2.71676404 L27.4890787,3.04611236 L27.406382,2.92674157 C27.1514607,2.55676404 26.5833708,2.43307865 26.016,2.43307865 C24.7147865,2.43307865 23.6037753,3.41860674 23.3873258,4.80107865 C23.2751461,5.49069663 23.434427,6.15011236 23.825618,6.60997753 C24.1851685,7.03280899 24.6978876,7.20898876 25.308764,7.20898876 C26.3572135,7.20898876 26.9386067,6.53483146 26.9386067,6.53483146 L26.8861124,6.86202247 C26.8663371,6.98714607 26.9626966,7.09932584 27.0888989,7.09932584 L28.1492135,7.09932584 C28.3171236,7.09932584 28.4602247,6.97707865 28.4864719,6.81060674 L29.123236,2.78040449 C29.1426517,2.65635955 29.0462921,2.54382022 28.9200899,2.54382022 Z M27.2787416,4.83559551 C27.1658427,5.50831461 26.631191,5.95991011 25.9502022,5.95991011 C25.6089888,5.95991011 25.3350112,5.85024719 25.1595506,5.64242697 C24.9855281,5.43604494 24.9200899,5.14229213 24.9747416,4.81510112 C25.0815281,4.14813483 25.6237303,3.68179775 26.2942921,3.68179775 C26.6286742,3.68179775 26.9004944,3.79289888 27.0795506,4.00251685 C27.2596854,4.21429213 27.3308764,4.5098427 27.2787416,4.83559551 Z" id="Shape" fill="#179BD7"></path>
                                                        <path d="M30.3083146,0.442247191 L29.2990562,6.86310112 C29.2792809,6.98750562 29.3756404,7.09968539 29.5011236,7.09968539 L30.5157753,7.09968539 C30.6844045,7.09968539 30.8275056,6.9774382 30.8533933,6.81096629 L31.8486292,0.50588764 C31.8684045,0.381483146 31.7720449,0.26894382 31.6465618,0.26894382 L30.510382,0.26894382 C30.4100674,0.269303371 30.3237753,0.342651685 30.3083146,0.442247191 Z" id="Shape" fill="#179BD7"></path>
                                                    </g>
                                                    <path d="M14.5410612,19.0393469 L14.8826122,16.8698776 L14.1217959,16.8522449 L10.4888163,16.8522449 L13.013551,0.843755102 C13.0213878,0.795428571 13.0468571,0.750367347 13.0840816,0.718367347 C13.1213061,0.686367347 13.1689796,0.668734694 13.2186122,0.668734694 L19.3443265,0.668734694 C21.3779592,0.668734694 22.7813878,1.09191837 23.5141224,1.92718367 C23.8576327,2.31902041 24.0764082,2.7284898 24.1822041,3.17910204 C24.2932245,3.65191837 24.2951837,4.21681633 24.1867755,4.90579592 L24.1789388,4.95608163 L24.1789388,5.39755102 L24.522449,5.59216327 C24.8117551,5.74563265 25.0416327,5.92130612 25.2179592,6.12244898 C25.5118367,6.45746939 25.7018776,6.88326531 25.7822041,7.38808163 C25.8651429,7.90726531 25.8377143,8.52506122 25.7018776,9.2244898 C25.5451429,10.0290612 25.2917551,10.7297959 24.949551,11.3031837 C24.6347755,11.8315102 24.2337959,12.2697143 23.7577143,12.6093061 C23.3031837,12.9319184 22.763102,13.1768163 22.1524898,13.333551 C21.5608163,13.4876735 20.8862041,13.5653878 20.1462857,13.5653878 L19.669551,13.5653878 C19.3286531,13.5653878 18.997551,13.6881633 18.7376327,13.9082449 C18.4770612,14.132898 18.3046531,14.4398367 18.2517551,14.7755102 L18.2158367,14.9707755 L17.6124082,18.794449 L17.5849796,18.9348571 C17.5777959,18.9792653 17.5653878,19.0014694 17.547102,19.0164898 C17.5307755,19.0302041 17.5072653,19.0393469 17.4844082,19.0393469 L14.5410612,19.0393469 Z" id="Shape" fill="#253B80"></path>
                                                    <path d="M24.8476735,5.00702041 L24.8476735,5.00702041 L24.8476735,5.00702041 C24.8293878,5.12391837 24.8084898,5.24342857 24.7849796,5.36620408 C23.9771429,9.51379592 21.2133878,10.9466122 17.6835918,10.9466122 L15.8863673,10.9466122 C15.4546939,10.9466122 15.0909388,11.2600816 15.0236735,11.6858776 L15.0236735,11.6858776 L15.0236735,11.6858776 L14.1035102,17.5216327 L13.8429388,19.1758367 C13.7991837,19.4553469 14.0146939,19.7074286 14.2968163,19.7074286 L17.4844082,19.7074286 C17.8618776,19.7074286 18.1825306,19.4331429 18.2419592,19.060898 L18.2733061,18.8989388 L18.8734694,15.0902857 L18.912,14.8813061 C18.9707755,14.5077551 19.2920816,14.2334694 19.669551,14.2334694 L20.1462857,14.2334694 C23.2346122,14.2334694 25.6522449,12.9795918 26.3588571,9.35118367 C26.6540408,7.83542857 26.5012245,6.56979592 25.7201633,5.67967347 C25.4837551,5.41126531 25.1905306,5.18857143 24.8476735,5.00702041 Z" id="Shape" fill="#179BD7"></path>
                                                    <path d="M24.0026122,4.67004082 C23.8791837,4.63412245 23.7518367,4.60146939 23.6212245,4.57208163 C23.4899592,4.54334694 23.3554286,4.51787755 23.2169796,4.49567347 C22.7324082,4.41730612 22.2014694,4.38008163 21.6326531,4.38008163 L16.8313469,4.38008163 C16.7131429,4.38008163 16.6008163,4.40685714 16.5002449,4.45518367 C16.2788571,4.56163265 16.1142857,4.77126531 16.074449,5.02791837 L15.0530612,11.4971429 L15.0236735,11.6858776 C15.0909388,11.2600816 15.4546939,10.9466122 15.8863673,10.9466122 L17.6835918,10.9466122 C21.2133878,10.9466122 23.9771429,9.51314286 24.7849796,5.36620408 C24.8091429,5.24342857 24.8293878,5.12391837 24.8476735,5.00702041 C24.6432653,4.89861224 24.4218776,4.80587755 24.1835102,4.72685714 C24.1247347,4.70726531 24.064,4.68832653 24.0026122,4.67004082 Z" id="Shape" fill="#222D65"></path>
                                                    <path d="M16.074449,5.02791837 C16.1142857,4.77126531 16.2788571,4.56163265 16.5002449,4.45583673 C16.6014694,4.4075102 16.7131429,4.38073469 16.8313469,4.38073469 L21.6326531,4.38073469 C22.2014694,4.38073469 22.7324082,4.41795918 23.2169796,4.49632653 C23.3554286,4.51853061 23.4899592,4.544 23.6212245,4.57273469 C23.7518367,4.60212245 23.8791837,4.63477551 24.0026122,4.67069388 C24.064,4.68897959 24.1247347,4.70791837 24.1841633,4.72685714 C24.4225306,4.80587755 24.6439184,4.89926531 24.8483265,5.00702041 C25.0886531,3.47428571 24.8463673,2.43069388 24.0176327,1.48571429 C23.104,0.445387755 21.4550204,0 19.3449796,0 L13.2192653,0 C12.7882449,0 12.4205714,0.313469388 12.3539592,0.739918367 L9.80244898,16.9129796 C9.75216327,17.2329796 9.99902041,17.5216327 10.3216327,17.5216327 L14.1035102,17.5216327 L15.0530612,11.4971429 L16.074449,5.02791837 Z" id="Shape" fill="#253B80"></path>
                                                </g>
                                            </g>
                                        </g>
                                    </g>
                                </g>
                            </g>
                        </g>
                    </g>
                </g>
            </g>
        </g>
    </g>
</svg>