<?xml version="1.0" encoding="UTF-8"?>
<svg width="70px" height="69px" viewBox="0 0 70 69" version="1.1" xmlns="http://www.w3.org/2000/svg" xmlns:xlink="http://www.w3.org/1999/xlink">
    <!-- Generator: Sketch 44.1 (41455) - http://www.bohemiancoding.com/sketch -->
    <title>Shape</title>
    <desc>Created with Sketch.</desc>
    <defs></defs>
    <g id="Symbols" stroke="none" stroke-width="1" fill="none" fill-rule="evenodd">
        <g id="Form/Input/File/Process" transform="translate(-423.000000, -58.000000)" fill-rule="nonzero" fill="#FF6D19">
            <g id="Bulk-upload">
                <path d="M410,80 C410,80 410,80.5 410.1,81.4 C410.1,81.9 410.2,82.4 410.3,83.1 C410.3,83.4 410.4,83.8 410.4,84.2 C410.5,84.6 410.5,85 410.6,85.4 C410.8,86.2 410.9,87.2 411.1,88.2 C411.4,89.2 411.7,90.3 412,91.4 C412.3,92.5 412.9,93.7 413.4,94.9 C413.9,96.1 414.6,97.3 415.2,98.6 C415.5,99.2 416,99.8 416.4,100.5 C416.8,101.1 417.2,101.8 417.7,102.4 C418.7,103.6 419.6,105 420.8,106.1 C423,108.6 425.8,110.8 428.7,112.8 C431.7,114.8 435.2,116.2 438.8,117.4 C442.4,118.5 446.3,118.9 450,119 C454,118.9 457.7,118.4 461.3,117.4 C464.9,116.2 468.3,114.8 471.3,112.8 C474.3,110.8 477.1,108.6 479.2,106.1 C480.4,104.9 481.3,103.6 482.3,102.4 C482.8,101.8 483.2,101.1 483.6,100.5 C484,99.9 484.4,99.2 484.8,98.6 C485.4,97.3 486.1,96.1 486.6,94.9 C487.1,93.7 487.6,92.5 488,91.4 C488.3,90.3 488.6,89.2 488.9,88.2 C489.1,87.2 489.3,86.3 489.4,85.4 C489.5,85 489.5,84.6 489.6,84.2 C489.6,83.8 489.7,83.5 489.7,83.1 C489.8,82.4 489.8,81.9 489.9,81.4 C490,80.5 490,80 490,80 L490,81.4 L490,83.1 L490,84.2 C490,84.6 489.9,85 489.9,85.4 C489.8,86.3 489.7,87.2 489.5,88.2 C489.3,89.2 489,90.3 488.8,91.5 C488.5,92.7 488,93.9 487.6,95.2 C487.4,95.9 487.1,96.5 486.8,97.1 C486.5,97.8 486.2,98.4 485.9,99.1 C485.6,99.8 485.2,100.4 484.8,101.1 C484.4,101.8 484.1,102.5 483.6,103.1 C482.6,104.4 481.7,105.8 480.5,107.1 C478.3,109.8 475.5,112.1 472.4,114.2 C471.6,114.7 470.8,115.2 470,115.7 C469.2,116.2 468.3,116.6 467.4,117 L466,117.7 L464.6,118.2 C463.7,118.5 462.8,118.9 461.8,119.2 C458,120.3 453.9,120.9 450,121 L447,120.8 C446,120.8 445,120.6 444,120.5 L442.5,120.3 L441.8,120.2 L441.1,120 C440.1,119.7 439.2,119.5 438.2,119.3 C437.3,119 436.3,118.6 435.4,118.3 L434,117.7 L432.7,117.1 C431.8,116.7 430.9,116.3 430.1,115.8 C429.3,115.3 428.5,114.8 427.7,114.3 C424.6,112.2 421.8,109.8 419.6,107.2 C418.4,106 417.5,104.5 416.5,103.2 C416,102.6 415.7,101.8 415.3,101.2 C414.9,100.5 414.5,99.9 414.2,99.2 C413.9,98.5 413.6,97.9 413.3,97.2 C413,96.5 412.7,95.9 412.5,95.3 C412.1,94 411.6,92.8 411.3,91.6 C411,90.4 410.8,89.3 410.6,88.3 C410.4,87.3 410.3,86.3 410.2,85.5 C410.1,85.1 410.1,84.7 410.1,84.3 L410.1,83.2 L410.1,81.5 C410,80.5 410,80 410,80 Z" id="Shape" transform="translate(450.000000, 100.500000) rotate(-315.000000) translate(-450.000000, -100.500000) "></path>
            </g>
        </g>
    </g>
</svg>