<svg xmlns="http://www.w3.org/2000/svg" xmlns:xlink="http://www.w3.org/1999/xlink" x="0px" y="0px" width="48px" height="48px" viewBox="0 0 48 48"><g  transform="translate(0, 0)">
<path data-cap="butt" data-color="color-2" fill="none" stroke="#404040" stroke-width="4" stroke-miterlimit="10" d="M18,39.8c0,0.1,0,0.2,0,0.2&#10;&#9;c0,3.3,2.7,6,6,6s6-2.7,6-6c0-0.1,0-0.2,0-0.2" stroke-linejoin="miter" stroke-linecap="butt"/>
<path fill="none" stroke="#404040" stroke-width="4" stroke-linecap="square" stroke-miterlimit="10" d="M38,22c0-3.2,0-6,0-6&#10;&#9;c0-7.8-6.2-14-14-14S10,8.2,10,16c0,0,0,2.8,0,6c0,6.7-6,8.2-6,12c0,3.3,7.7,6,20,6s20-2.7,20-6C44,30.2,38,28.7,38,22z" stroke-linejoin="miter"/>
</g></svg>