<?xml version="1.0" encoding="utf-8"?>
<!-- Generator: Adobe Illustrator 22.0.0, SVG Export Plug-In . SVG Version: 6.00 Build 0)  -->
<svg version="1.1" id="Layer_1" xmlns="http://www.w3.org/2000/svg" xmlns:xlink="http://www.w3.org/1999/xlink" x="0px" y="0px"
	 viewBox="0 0 20 20" style="enable-background:new 0 0 20 20;" xml:space="preserve">
<style type="text/css">
	.st0{fill:#606060;}
</style>
<g>
	<path class="st0" d="M12.1,9.8H9.9c-2.7,0-3,4-2.8,4.3c0.7,0.6,2.2,1.1,3.9,1.1s3.1-0.4,3.7-1C15,13.9,14.8,9.8,12.1,9.8L12.1,9.8z
		 M14.2,13.5c-0.5,0.5-1.7,0.8-3.1,0.8c-1.4,0-2.6-0.3-3.1-0.8c0-0.1,0.2-2.9,2.1-2.9h2.2C14,10.6,14.2,13.4,14.2,13.5L14.2,13.5z
		 M14.2,13.5"/>
	<g>
		<path class="st0" d="M11,9.5c1.3,0,2.3-1,2.3-2.3c0-1.3-1-2.3-2.3-2.3c-1.3,0-2.3,1-2.3,2.3C8.7,8.5,9.7,9.5,11,9.5L11,9.5z
			 M11,5.7c0.9,0,1.5,0.6,1.5,1.4c0,0.8-0.7,1.4-1.5,1.4c-0.8,0-1.5-0.6-1.5-1.4C9.5,6.4,10.2,5.7,11,5.7L11,5.7z M11,5.7"/>
		<path class="st0" d="M17.6,0H4.1c-1,0-1.8,0.8-1.8,1.8v3.7H0.6v0.9h1.7v3.1H0.6v0.9h1.7v3.1H0.6v0.9h1.7v3.7c0,1,0.8,1.8,1.8,1.8
			h13.5c1,0,1.8-0.8,1.9-1.8V1.8C19.4,0.8,18.6,0,17.6,0L17.6,0z M18.6,18.2c0,0.5-0.4,1-1,1H4.1c-0.5,0-1-0.4-1-1v-3.7h1.6v-0.9
			H3.1v-3.1h1.6V9.6H3.1V6.4h1.6V5.6H3.1V1.8c0-0.5,0.4-1,1-1h13.5c0.5,0,1,0.4,1,1L18.6,18.2L18.6,18.2z M18.6,18.2"/>
	</g>
</g>
</svg>
