<?xml version="1.0" encoding="utf-8"?>
<!-- Generator: Adobe Illustrator 22.0.0, SVG Export Plug-In . SVG Version: 6.00 Build 0)  -->
<svg version="1.1" id="Layer_1" xmlns="http://www.w3.org/2000/svg" xmlns:xlink="http://www.w3.org/1999/xlink" x="0px" y="0px"
	 viewBox="0 0 20 20" style="enable-background:new 0 0 20 20;" xml:space="preserve">
<style type="text/css">
	.st0{fill:#606060;}
</style>
<g>
	<g>
		<path class="st0" d="M17.9,2.1c-2.2-2.2-5.6-2.2-7.8,0C8.4,3.8,8,6.4,9.1,8.5L0.5,17l0,2.5l4.8,0v-2.3h2.3v-2.3h2.3v-2.3l1.6-1.6
			c2.1,1,4.6,0.7,6.4-1C20,7.8,20,4.3,17.9,2.1L17.9,2.1z M16.1,6.2c-0.7,0.7-1.7,0.7-2.4,0c-0.7-0.7-0.7-1.7,0-2.4
			c0.7-0.7,1.7-0.7,2.4,0C16.8,4.5,16.8,5.6,16.1,6.2L16.1,6.2z M16.1,6.2"/>
	</g>
</g>
</svg>
