<?xml version="1.0" encoding="UTF-8"?>
<svg width="36px" height="26px" viewBox="0 0 36 26" version="1.1" xmlns="http://www.w3.org/2000/svg" xmlns:xlink="http://www.w3.org/1999/xlink">
    <!-- Generator: Sketch 43.2 (39069) - http://www.bohemiancoding.com/sketch -->
    <title>american-express</title>
    <desc>Created with Sketch.</desc>
    <defs></defs>
    <g id="BP-1200-/-1024" stroke="none" stroke-width="1" fill="none" fill-rule="evenodd">
        <g id="Shopping-cart-Payment" transform="translate(-574.000000, -210.000000)" fill-rule="nonzero">
            <g id="Page" transform="translate(20.000000, 20.000000)">
                <g id="Container" transform="translate(233.166667, 72.000000)">
                    <g id="Form" transform="translate(20.000000, 72.000000)">
                        <g id="Cards" transform="translate(221.000000, 46.000000)">
                            <g id="american-express" transform="translate(80.000000, 0.000000)">
                                <g id="Group">
                                    <path d="M32.8823529,0 L2.29411765,0 C1.027,0 0,1.027 0,2.29411765 L0,23.7058824 C0,24.973 1.027,26 2.29411765,26 L32.8823529,26 C34.1494706,26 35.1764706,24.973 35.1764706,23.7058824 L35.1764706,2.29411765 C35.1764706,1.027 34.1494706,0 32.8823529,0 Z" id="Shape" fill="#007AC6"></path>
                                    <path d="M7.28994118,13.3280588 L9.07170588,13.3280588 L8.18082353,11.1432941 L7.28994118,13.3280588 Z M32.1176471,9.17647059 L27.5531176,9.17647059 L26.4397059,10.3778235 L25.4371765,9.17647059 L15.7514118,9.17647059 L14.8605294,11.1425294 L13.9696471,9.17647059 L10.0727059,9.17647059 L10.0727059,10.0505294 L9.62764706,9.17647059 L6.28741176,9.17647059 L3.05882353,16.8235294 L6.95576471,16.8235294 L7.40082353,15.6221765 L8.51423529,15.6221765 L8.95929412,16.8235294 L13.3012941,16.8235294 L13.3012941,15.9494706 L13.6354706,16.8235294 L15.8622941,16.8235294 L16.1964706,15.8401176 L16.1964706,16.8235294 L25.1037647,16.8235294 L26.2171765,15.6221765 L27.2189412,16.8235294 L31.7834706,16.8235294 L28.8890588,13 L32.1176471,9.17647059 Z M18.6458235,15.7307647 L17.4207647,15.7307647 L17.4207647,11.4705882 L15.5281176,15.7307647 L14.4147059,15.7307647 L12.5220588,11.4705882 L12.5220588,15.7307647 L9.96105882,15.7307647 L9.516,14.5294118 L6.84411765,14.5294118 L6.39905882,15.7307647 L4.95147059,15.7307647 L7.28917647,10.2684706 L9.18182353,10.2684706 L11.297,15.4027059 L11.297,10.2684706 L13.4121765,10.2684706 L15.0822941,13.9826471 L16.6407647,10.2684706 L18.7559412,10.2684706 L18.7559412,15.7307647 L18.6458235,15.7307647 L18.6458235,15.7307647 Z M29.6682941,15.7307647 L27.9981765,15.7307647 L26.5505882,13.8732941 L24.8804706,15.7307647 L19.8701176,15.7307647 L19.8701176,10.2684706 L24.9913529,10.2684706 L26.5498235,12.0165882 L28.2199412,10.2684706 L29.7784118,10.2684706 L27.3298235,13 L29.6682941,15.7307647 Z M21.0951765,11.3612353 L21.0951765,12.3446471 L23.8787059,12.3446471 L23.8787059,13.4374118 L21.0951765,13.4374118 L21.0951765,14.5294118 L24.2128824,14.5294118 L25.6604706,12.8906471 L24.3245294,11.3612353 L21.0951765,11.3612353 Z" id="Shape" fill="#FFFFFF"></path>
                                </g>
                            </g>
                        </g>
                    </g>
                </g>
            </g>
        </g>
    </g>
</svg>