<?xml version="1.0" encoding="UTF-8"?>
<svg width="338px" height="264px" viewBox="0 0 338 264" version="1.1" xmlns="http://www.w3.org/2000/svg" xmlns:xlink="http://www.w3.org/1999/xlink">
    <!-- Generator: Sketch 44.1 (41455) - http://www.bohemiancoding.com/sketch -->
    <title>wrongCart</title>
    <desc>Created with Sketch.</desc>
    <defs></defs>
    <g id="Ready" stroke="none" stroke-width="1" fill="none" fill-rule="evenodd">
        <g id="Shopping-cart-Error" transform="translate(-460.000000, -220.000000)" fill-rule="nonzero">
            <g id="Page" transform="translate(20.000000, 20.000000)">
                <g id="Container" transform="translate(233.166667, 72.000000)">
                    <g id="wrongCart" transform="translate(206.000000, 128.000000)">
                        <g id="shopping-color_credit-card" transform="translate(0.830565, 0.000000)">
                            <path d="M322.346231,260.69262 C322.646698,261.266471 322.624441,261.956942 322.288734,262.51043 C321.953028,263.063918 321.352095,263.402675 320.702939,263.402675 L239.094755,263.402675 C238.445599,263.402675 237.844666,263.062067 237.50896,262.508579 C237.173253,261.955091 237.150996,261.266471 237.453318,260.69262 L278.25741,182.945147 C278.895437,181.725252 280.902257,181.725252 281.542139,182.945147 L322.346231,260.69262 Z M278.044116,213.422157 L278.044116,237.486851 C278.044116,238.508675 278.875035,239.337981 279.898847,239.337981 C280.922659,239.337981 281.753578,238.508675 281.753578,237.486851 L281.753578,213.422157 C281.753578,212.400333 280.922659,211.571026 279.898847,211.571026 C278.875035,211.571026 278.044116,212.400333 278.044116,213.422157 Z M279.898847,252.295893 C281.948325,252.295893 283.60831,250.639132 283.60831,248.593633 C283.60831,246.548134 281.948325,244.891372 279.898847,244.891372 C277.849369,244.891372 276.189384,246.548134 276.189384,248.593633 C276.189384,250.639132 277.849369,252.295893 279.898847,252.295893 Z" id="Combined-Shape" fill="#EFD358"></path>
                            <path d="M232.921297,249.169435 L21.9855384,249.169435 C9.84219269,249.169435 0,239.327243 0,227.183897 L0,21.9855384 C0,9.84219269 9.84219269,0 21.9855384,0 L315.12605,0 C327.269396,0 337.111589,9.84219269 337.111589,21.9855384 L337.111589,227.183897 C337.111589,235.714634 332.254363,243.109729 325.154334,246.754756 L281.885254,164.310534 C281.022738,162.666201 278.317685,162.666201 277.457669,164.310534 L232.921297,249.169435 Z" id="Combined-Shape" fill="#BFDEE0"></path>
                            <rect id="Rectangle-path" fill="#223E49" x="0" y="43.9710768" width="337.111589" height="58.6281024"></rect>
                            <rect id="Rectangle-path" fill="#FFFFFF" x="43.9710768" y="146.570256" width="161.227282" height="29.3140512"></rect>
                        </g>
                    </g>
                </g>
            </g>
        </g>
    </g>
</svg>