<svg width="15px" height="18px" viewBox="0 0 15 18" version="1.1" xmlns="http://www.w3.org/2000/svg" xmlns:xlink="http://www.w3.org/1999/xlink">
  <g id="Symbols" stroke="none" stroke-width="1" fill="none" fill-rule="evenodd">
    <g id="Icon-/-Menu-/-DAM" transform="translate(-4.000000, -2.000000)" fill-rule="nonzero">
      <g id="design-color-2_filter-organization" transform="translate(4.000000, 2.000000)">
        <g id="Group">
          <path
            d="M5.25,4.125 L5.25,3.375 L0.75,3.375 L0.75,0.375 C0.75,0.168 0.582,0 0.375,0 C0.168,0 0,0.168 0,0.375 L0,15.75 C0,15.957 0.168,16.125 0.375,16.125 L5.25,16.125 L5.25,15.375 L0.75,15.375 L0.75,10.125 L5.25,10.125 L5.25,9.375 L0.75,9.375 L0.75,4.125 L5.25,4.125 Z"
            id="Shape"
            fill="#B3B3B3"></path>
          <path d="M13.875,6 L5.625,6 C5.418,6 5.25,5.832375 5.25,5.625 L5.25,1.875 C5.25,1.667625 5.418,1.5 5.625,1.5 L13.875,1.5 C14.082,1.5 14.25,1.667625 14.25,1.875 L14.25,5.625 C14.25,5.832375 14.082,6 13.875,6 Z" id="Shape" fill="#EFD358"></path>
          <path
            d="M13.875,18 L5.625,18 C5.418,18 5.25,17.832375 5.25,17.625 L5.25,13.875 C5.25,13.667625 5.418,13.5 5.625,13.5 L13.875,13.5 C14.082,13.5 14.25,13.667625 14.25,13.875 L14.25,17.625 C14.25,17.832375 14.082,18 13.875,18 Z"
            id="Shape"
            fill="#EFD358"></path>
          <path d="M13.875,12 L5.625,12 C5.418,12 5.25,11.832375 5.25,11.625 L5.25,7.875 C5.25,7.667625 5.418,7.5 5.625,7.5 L13.875,7.5 C14.082,7.5 14.25,7.667625 14.25,7.875 L14.25,11.625 C14.25,11.832375 14.082,12 13.875,12 Z" id="Shape" fill="#EFD358"></path>
        </g>
      </g>
    </g>
  </g>
</svg>
