<?xml version="1.0" encoding="UTF-8"?>
<svg width="15px" height="21px" viewBox="0 0 15 21" version="1.1" xmlns="http://www.w3.org/2000/svg" xmlns:xlink="http://www.w3.org/1999/xlink">
    <!-- Generator: Sketch 43.1 (39012) - http://www.bohemiancoding.com/sketch -->
    <title>Combined Shape</title>
    <desc>Created with Sketch.</desc>
    <defs></defs>
    <g id="BP-1200" stroke="none" stroke-width="1" fill="none" fill-rule="evenodd">
        <g id="Page-Layout-V6-1200" transform="translate(-17.000000, -438.000000)" fill-rule="nonzero" fill="#404040">
            <g id="Menu">
                <g id="INSIGHTS-Copy-3" transform="translate(0.000000, 424.000000)">
                    <g id="design-48px-glyph-2_filter-organization" transform="translate(17.837104, 14.715976)">
                        <g id="Group">
                            <path d="M4.45927602,4.46671598 L0.74321267,4.46671598 L0.74321267,10.1516272 L4.45927602,10.1516272 L4.45927602,10.9637574 L0.74321267,10.9637574 L0.74321267,16.6486686 L4.45927602,16.6486686 L4.45927602,17.4607988 L0.371606335,17.4607988 C0.166479638,17.4607988 0,17.2788817 0,17.0547337 L0,0.406065089 C0,0.18191716 0.166479638,0 0.371606335,0 C0.576733032,0 0.74321267,0.18191716 0.74321267,0.406065089 L0.74321267,3.6545858 L4.45927602,3.6545858 L4.45927602,4.46671598 Z M13.7494344,6.49704142 L5.57409502,6.49704142 C5.36896833,6.49704142 5.20248869,6.31553033 5.20248869,6.09097633 L5.20248869,2.03032544 C5.20248869,1.80577145 5.36896833,1.62426036 5.57409502,1.62426036 L13.7494344,1.62426036 C13.9545611,1.62426036 14.1210407,1.80577145 14.1210407,2.03032544 L14.1210407,6.09097633 C14.1210407,6.31553033 13.9545611,6.49704142 13.7494344,6.49704142 Z M13.7494344,19.4911243 L5.57409502,19.4911243 C5.36896833,19.4911243 5.20248869,19.3096132 5.20248869,19.0850592 L5.20248869,15.0244083 C5.20248869,14.7998543 5.36896833,14.6183432 5.57409502,14.6183432 L13.7494344,14.6183432 C13.9545611,14.6183432 14.1210407,14.7998543 14.1210407,15.0244083 L14.1210407,19.0850592 C14.1210407,19.3096132 13.9545611,19.4911243 13.7494344,19.4911243 Z M13.7494344,12.9940828 L5.57409502,12.9940828 C5.36896833,12.9940828 5.20248869,12.8125717 5.20248869,12.5880178 L5.20248869,8.52736686 C5.20248869,8.30281287 5.36896833,8.12130178 5.57409502,8.12130178 L13.7494344,8.12130178 C13.9545611,8.12130178 14.1210407,8.30281287 14.1210407,8.52736686 L14.1210407,12.5880178 C14.1210407,12.8125717 13.9545611,12.9940828 13.7494344,12.9940828 Z" id="Combined-Shape"></path>
                        </g>
                    </g>
                </g>
            </g>
        </g>
    </g>
</svg>