<svg width="18px" height="14px" viewBox="0 0 18 14" version="1.1" xmlns="http://www.w3.org/2000/svg" xmlns:xlink="http://www.w3.org/1999/xlink">
  <g id="Symbols" stroke="none" stroke-width="1" fill="none" fill-rule="evenodd">
    <g id="Icon-/-Menu-/-Dashboard" transform="translate(-2.000000, -4.000000)" fill-rule="nonzero">
      <g id="ui-color-1_dashboard-level" transform="translate(2.000000, 4.500000)">
        <g id="Group">
          <path
            d="M17.0640871,12.5217391 C17.5374616,11.442128 17.8043478,10.2522996 17.8043478,9 C17.8043478,4.14530462 13.8546954,0.195652174 9,0.195652174 C4.14533103,0.195652174 0.195652174,4.14530462 0.195652174,9 C0.195652174,10.2522996 0.46253837,11.442128 0.935912935,12.5217391 L17.0640871,12.5217391 Z"
            id="Shape"
            fill="#FFFFFF"></path>
          <path
            d="M9.93448467,9.93448467 C9.41959321,10.4493761 8.58169223,10.4493761 8.06680076,9.93448467 C7.55190929,9.41959321 6.35869565,6.35869565 6.35869565,6.35869565 C6.35869565,6.35869565 9.41959321,7.55190929 9.93448467,8.06680076 C10.4493761,8.58169223 10.4493761,9.41959321 9.93448467,9.93448467 Z"
            id="Shape"
            fill="#444444"></path>
          <path
            d="M9,2.39673913 C7.17948098,2.39673913 5.52866576,3.13729484 4.3329825,4.3329825 L5.57751668,5.57751668 C6.45435049,4.70067848 7.66494832,4.1576087 9,4.1576087 C11.6701078,4.1576087 13.8423913,6.32989223 13.8423913,9 L15.6032609,9 C15.6032609,5.35896196 12.641038,2.39673913 9,2.39673913 Z"
            id="Shape"
            fill="#E86C60"></path>
          <path d="M2.39673913,9 L4.1576087,9 C4.1576087,7.66494832 4.70067848,6.45435049 5.57751228,5.57751228 L4.3329781,4.3329781 C3.13729484,5.52866576 2.39673913,7.17948098 2.39673913,9 Z" id="Shape" fill="#EFD358"></path>
        </g>
      </g>
    </g>
  </g>
</svg>
