<svg width="18px" height="14px" viewBox="0 0 18 14" version="1.1" xmlns="http://www.w3.org/2000/svg" xmlns:xlink="http://www.w3.org/1999/xlink">
  <g id="Symbols" stroke="none" stroke-width="1" fill="none" fill-rule="evenodd">
    <g id="Icon-/-Menu-/-Dashboard-Idle" transform="translate(-2.000000, -4.000000)" fill-rule="nonzero" fill="#FFFFFF">
      <g id="ui-48px-glyph-1_dashboard-half" transform="translate(2.000000, 4.300000)">
        <path
          d="M17.9608696,8.15047826 C17.5726957,3.94591304 14.2211739,0.523173913 10.0248261,0.0571304348 C4.60526087,-0.545086957 0,3.69978261 0,9 C0,10.4732609 0.356086957,11.8651304 0.986478261,13.0938261 C1.0533913,13.2241304 1.19034783,13.3043478 1.33669565,13.3043478 L16.6636957,13.3043478 C16.8100435,13.3043478 16.9466087,13.2241304 17.0135217,13.0938261 C17.7636522,11.6311304 18.1256087,9.93795652 17.9608696,8.15047826 Z M8.60869565,2.73913043 C8.60869565,2.52313043 8.7836087,2.34782609 9,2.34782609 C9.2163913,2.34782609 9.39130435,2.52313043 9.39130435,2.73913043 L9.39130435,3.52173913 C9.39130435,3.73773913 9.2163913,3.91304348 9,3.91304348 C8.7836087,3.91304348 8.60869565,3.73773913 8.60869565,3.52173913 L8.60869565,2.73913043 Z M3.52173913,9.39130435 L2.73913043,9.39130435 C2.52273913,9.39130435 2.34782609,9.216 2.34782609,9 C2.34782609,8.784 2.52273913,8.60869565 2.73913043,8.60869565 L3.52173913,8.60869565 C3.73813043,8.60869565 3.91304348,8.784 3.91304348,9 C3.91304348,9.216 3.73813043,9.39130435 3.52173913,9.39130435 Z M5.40313043,5.40313043 C5.32682609,5.47943478 5.22665217,5.51778261 5.12647826,5.51778261 C5.02630435,5.51778261 4.92613043,5.47943478 4.84982609,5.40313043 L4.29652174,4.84982609 C4.14352174,4.69682609 4.14352174,4.44952174 4.29652174,4.29652174 C4.44952174,4.14352174 4.69682609,4.14352174 4.84982609,4.29652174 L5.40313043,4.84982609 C5.55573913,5.00243478 5.55573913,5.25013043 5.40313043,5.40313043 Z M9.34043478,11.2969565 C8.71982609,11.4851739 8.0643913,11.1349565 7.87617391,10.5143478 C7.68795652,9.89373913 7.29586957,4.55673913 7.29586957,4.55673913 C7.29586957,4.55673913 9.93482609,9.21247826 10.1230435,9.83269565 C10.3112609,10.452913 9.96104348,11.1087391 9.34043478,11.2969565 Z M13.7038696,4.84982609 L13.1505652,5.40313043 C13.0742609,5.47943478 12.974087,5.51778261 12.873913,5.51778261 C12.7737391,5.51778261 12.6735652,5.47943478 12.5972609,5.40313043 C12.4442609,5.25013043 12.4442609,5.00282609 12.5972609,4.84982609 L13.1505652,4.29652174 C13.3035652,4.14352174 13.5508696,4.14352174 13.7038696,4.29652174 C13.8568696,4.44952174 13.8564783,4.69682609 13.7038696,4.84982609 Z M15.2608696,9.39130435 L14.4782609,9.39130435 C14.2618696,9.39130435 14.0869565,9.216 14.0869565,9 C14.0869565,8.784 14.2618696,8.60869565 14.4782609,8.60869565 L15.2608696,8.60869565 C15.4772609,8.60869565 15.6521739,8.784 15.6521739,9 C15.6521739,9.216 15.4772609,9.39130435 15.2608696,9.39130435 Z"
          id="Shape"></path>
      </g>
    </g>
  </g>
</svg>
