<?xml version="1.0" encoding="UTF-8"?>
<svg width="19px" height="15px" viewBox="0 0 19 15" version="1.1" xmlns="http://www.w3.org/2000/svg" xmlns:xlink="http://www.w3.org/1999/xlink">
    <!-- Generator: Sketch 43.1 (39012) - http://www.bohemiancoding.com/sketch -->
    <title>Shape</title>
    <desc>Created with Sketch.</desc>
    <defs></defs>
    <g id="BP-1200" stroke="none" stroke-width="1" fill="none" fill-rule="evenodd" opacity="0.898833786">
        <g id="Page-Layout-V6-1200" transform="translate(-15.000000, -79.000000)" fill-rule="nonzero" fill="#404040">
            <g id="Menu">
                <g id="DASHBOARD" transform="translate(0.000000, 60.000000)">
                    <g id="Icon-/-Menu-/-Idle" transform="translate(15.855204, 18.727811)">
                        <g id="ui-48px-glyph-1_dashboard-half" transform="translate(0.000000, 0.324852)">
                            <path d="M17.7983278,8.82558941 C17.4136667,4.27271702 14.0924755,0.56643737 9.93410368,0.0617867394 C4.5635843,-0.590318483 0,4.00619708 0,9.74548574 C0,11.3407919 0.35286445,12.8479643 0.977550856,14.1784453 C1.04385835,14.3195441 1.17957545,14.4064068 1.32459886,14.4064068 L16.512893,14.4064068 C16.6579164,14.4064068 16.7932457,14.3195441 16.8595532,14.1784453 C17.6028951,12.5945796 17.961576,10.7611428 17.7983278,8.82558941 Z M8.5307889,2.96596425 C8.5307889,2.73207076 8.70411902,2.54224416 8.91855204,2.54224416 C9.13298505,2.54224416 9.30631517,2.73207076 9.30631517,2.96596425 L9.30631517,3.81340444 C9.30631517,4.04729793 9.13298505,4.23712453 8.91855204,4.23712453 C8.70411902,4.23712453 8.5307889,4.04729793 8.5307889,3.81340444 L8.5307889,2.96596425 Z M3.48986819,10.1692058 L2.71434192,10.1692058 C2.49990891,10.1692058 2.32657879,9.97937923 2.32657879,9.74548574 C2.32657879,9.51159224 2.49990891,9.32176564 2.71434192,9.32176564 L3.48986819,9.32176564 C3.7043012,9.32176564 3.87763132,9.51159224 3.87763132,9.74548574 C3.87763132,9.97937923 3.7043012,10.1692058 3.48986819,10.1692058 Z M5.35423333,5.85065064 C5.27861952,5.93327606 5.17935215,5.97480063 5.08008479,5.97480063 C4.98081743,5.97480063 4.88155007,5.93327606 4.80593626,5.85065064 L4.25763919,5.25151043 C4.1060238,5.08583588 4.1060238,4.81804478 4.25763919,4.65237022 C4.40925457,4.48669567 4.65432087,4.48669567 4.80593626,4.65237022 L5.35423333,5.25151043 C5.50546095,5.41676127 5.50546095,5.68497609 5.35423333,5.85065064 Z M9.25590596,12.2327227 C8.64091363,12.436532 7.99141039,12.0573026 7.80489632,11.3852825 C7.61838225,10.7132624 7.2298436,4.93414408 7.2298436,4.93414408 C7.2298436,4.93414408 9.84491816,9.97556575 10.0314322,10.6471621 C10.2179463,11.3187584 9.87089829,12.0289133 9.25590596,12.2327227 Z M13.5798526,5.25151043 L13.0315556,5.85065064 C12.9559418,5.93327606 12.8566744,5.97480063 12.757407,5.97480063 C12.6581397,5.97480063 12.5588723,5.93327606 12.4832585,5.85065064 C12.3316431,5.68497609 12.3316431,5.41718499 12.4832585,5.25151043 L13.0315556,4.65237022 C13.183171,4.48669567 13.4282373,4.48669567 13.5798526,4.65237022 C13.731468,4.81804478 13.7310803,5.08583588 13.5798526,5.25151043 Z M15.1227621,10.1692058 L14.3472359,10.1692058 C14.1328029,10.1692058 13.9594728,9.97937923 13.9594728,9.74548574 C13.9594728,9.51159224 14.1328029,9.32176564 14.3472359,9.32176564 L15.1227621,9.32176564 C15.3371952,9.32176564 15.5105253,9.51159224 15.5105253,9.74548574 C15.5105253,9.97937923 15.3371952,10.1692058 15.1227621,10.1692058 Z" id="Shape"></path>
                        </g>
                    </g>
                </g>
            </g>
        </g>
    </g>
</svg>