<?xml version="1.0" encoding="UTF-8"?>
<svg width="29px" height="28px" viewBox="0 0 29 28" version="1.1" xmlns="http://www.w3.org/2000/svg" xmlns:xlink="http://www.w3.org/1999/xlink">
    <!-- Generator: Sketch 44.1 (41455) - http://www.bohemiancoding.com/sketch -->
    <title>Icon</title>
    <desc>Created with Sketch.</desc>
    <defs></defs>
    <g id="Ready" stroke="none" stroke-width="1" fill="none" fill-rule="evenodd">
        <g id="Order-detail" transform="translate(-827.000000, -246.000000)" stroke="#444444" stroke-width="2">
            <g id="Page" transform="translate(20.000000, 20.000000)">
                <g id="Container" transform="translate(233.166667, 70.000000)">
                    <g id="Status-Panel" transform="translate(20.000000, 136.000000)">
                        <g id="Components/Metrics/Full-Copy-6" transform="translate(540.000000, 0.000000)">
                            <g id="Content" transform="translate(15.000000, 15.000000)">
                                <g id="Icon" transform="translate(0.000000, 6.000000)">
                                    <circle id="Oval" stroke-linecap="square" cx="13" cy="13" r="13"></circle>
                                    <path d="M9.45454545,15.9545455 L9.45454545,15.9545455 C9.45454545,17.6090909 10.7545455,18.9090909 12.4090909,18.9090909 L13.5909091,18.9090909 C15.2454545,18.9090909 16.5454545,17.6090909 16.5454545,15.9545455 L16.5454545,15.9545455 C16.5454545,11.8181818 9.45454545,14.1818182 9.45454545,10.0454545 L9.45454545,10.0454545 C9.45454545,8.39090909 10.7545455,7.09090909 12.4090909,7.09090909 L13.5909091,7.09090909 C15.2454545,7.09090909 16.5454545,8.39090909 16.5454545,10.0454545" id="Shape"></path>
                                    <path d="M13,5.90909091 L13,20.0909091" id="Shape" stroke-linecap="square"></path>
                                </g>
                            </g>
                        </g>
                    </g>
                </g>
            </g>
        </g>
    </g>
</svg>