<svg xmlns="http://www.w3.org/2000/svg" xmlns:xlink="http://www.w3.org/1999/xlink" x="0px" y="0px" width="48px" height="48px" viewBox="0 0 48 48"><path  fill="#00a4f5" d="M38.9,21c-1-7.9-7.8-14-15.9-14C14.7,7,7.8,13.3,7.1,21.5C3.5,22.7,1,26.1,1,30c0,5,4,9,9,9h28c5,0,9-4,9-9&#10;&#9;C47,25.3,43.4,21.5,38.9,21z M30.7,28.7l-6,6c-0.1,0.1-0.2,0.2-0.3,0.2C24.3,35,24.1,35,24,35s-0.3,0-0.4-0.1&#10;&#9;c-0.1-0.1-0.2-0.1-0.3-0.2l-6-6c-0.4-0.4-0.4-1,0-1.4s1-0.4,1.4,0l4.3,4.3V18c0-0.6,0.4-1,1-1s1,0.4,1,1v13.6l4.3-4.3&#10;&#9;c0.4-0.4,1-0.4,1.4,0S31.1,28.3,30.7,28.7z" transform="translate(0, 0)"/></svg>