<svg xmlns="http://www.w3.org/2000/svg" xmlns:xlink="http://www.w3.org/1999/xlink" x="0px" y="0px" width="48px" height="48px" viewBox="0 0 48 48"><g  transform="translate(0, 0)">
<path fill="#404040" d="M39.707,1.293c-0.391-0.391-1.023-0.391-1.414,0l-24,24C14.105,25.48,14,25.734,14,26v7c0,0.553,0.448,1,1,1&#10;&#9;h7c0.265,0,0.52-0.105,0.707-0.293l24-24c0.391-0.391,0.391-1.023,0-1.414L39.707,1.293z"/>
<path data-color="color-2" fill="#404040" d="M38,29c-0.552,0-1,0.447-1,1v15H3V11h15c0.552,0,1-0.447,1-1s-0.448-1-1-1H2&#10;&#9;c-0.552,0-1,0.447-1,1v36c0,0.553,0.448,1,1,1h36c0.552,0,1-0.447,1-1V30C39,29.447,38.552,29,38,29z"/>
</g></svg>