<?xml version="1.0" encoding="utf-8"?>
<!-- Generator: Adobe Illustrator 22.0.0, SVG Export Plug-In . SVG Version: 6.00 Build 0)  -->
<svg version="1.1" id="Layer_1" xmlns="http://www.w3.org/2000/svg" xmlns:xlink="http://www.w3.org/1999/xlink" x="0px" y="0px"
	 viewBox="0 0 20 20" style="enable-background:new 0 0 20 20;" xml:space="preserve">
<style type="text/css">
	.st0{fill:#606060;}
</style>
<g>
	<path class="st0" d="M10.3,7.2C9.6,7.2,9,7,8.6,6.6C8.3,6.2,8.2,5.8,8.2,5.3c0.1-1,1.2-1.8,2.4-1.8c0.7,0,1.3,0.2,1.7,0.7
		c0.3,0.3,0.5,0.8,0.4,1.2C12.5,6.4,11.5,7.2,10.3,7.2z M10.6,4.5c-0.7,0-1.4,0.4-1.4,1c0,0.2,0,0.4,0.2,0.5
		c0.2,0.2,0.5,0.4,0.9,0.4c0.7,0,1.4-0.4,1.4-1c0-0.2-0.1-0.4-0.2-0.5C11.3,4.6,11,4.5,10.6,4.5z"/>
	<path class="st0" d="M9.7,16.5c0,0-1.1,0-1.8-0.8c-0.4-0.5-0.6-1.3-0.4-2.1c0,0,0,0,0,0c0-0.3,0.4-2.1,0.4-2.2
		c0.3-1.3,0-1.5-0.1-1.6C7.7,9.7,7.6,9.6,7.5,9.5c-0.1-0.1-0.1-0.3,0-0.6C7.9,8.3,9,7.7,10,7.7c0.7,0.1,1.3,0.4,1.7,0.9
		c0.4,0.5,0.5,1.3,0.4,2.1c0,0,0,0,0,0c-0.2,0.8-0.3,1.5-0.4,1.8c0,0.2-0.1,0.3-0.1,0.3c-0.2,1.3,0.1,1.5,0.2,1.6
		c0.1,0.1,0.2,0.1,0.3,0.3c0.1,0.1,0.1,0.3,0,0.6C11.7,15.9,10.7,16.5,9.7,16.5z M8.4,13.7c-0.1,0.6,0,1,0.2,1.3
		c0.2,0.3,0.6,0.4,1,0.5c0.3,0,0.6-0.1,1-0.2c0.2-0.1,0.3-0.2,0.4-0.3c-0.3-0.3-0.6-1-0.4-2.4c0,0,0,0,0,0c0,0,0-0.1,0.1-0.3
		c0.1-0.4,0.2-1.1,0.4-1.8c0.1-0.6,0-1-0.2-1.3c-0.2-0.3-0.5-0.4-1-0.5c-0.3,0-0.7,0.1-1,0.2C8.8,9,8.7,9.1,8.6,9.2
		c0.3,0.4,0.6,1,0.3,2.4c0,0,0,0,0,0C8.9,11.6,8.5,13.5,8.4,13.7z"/>
	<path class="st0" d="M18.4,19.3c-0.1,0-0.1,0-0.2,0l-3.5-1.3C13.3,18.7,11.7,19,10,19c-2.7,0-5.2-0.9-7.1-2.7C1,14.6,0,12.3,0,9.9
		s1-4.8,2.9-6.5C4.8,1.7,7.3,0.7,10,0.7s5.2,0.9,7.1,2.7C19,5.1,20,7.4,20,9.9c0,2-0.7,4-2,5.5l0.9,3.2c0,0.2,0,0.4-0.1,0.5
		C18.6,19.2,18.5,19.3,18.4,19.3z M10,1.7c-5,0-9,3.7-9,8.2s4.1,8.2,9,8.2c1.6,0,3.1-0.4,4.5-1.1c0.1-0.1,0.3-0.1,0.4,0l2.8,1
		L17,15.4c0-0.2,0-0.3,0.1-0.4c1.3-1.5,2-3.2,2-5.1C19,5.4,15,1.7,10,1.7z"/>
</g>
</svg>
