<?xml version="1.0" encoding="utf-8"?>
<!-- Generator: Adobe Illustrator 22.0.0, SVG Export Plug-In . SVG Version: 6.00 Build 0)  -->
<svg version="1.1" id="Layer_1" xmlns="http://www.w3.org/2000/svg" xmlns:xlink="http://www.w3.org/1999/xlink" x="0px" y="0px"
	 viewBox="0 0 20 20" style="enable-background:new 0 0 20 20;" xml:space="preserve">
<style type="text/css">
	.st0{fill:#606060;}
</style>
<g>
	<path class="st0" d="M0.4,17.5c-0.2,0-0.4-0.2-0.4-0.4V2.9c0-0.2,0.2-0.4,0.4-0.4c0.2,0,0.4,0.2,0.4,0.4v14.2
		C0.8,17.3,0.6,17.5,0.4,17.5L0.4,17.5z M0.4,17.5"/>
	<path class="st0" d="M19.6,17.5c-0.2,0-0.4-0.2-0.4-0.4V2.9c0-0.2,0.2-0.4,0.4-0.4c0.2,0,0.4,0.2,0.4,0.4v14.2
		C20,17.3,19.8,17.5,19.6,17.5L19.6,17.5z M19.6,17.5"/>
	<path class="st0" d="M1.9,14.4c-0.2,0-0.4-0.2-0.4-0.4V2.9c0-0.2,0.2-0.4,0.4-0.4c0.2,0,0.4,0.2,0.4,0.4V14
		C2.3,14.3,2.1,14.4,1.9,14.4L1.9,14.4z M1.9,14.4"/>
	<path class="st0" d="M3.1,14.4c-0.2,0-0.4-0.2-0.4-0.4V2.9c0-0.2,0.2-0.4,0.4-0.4c0.2,0,0.4,0.2,0.4,0.4V14
		C3.5,14.3,3.3,14.4,3.1,14.4L3.1,14.4z M3.1,14.4"/>
	<path class="st0" d="M5,14.4c-0.2,0-0.4-0.2-0.4-0.4V2.9c0-0.2,0.2-0.4,0.4-0.4c0.2,0,0.4,0.2,0.4,0.4V14C5.4,14.3,5.2,14.4,5,14.4
		L5,14.4z M5,14.4"/>
	<path class="st0" d="M6.2,14.4c-0.2,0-0.4-0.2-0.4-0.4V2.9c0-0.2,0.2-0.4,0.4-0.4c0.2,0,0.4,0.2,0.4,0.4V14
		C6.5,14.3,6.4,14.4,6.2,14.4L6.2,14.4z M6.2,14.4"/>
	<path class="st0" d="M7.3,14.4c-0.2,0-0.4-0.2-0.4-0.4V2.9c0-0.2,0.2-0.4,0.4-0.4c0.2,0,0.4,0.2,0.4,0.4V14
		C7.7,14.3,7.5,14.4,7.3,14.4L7.3,14.4z M7.3,14.4"/>
	<path class="st0" d="M9.6,14.4c-0.2,0-0.4-0.2-0.4-0.4V2.9c0-0.2,0.2-0.4,0.4-0.4c0.2,0,0.4,0.2,0.4,0.4V14
		C10,14.3,9.8,14.4,9.6,14.4L9.6,14.4z M9.6,14.4"/>
	<path class="st0" d="M11.5,14.4c-0.2,0-0.4-0.2-0.4-0.4V2.9c0-0.2,0.2-0.4,0.4-0.4c0.2,0,0.4,0.2,0.4,0.4V14
		C11.9,14.3,11.8,14.4,11.5,14.4L11.5,14.4z M11.5,14.4"/>
	<path class="st0" d="M12.7,14.4c-0.2,0-0.4-0.2-0.4-0.4V2.9c0-0.2,0.2-0.4,0.4-0.4c0.2,0,0.4,0.2,0.4,0.4V14
		C13.1,14.3,12.9,14.4,12.7,14.4L12.7,14.4z M12.7,14.4"/>
	<path class="st0" d="M14.6,14.4c-0.2,0-0.4-0.2-0.4-0.4V2.9c0-0.2,0.2-0.4,0.4-0.4c0.2,0,0.4,0.2,0.4,0.4V14
		C15,14.3,14.8,14.4,14.6,14.4L14.6,14.4z M14.6,14.4"/>
	<path class="st0" d="M15.8,14.4c-0.2,0-0.4-0.2-0.4-0.4V2.9c0-0.2,0.2-0.4,0.4-0.4c0.2,0,0.4,0.2,0.4,0.4V14
		C16.2,14.3,16,14.4,15.8,14.4L15.8,14.4z M15.8,14.4"/>
	<path class="st0" d="M18.1,14.4c-0.2,0-0.4-0.2-0.4-0.4V2.9c0-0.2,0.2-0.4,0.4-0.4c0.2,0,0.4,0.2,0.4,0.4V14
		C18.5,14.3,18.3,14.4,18.1,14.4L18.1,14.4z M18.1,14.4"/>
	<path class="st0" d="M1.9,16.7c-0.2,0-0.4-0.2-0.4-0.4V16c0-0.2,0.2-0.4,0.4-0.4c0.2,0,0.4,0.2,0.4,0.4v0.4
		C2.3,16.6,2.1,16.7,1.9,16.7L1.9,16.7z M1.9,16.7"/>
	<path class="st0" d="M3.1,16.7c-0.2,0-0.4-0.2-0.4-0.4V16c0-0.2,0.2-0.4,0.4-0.4c0.2,0,0.4,0.2,0.4,0.4v0.4
		C3.5,16.6,3.3,16.7,3.1,16.7L3.1,16.7z M3.1,16.7"/>
	<path class="st0" d="M4.2,16.7c-0.2,0-0.4-0.2-0.4-0.4V16c0-0.2,0.2-0.4,0.4-0.4c0.2,0,0.4,0.2,0.4,0.4v0.4
		C4.6,16.6,4.4,16.7,4.2,16.7L4.2,16.7z M4.2,16.7"/>
	<path class="st0" d="M5.4,16.7c-0.2,0-0.4-0.2-0.4-0.4V16c0-0.2,0.2-0.4,0.4-0.4c0.2,0,0.4,0.2,0.4,0.4v0.4
		C5.8,16.6,5.6,16.7,5.4,16.7L5.4,16.7z M5.4,16.7"/>
	<path class="st0" d="M6.5,16.7c-0.2,0-0.4-0.2-0.4-0.4V16c0-0.2,0.2-0.4,0.4-0.4s0.4,0.2,0.4,0.4v0.4C6.9,16.6,6.8,16.7,6.5,16.7
		L6.5,16.7z M6.5,16.7"/>
	<path class="st0" d="M7.7,16.7c-0.2,0-0.4-0.2-0.4-0.4V16c0-0.2,0.2-0.4,0.4-0.4c0.2,0,0.4,0.2,0.4,0.4v0.4
		C8.1,16.6,7.9,16.7,7.7,16.7L7.7,16.7z M7.7,16.7"/>
	<path class="st0" d="M8.8,16.7c-0.2,0-0.4-0.2-0.4-0.4V16c0-0.2,0.2-0.4,0.4-0.4c0.2,0,0.4,0.2,0.4,0.4v0.4
		C9.2,16.6,9.1,16.7,8.8,16.7L8.8,16.7z M8.8,16.7"/>
	<path class="st0" d="M10,16.7c-0.2,0-0.4-0.2-0.4-0.4V16c0-0.2,0.2-0.4,0.4-0.4c0.2,0,0.4,0.2,0.4,0.4v0.4
		C10.4,16.6,10.2,16.7,10,16.7L10,16.7z M10,16.7"/>
	<path class="st0" d="M11.2,16.7c-0.2,0-0.4-0.2-0.4-0.4V16c0-0.2,0.2-0.4,0.4-0.4c0.2,0,0.4,0.2,0.4,0.4v0.4
		C11.5,16.6,11.4,16.7,11.2,16.7L11.2,16.7z M11.2,16.7"/>
	<path class="st0" d="M12.3,16.7c-0.2,0-0.4-0.2-0.4-0.4V16c0-0.2,0.2-0.4,0.4-0.4c0.2,0,0.4,0.2,0.4,0.4v0.4
		C12.7,16.6,12.5,16.7,12.3,16.7L12.3,16.7z M12.3,16.7"/>
	<path class="st0" d="M13.5,16.7c-0.2,0-0.4-0.2-0.4-0.4V16c0-0.2,0.2-0.4,0.4-0.4c0.2,0,0.4,0.2,0.4,0.4v0.4
		C13.8,16.6,13.7,16.7,13.5,16.7L13.5,16.7z M13.5,16.7"/>
	<path class="st0" d="M14.6,16.7c-0.2,0-0.4-0.2-0.4-0.4V16c0-0.2,0.2-0.4,0.4-0.4c0.2,0,0.4,0.2,0.4,0.4v0.4
		C15,16.6,14.8,16.7,14.6,16.7L14.6,16.7z M14.6,16.7"/>
	<path class="st0" d="M15.8,16.7c-0.2,0-0.4-0.2-0.4-0.4V16c0-0.2,0.2-0.4,0.4-0.4c0.2,0,0.4,0.2,0.4,0.4v0.4
		C16.2,16.6,16,16.7,15.8,16.7L15.8,16.7z M15.8,16.7"/>
	<path class="st0" d="M16.9,16.7c-0.2,0-0.4-0.2-0.4-0.4V16c0-0.2,0.2-0.4,0.4-0.4c0.2,0,0.4,0.2,0.4,0.4v0.4
		C17.3,16.6,17.1,16.7,16.9,16.7L16.9,16.7z M16.9,16.7"/>
	<path class="st0" d="M18.1,16.7c-0.2,0-0.4-0.2-0.4-0.4V16c0-0.2,0.2-0.4,0.4-0.4c0.2,0,0.4,0.2,0.4,0.4v0.4
		C18.5,16.6,18.3,16.7,18.1,16.7L18.1,16.7z M18.1,16.7"/>
</g>
</svg>
