<svg width="30px" height="18px" viewBox="0 0 30 18" version="1.1" xmlns="http://www.w3.org/2000/svg" xmlns:xlink="http://www.w3.org/1999/xlink">
  <g id="Symbols" stroke="none" stroke-width="1" fill="none" fill-rule="evenodd">
    <g id="Layout/Menu/Collapsed" transform="translate(-15.000000, -30.000000)" fill-rule="nonzero" fill="#FF6D19">
      <g id="ui-color-2_menu-34" transform="translate(15.000000, 30.000000)">
        <g id="Group">
          <path
            d="M29.3181818,9.81818182 L0.681818182,9.81818182 C0.305263636,9.81818182 0,9.57397091 0,9.27272727 L0,8.18181818 C0,7.88057455 0.305263636,7.63636364 0.681818182,7.63636364 L29.3181818,7.63636364 C29.6947364,7.63636364 30,7.88057455 30,8.18181818 L30,9.27272727 C30,9.57397091 29.6947364,9.81818182 29.3181818,9.81818182 Z"
            id="Shape"></path>
          <path
            d="M29.3181818,2.18181818 L0.681818182,2.18181818 C0.305263636,2.18181818 0,1.93761273 0,1.63636364 L0,0.545454545 C0,0.244205455 0.305263636,0 0.681818182,0 L29.3181818,0 C29.6947364,0 30,0.244205455 30,0.545454545 L30,1.63636364 C30,1.93761273 29.6947364,2.18181818 29.3181818,2.18181818 Z"
            id="Shape"></path>
          <path
            d="M29.3181818,17.4545455 L0.681818182,17.4545455 C0.305263636,17.4545455 0,17.2103345 0,16.9090909 L0,15.8181818 C0,15.5169382 0.305263636,15.2727273 0.681818182,15.2727273 L29.3181818,15.2727273 C29.6947364,15.2727273 30,15.5169382 30,15.8181818 L30,16.9090909 C30,17.2103345 29.6947364,17.4545455 29.3181818,17.4545455 Z"
            id="Shape"></path>
        </g>
      </g>
    </g>
  </g>
</svg>
