<svg width="18px" height="18px" viewBox="0 0 18 18" version="1.1" xmlns="http://www.w3.org/2000/svg" xmlns:xlink="http://www.w3.org/1999/xlink">
  <g id="Symbols" stroke="none" stroke-width="1" fill="none" fill-rule="evenodd">
    <g id="Icon-/-Menu-/-Help" transform="translate(-2.000000, -2.000000)">
      <g id="objects-color_support-17" transform="translate(2.000000, 2.000000)">
        <g id="Group">
          <path
            d="M12.9390065,7.27450043 L12.4544857,7.7590213 L10.2411704,5.54532261 L10.7254996,5.06099348 C9.62777348,4.58177478 8.37222652,4.58177478 7.27450435,5.06099348 L7.75902522,5.54551435 L5.54532652,7.75882957 L5.06099739,7.27450043 C4.5817787,8.37222652 4.5817787,9.62777348 5.06099739,10.7254957 L5.54551826,10.2409748 L7.75883348,12.4546735 L7.27450435,12.9390026 C8.37223043,13.4182213 9.62777739,13.4182213 10.7254996,12.9390026 L10.2409787,12.4544817 L12.4546774,10.2411665 L12.9390065,10.7254957 C13.4182252,9.62777348 13.4182252,8.37222652 12.9390065,7.27450043 Z"
            id="Shape"></path>
          <path
            d="M5.06099348,7.27450043 L1.63216174,3.8456687 C-0.527462609,6.93046174 -0.527560435,11.0694678 1.63213826,14.1543548 L5.06099348,10.7254996 C4.58177478,9.62777348 4.58177478,8.37222652 5.06099348,7.27450043 Z"
            id="Shape"
            fill="#E86C60"
            fill-rule="nonzero"></path>
          <path
            d="M12.9390065,10.7254996 L16.3678383,14.1543313 C18.5274626,11.0695383 18.5275604,6.93053217 16.3678617,3.84564522 L12.9390065,7.27450043 C13.4182252,8.37222652 13.4182252,9.62777348 12.9390065,10.7254996 Z"
            id="Shape"
            fill="#E86C60"
            fill-rule="nonzero"></path>
          <path
            d="M10.7254996,5.06099348 L14.1543548,1.63213826 C11.0694639,-0.527560435 6.93046174,-0.527462609 3.8456687,1.63216174 L7.27450043,5.06099348 C8.37222652,4.58177478 9.62777348,4.58177478 10.7254996,5.06099348 Z"
            id="Shape"
            fill="#E86C60"
            fill-rule="nonzero"></path>
          <path
            d="M7.27450043,12.9390065 L3.84564522,16.3678617 C6.93053609,18.5275604 11.0695383,18.5274626 14.1543313,16.3678383 L10.7254996,12.9390065 C9.62777348,13.4182252 8.37222652,13.4182252 7.27450043,12.9390065 Z"
            id="Shape"
            fill="#E86C60"
            fill-rule="nonzero"></path>
          <path
            d="M12.0436435,5.95635652 C12.4343765,6.34708957 12.7302183,6.79623652 12.9390065,7.27450043 L16.3678617,3.84564522 C16.0712296,3.42195652 15.7420722,3.01417043 15.3639509,2.63604913 C14.9858296,2.25792783 14.5780474,1.92876652 14.1543548,1.63213826 L10.7254996,5.06099348 C11.2037635,5.26978174 11.6529104,5.56562739 12.0436435,5.95635652 Z"
            id="Shape"
            fill="#E6E6E6"
            fill-rule="nonzero"></path>
          <path
            d="M16.3678383,14.1543313 L12.9390065,10.7254996 C12.7302183,11.2037635 12.4343765,11.6529143 12.0436435,12.0436435 C11.6529104,12.4343726 11.2037635,12.7302183 10.7254996,12.9390065 L14.1543313,16.3678383 C14.5780435,16.0712061 14.9858296,15.7420722 15.3639509,15.3639509 C15.7420722,14.9858296 16.0712061,14.5780435 16.3678383,14.1543313 Z"
            id="Shape"
            fill="#E6E6E6"
            fill-rule="nonzero"></path>
          <path
            d="M5.95635652,12.0436435 C5.56562348,11.6529104 5.26978174,11.2037635 5.06099348,10.7254996 L1.63213826,14.1543548 C1.92877043,14.5780435 2.25792783,14.9858296 2.63604913,15.3639509 C3.01417043,15.7420722 3.42195261,16.0712335 3.84564522,16.3678617 L7.27450043,12.9390065 C6.79623652,12.7302183 6.34708957,12.4343726 5.95635652,12.0436435 Z"
            id="Shape"
            fill="#E6E6E6"
            fill-rule="nonzero"></path>
          <path
            d="M5.95635652,5.95635652 C6.34708957,5.56562348 6.79623652,5.26978174 7.27450043,5.06099348 L3.8456687,1.63216174 C3.42195652,1.92879391 3.01417043,2.25792783 2.63604913,2.63604913 C2.25792783,3.01417043 1.92879391,3.42195652 1.63216174,3.8456687 L5.06099348,7.27450043 C5.26978174,6.79623652 5.56562739,6.34708957 5.95635652,5.95635652 Z"
            id="Shape"
            fill="#E6E6E6"
            fill-rule="nonzero"></path>
        </g>
      </g>
    </g>
  </g>
</svg>
