<?xml version="1.0" encoding="UTF-8"?>
<svg width="18px" height="18px" viewBox="0 0 18 18" version="1.1" xmlns="http://www.w3.org/2000/svg" xmlns:xlink="http://www.w3.org/1999/xlink">
    <!-- Generator: Sketch 44.1 (41455) - http://www.bohemiancoding.com/sketch -->
    <title>icon_Help</title>
    <desc>Created with Sketch.</desc>
    <defs></defs>
    <g id="Symbols" stroke="none" stroke-width="1" fill="none" fill-rule="evenodd">
        <g id="Icon-/-Menu-/-Help-Idle" transform="translate(-2.000000, -2.000000)" fill-rule="nonzero" fill="#444444">
            <g id="icon_Help" transform="translate(2.000000, 2.280000)">
                <path d="M8.218125,13.179375 C8.10870078,13.1737526 8.02124742,13.0862992 8.015625,12.976875 L8.015625,11.19375 C8.01568788,11.1402871 8.0381261,11.0892911 8.0775,11.053125 C8.1136661,11.0137511 8.16466205,10.9913129 8.218125,10.99125 L10.006875,10.99125 C10.1174674,10.9942007 10.2064243,11.0831576 10.209375,11.19375 L10.209375,12.9825 C10.2093121,13.0359629 10.1868739,13.0869589 10.1475,13.123125 C10.1113339,13.1624989 10.0603379,13.1849371 10.006875,13.185 L8.218125,13.179375 Z M8.19,10.321875 C8.19,10.321875 8.13375,10.321875 8.083125,10.231875 C8.04088778,10.1622064 8.01761697,10.0826977 8.015625,10.00125 L8.015625,9.66375 C8.02037426,9.24366909 8.18536277,8.84125809 8.476875,8.53875 C8.76088263,8.20830077 9.11172067,7.94181724 9.50625,7.756875 C9.75647068,7.65742226 9.982713,7.50595494 10.17,7.3125 C10.3146305,7.1353175 10.3887451,6.91097063 10.378125,6.6825 C10.3656735,6.41973583 10.2190883,6.1818004 9.99,6.0525 C9.73781634,5.88219811 9.43925044,5.79380689 9.135,5.799375 C8.83329836,5.78857009 8.53534323,5.86893956 8.28,6.03 C8.0090657,6.24475189 7.76201945,6.48802645 7.543125,6.755625 C7.41617286,6.91673253 7.18368929,6.94673041 7.02,6.823125 L6.075,6.1425 C5.9147506,6.02528268 5.87292333,5.80384419 5.979375,5.63625 C6.7153561,4.53079829 7.94775954,3.85781347 9.275625,3.83625 C9.6742111,3.83973929 10.0688092,3.91599012 10.44,4.06125 C10.8236501,4.20757155 11.1822871,4.41250697 11.503125,4.66875 C11.8173935,4.92185212 12.0775512,5.23557179 12.268125,5.59125 C12.4580206,5.93594834 12.5585788,6.32271081 12.560625,6.71625 C12.5621184,6.96258096 12.5241371,7.20756041 12.448125,7.441875 C12.3905281,7.63937324 12.307321,7.82848039 12.200625,8.004375 C12.0921591,8.16620374 11.9615088,8.31200187 11.8125,8.4375 C11.6812431,8.55205079 11.5421555,8.65730624 11.39625,8.7525 L10.94625,9.016875 C10.7185532,9.13980255 10.5251933,9.31769362 10.38375,9.534375 C10.2586361,9.6972065 10.1825371,9.89233229 10.164375,10.096875 C10.1640788,10.1647049 10.1402175,10.2303233 10.096875,10.2825 C10.0674756,10.3292625 10.0170514,10.3586766 9.961875,10.36125 L8.19,10.321875 Z" id="Shape"></path>
                <path d="M9.219375,4.43029995e-17 C5.71748492,-0.00227543263 2.55914822,2.10546117 1.21745594,5.34013289 C-0.124236337,8.57480461 0.615020056,12.2992031 3.09042592,14.7762185 C5.56583179,17.2532338 9.28974901,17.9949109 12.5252921,16.6553214 C15.7608352,15.3157319 17.8706243,12.1587658 17.870625,8.656875 C17.8675267,3.87929457 13.9969524,0.00620364658 9.219375,-9.17427738e-16 L9.219375,4.43029995e-17 Z M9.219375,15.879375 C6.29484882,15.88165 3.65713071,14.1214083 2.53691182,11.4199331 C1.41669294,8.71845788 2.03474307,5.6081489 4.10269598,3.54019598 C6.1706489,1.47224307 9.28095788,0.854192936 11.9824331,1.97441182 C14.6839083,3.09463071 16.44415,5.73234882 16.441875,8.656875 C16.438773,12.644466 13.206966,15.876273 9.219375,15.879375 L9.219375,15.879375 Z" id="Shape"></path>
            </g>
        </g>
    </g>
</svg>