<svg width="18px" height="18px" viewBox="0 0 18 18" version="1.1" xmlns="http://www.w3.org/2000/svg" xmlns:xlink="http://www.w3.org/1999/xlink">
  <g id="Symbols" stroke="none" stroke-width="1" fill="none" fill-rule="evenodd">
    <g id="Icon-/-Menu-/-Help-Idle" transform="translate(-2.000000, -2.000000)" fill-rule="nonzero" fill="#FFFFFF">
      <g id="ui-48px-glyph-2_alert-circle-i" transform="translate(2.000000, 2.000000)">
        <path
          d="M9,0 C4.03708696,0 0,4.03747826 0,9 C0,13.9625217 4.03708696,18 9,18 C13.962913,18 18,13.9625217 18,9 C18,4.03747826 13.962913,0 9,0 Z M9.97826087,4.30434783 C10.5186522,4.30434783 10.9565217,4.74221739 10.9565217,5.2826087 C10.9565217,5.823 10.5186522,6.26086957 9.97826087,6.26086957 C9.43786957,6.26086957 9,5.823 9,5.2826087 C9,4.74221739 9.43786957,4.30434783 9.97826087,4.30434783 Z M10.9072174,13.212 C9.98530435,13.5751304 9.71608696,13.6956522 9.12404348,13.6956522 C8.6403913,13.6956522 8.26473913,13.5778696 7.99669565,13.341913 C7.72865217,13.1063478 7.59443478,12.807 7.59443478,12.4442609 C7.59443478,12.1241739 7.64608696,11.8287391 7.72121739,11.5133478 L8.22013043,9.74817391 C8.316,9.38504348 8.51126087,8.64313043 8.23852174,8.38213043 C7.96852174,8.12465217 7.33969565,8.28234783 6.95973913,8.4243913 L7.09278261,7.88047826 C7.62730435,7.66291304 8.30191304,7.39682609 8.87791304,7.39682609 C9.74465217,7.39682609 10.3785652,7.83 10.3785652,8.64821739 C10.3785652,8.86147826 10.3390435,9.29386957 10.2517826,9.585 L9.75482609,11.343913 C9.6926087,11.5603043 9.59713043,12.0146087 9.59713043,12.2384348 C9.59713043,12.4720435 9.64917391,12.6313043 9.75404348,12.7158261 C10.0377391,12.9455217 10.7096087,12.8230435 11.0398696,12.6673043 L10.9072174,13.212 Z"
          id="Shape"></path>
      </g>
    </g>
  </g>
</svg>
