
<svg width="19px" height="18px" viewBox="0 0 19 18" version="1.1" xmlns="http://www.w3.org/2000/svg" xmlns:xlink="http://www.w3.org/1999/xlink">
    <g id="Group" stroke="none" stroke-width="1" fill="none" fill-rule="evenodd">
        <path d="M2.34782609,16.0434783 L2.34782609,9.39130435 L0.391304348,9.39130435 C0.175304348,9.39130435 0,9.5666087 0,9.7826087 L0,16.0434783 C0,16.6918696 0.525521739,17.2173913 1.17391304,17.2173913 L1.17391304,17.2173913 C1.82230435,17.2173913 2.34782609,16.6918696 2.34782609,16.0434783 Z" id="Shape" fill="#404040" fill-rule="nonzero"></path>
        <path d="M17.6086957,0 L3.52173913,0 C3.30534783,0 3.13043478,0.175304348 3.13043478,0.391304348 L3.13043478,16.4347826 C3.13043478,17.2099565 2.56578261,17.8489565 1.82621739,17.9737826 C1.86730435,17.9882609 1.91034783,18 1.95652174,18 L16.0434783,18 C17.1223043,18 18,17.1223043 18,16.0434783 L18,0.391304348 C18,0.175304348 17.825087,0 17.6086957,0 Z M6.26086957,4.30434783 C6.26086957,4.08834783 6.43578261,3.91304348 6.65217391,3.91304348 L9.7826087,3.91304348 C9.999,3.91304348 10.173913,4.08834783 10.173913,4.30434783 L10.173913,7.43478261 C10.173913,7.65078261 9.999,7.82608696 9.7826087,7.82608696 L6.65217391,7.82608696 C6.43578261,7.82608696 6.26086957,7.65078261 6.26086957,7.43478261 L6.26086957,4.30434783 Z M14.4782609,14.0869565 L6.65217391,14.0869565 C6.43578261,14.0869565 6.26086957,13.9116522 6.26086957,13.6956522 C6.26086957,13.4796522 6.43578261,13.3043478 6.65217391,13.3043478 L14.4782609,13.3043478 C14.6946522,13.3043478 14.8695652,13.4796522 14.8695652,13.6956522 C14.8695652,13.9116522 14.6946522,14.0869565 14.4782609,14.0869565 Z M14.4782609,10.9565217 L6.65217391,10.9565217 C6.43578261,10.9565217 6.26086957,10.7812174 6.26086957,10.5652174 C6.26086957,10.3492174 6.43578261,10.173913 6.65217391,10.173913 L14.4782609,10.173913 C14.6946522,10.173913 14.8695652,10.3492174 14.8695652,10.5652174 C14.8695652,10.7812174 14.6946522,10.9565217 14.4782609,10.9565217 Z M14.4782609,7.82608696 L12.5217391,7.82608696 C12.3053478,7.82608696 12.1304348,7.65078261 12.1304348,7.43478261 C12.1304348,7.21878261 12.3053478,7.04347826 12.5217391,7.04347826 L14.4782609,7.04347826 C14.6946522,7.04347826 14.8695652,7.21878261 14.8695652,7.43478261 C14.8695652,7.65078261 14.6946522,7.82608696 14.4782609,7.82608696 Z M14.4782609,4.69565217 L12.5217391,4.69565217 C12.3053478,4.69565217 12.1304348,4.52034783 12.1304348,4.30434783 C12.1304348,4.08834783 12.3053478,3.91304348 12.5217391,3.91304348 L14.4782609,3.91304348 C14.6946522,3.91304348 14.8695652,4.08834783 14.8695652,4.30434783 C14.8695652,4.52034783 14.6946522,4.69565217 14.4782609,4.69565217 Z" id="Shape" fill="#404040" fill-rule="nonzero"></path>
    </g>
</svg>
