
<svg width="18px" height="18px" viewBox="0 0 18 18" version="1.1" xmlns="http://www.w3.org/2000/svg" xmlns:xlink="http://www.w3.org/1999/xlink">
    <g id="Group" stroke="none" stroke-width="1" fill="none" fill-rule="evenodd">
        <path d="M17.6086957,5.47826087 L14.7052174,5.47826087 L11.6874783,0.197217391 C11.5806522,0.0097826087 11.3411739,-0.0555652174 11.1537391,0.0516521739 C10.9663043,0.158869565 10.9009565,0.397956522 11.0081739,0.585391304 L13.8040435,5.47826087 L4.19595652,5.47826087 L6.99182609,0.585391304 C7.09904348,0.397956522 7.03369565,0.158869565 6.84626087,0.0516521739 C6.65882609,-0.0555652174 6.41973913,0.0097826087 6.31252174,0.197217391 L3.29478261,5.47826087 L0.391304348,5.47826087 C0.175304348,5.47826087 0,5.65317391 0,5.86956522 L0,7.82608696 C0,8.04247826 0.175304348,8.2173913 0.391304348,8.2173913 L17.6086957,8.2173913 C17.8246957,8.2173913 18,8.04247826 18,7.82608696 L18,5.86956522 C18,5.65317391 17.8246957,5.47826087 17.6086957,5.47826087 Z" id="Shape" fill="#404040" fill-rule="nonzero"></path>
        <path d="M16.4347826,9 L1.56521739,9 L1.56521739,17.2173913 C1.56521739,17.6497826 1.91543478,18 2.34782609,18 L15.6521739,18 C16.0845652,18 16.4347826,17.6497826 16.4347826,17.2173913 L16.4347826,9 Z M6.26086957,15.2608696 C6.26086957,15.4772609 6.08556522,15.6521739 5.86956522,15.6521739 C5.65356522,15.6521739 5.47826087,15.4772609 5.47826087,15.2608696 L5.47826087,11.7391304 C5.47826087,11.5227391 5.65356522,11.3478261 5.86956522,11.3478261 C6.08556522,11.3478261 6.26086957,11.5227391 6.26086957,11.7391304 L6.26086957,15.2608696 Z M9.39130435,15.2608696 C9.39130435,15.4772609 9.216,15.6521739 9,15.6521739 C8.784,15.6521739 8.60869565,15.4772609 8.60869565,15.2608696 L8.60869565,11.7391304 C8.60869565,11.5227391 8.784,11.3478261 9,11.3478261 C9.216,11.3478261 9.39130435,11.5227391 9.39130435,11.7391304 L9.39130435,15.2608696 Z M12.5217391,15.2608696 C12.5217391,15.4772609 12.3464348,15.6521739 12.1304348,15.6521739 C11.9144348,15.6521739 11.7391304,15.4772609 11.7391304,15.2608696 L11.7391304,11.7391304 C11.7391304,11.5227391 11.9144348,11.3478261 12.1304348,11.3478261 C12.3464348,11.3478261 12.5217391,11.5227391 12.5217391,11.7391304 L12.5217391,15.2608696 Z" id="Shape" fill="#404040" fill-rule="nonzero"></path>
    </g>
</svg>
