
<svg width="17px" height="19px" viewBox="3 2 17 19" version="1.1" xmlns="http://www.w3.org/2000/svg" xmlns:xlink="http://www.w3.org/1999/xlink">
    <path d="M18.4173913,12.9956522 C17.7521739,12.2913043 17.0869565,11.5478261 17.0869565,10.2173913 L17.0869565,7.86956522 C17.0869565,4.5826087 14.5043478,2 11.2173913,2 C7.93043478,2 5.34782609,4.5826087 5.34782609,7.86956522 L5.34782609,10.2173913 C5.34782609,11.5478261 4.6826087,12.2913043 4.0173913,12.9956522 C3.50869565,13.5826087 3,14.1304348 3,14.9130435 C3,16.5956522 6.20869565,17.6521739 11.2173913,17.6521739 C16.226087,17.6521739 19.4347826,16.5956522 19.4347826,14.9130435 C19.4347826,14.1304348 18.926087,13.5826087 18.4173913,12.9956522 Z" id="Shape" stroke="none" fill="#404040" fill-rule="nonzero"></path>
    <path d="M11.2173913,18.4347826 C10.3173913,18.4347826 9.49565217,18.3956522 8.71304348,18.3173913 C9.14347826,19.2956522 10.1217391,20 11.2173913,20 C12.3130435,20 13.3304348,19.2956522 13.7217391,18.3173913 C12.9391304,18.3956522 12.1173913,18.4347826 11.2173913,18.4347826 Z" id="Shape" stroke="none" fill="#404040" fill-rule="nonzero"></path>
</svg>
