<svg width="18px" height="19px" viewBox="0 -1 18 19" version="1.1" xmlns="http://www.w3.org/2000/svg" xmlns:xlink="http://www.w3.org/1999/xlink">
    <g id="Group" stroke="none" stroke-width="1" fill="none" fill-rule="evenodd">
        <path d="M6.09769565,3.99873913 L0.619434783,0.0735652174 C0.499695652,-0.0121304348 0.342782609,-0.0242608696 0.212478261,0.0430434783 C0.0817826087,0.110347826 0,0.244565217 0,0.391304348 L0,13.6956522 C0,13.8220435 0.0610434783,13.9406087 0.163956522,14.0137826 L5.64221739,17.9268261 C5.75804348,18.0101739 5.91417391,18.0250435 6.04878261,17.9565652 C6.17908696,17.8896522 6.26086957,17.7554348 6.26086957,17.6086957 L6.26086957,4.31647826 C6.26086957,4.19047826 6.20021739,4.07191304 6.09769565,3.99873913 Z" id="Shape" fill="#404040" fill-rule="nonzero"></path>
        <path d="M9.39130435,6.65217391 L11.7391304,6.65217391 L11.7391304,0.391304348 C11.7391304,0.174913043 11.5638261,0 11.3478261,0 L1.86026087,0 L6.55317391,3.36247826 C6.85995652,3.5816087 7.04347826,3.93847826 7.04347826,4.31647826 L7.04347826,14.0869565 L11.3478261,14.0869565 C11.5638261,14.0869565 11.7391304,13.9120435 11.7391304,13.6956522 L11.7391304,7.43478261 L9.39130435,7.43478261 L9.39130435,6.65217391 Z" id="Shape" fill="#404040" fill-rule="nonzero"></path>
        <path d="M17.8489565,6.73473913 L14.3272174,3.9956087 C14.0705217,3.79604348 13.6956522,3.97878261 13.6956522,4.30434783 L13.6956522,6.65217391 L11.7391304,6.65217391 L11.7391304,7.43478261 L13.6956522,7.43478261 L13.6956522,9.7826087 C13.6956522,10.1081739 14.0705217,10.290913 14.3272174,10.0913478 L17.8489565,7.35221739 C18.050087,7.19569565 18.050087,6.89126087 17.8489565,6.73473913 Z" id="Shape" fill="#404040" fill-rule="nonzero"></path>
    </g>
</svg>
