<svg width="18px" height="16px" viewBox="0 0 18 16" version="1.1" xmlns="http://www.w3.org/2000/svg" xmlns:xlink="http://www.w3.org/1999/xlink">
  <g id="Symbols" stroke="none" stroke-width="1" fill="none" fill-rule="evenodd">
    <g id="Icon-/-Menu-/-Insights-Idle" transform="translate(-2.000000, -3.000000)" fill-rule="nonzero" fill="#FFFFFF">
      <g id="ui-48px-glyph-3_chart-bars" transform="translate(2.000000, 3.550000)">
        <g id="Group">
          <path
            d="M17.6086957,14.8695652 L0.391304348,14.8695652 C0.174913043,14.8695652 0,14.6946522 0,14.4782609 C0,14.2618696 0.174913043,14.0869565 0.391304348,14.0869565 L17.6086957,14.0869565 C17.825087,14.0869565 18,14.2618696 18,14.4782609 C18,14.6946522 17.825087,14.8695652 17.6086957,14.8695652 Z"
            id="Shape"></path>
          <path
            d="M4.69565217,4.69565217 L1.56521739,4.69565217 C1.34882609,4.69565217 1.17391304,4.87056522 1.17391304,5.08695652 L1.17391304,12.1304348 C1.17391304,12.3468261 1.34882609,12.5217391 1.56521739,12.5217391 L4.69565217,12.5217391 C4.91204348,12.5217391 5.08695652,12.3468261 5.08695652,12.1304348 L5.08695652,5.08695652 C5.08695652,4.87056522 4.91204348,4.69565217 4.69565217,4.69565217 Z"
            id="Shape"></path>
          <path
            d="M10.5652174,0 L7.43478261,0 C7.2183913,0 7.04347826,0.174913043 7.04347826,0.391304348 L7.04347826,12.1304348 C7.04347826,12.3468261 7.2183913,12.5217391 7.43478261,12.5217391 L10.5652174,12.5217391 C10.7816087,12.5217391 10.9565217,12.3468261 10.9565217,12.1304348 L10.9565217,0.391304348 C10.9565217,0.174913043 10.7816087,0 10.5652174,0 Z"
            id="Shape"></path>
          <path
            d="M16.4347826,7.82608696 L13.3043478,7.82608696 C13.0879565,7.82608696 12.9130435,8.001 12.9130435,8.2173913 L12.9130435,12.1304348 C12.9130435,12.3468261 13.0879565,12.5217391 13.3043478,12.5217391 L16.4347826,12.5217391 C16.6511739,12.5217391 16.826087,12.3468261 16.826087,12.1304348 L16.826087,8.2173913 C16.826087,8.001 16.6511739,7.82608696 16.4347826,7.82608696 Z"
            id="Shape"></path>
        </g>
      </g>
    </g>
  </g>
</svg>
