<?xml version="1.0" encoding="UTF-8"?>
<svg width="18px" height="18px" viewBox="0 0 18 18" version="1.1" xmlns="http://www.w3.org/2000/svg" xmlns:xlink="http://www.w3.org/1999/xlink">
    <!-- Generator: Sketch 44.1 (41455) - http://www.bohemiancoding.com/sketch -->
    <title>icon_K-Insight</title>
    <desc>Created with Sketch.</desc>
    <defs></defs>
    <g id="Symbols" stroke="none" stroke-width="1" fill="none" fill-rule="evenodd">
        <g id="Icon-/-Menu-/-Insights-Idle" transform="translate(-2.000000, -2.000000)" fill-rule="nonzero" fill="#444444">
            <g id="icon_K-Insight" transform="translate(2.000000, 2.600000)">
                <path d="M15.4303448,15.1013793 L15.0703448,15.1013793 C14.8578104,15.1013793 14.6855172,14.9290861 14.6855172,14.7165517 L14.6855172,5.76 L13.382069,7.06344828 L12.6124138,7.83310345 L11.4082759,9.03724138 L11.4082759,14.7103448 C11.4082759,14.9228792 11.2359827,15.0951724 11.0234483,15.0951724 L10.0737931,15.0951724 C9.8612587,15.0951724 9.68896552,14.9228792 9.68896552,14.7103448 L9.68896552,10.7627586 L9.51517241,10.9365517 C9.45834359,10.9918443 9.39823467,11.0436623 9.33517241,11.0917241 C8.5826315,11.6629066 7.52468117,11.5941398 6.85241379,10.9303448 L6.42413793,10.502069 L6.42413793,14.7165517 C6.42413793,14.9290861 6.25184475,15.1013793 6.03931034,15.1013793 L5.07103448,15.1013793 C4.85850008,15.1013793 4.6862069,14.9290861 4.6862069,14.7165517 L4.6862069,9.09310345 L4.6862069,9.09310345 L4.5062069,9.27310345 L2.6937931,11.0544828 C2.35356322,11.3985687 1.89275005,11.5966961 1.40896552,11.6068966 L1.40896552,14.7103448 C1.40896552,14.9228792 1.23667234,15.0951724 1.02413793,15.0951724 L0.800689655,15.0951724 C0.52645171,15.0951724 0.304137931,15.3174862 0.304137931,15.5917241 L0.304137931,16.0572414 C0.304137931,16.3314793 0.52645171,16.5537931 0.800689655,16.5537931 L15.4303448,16.5537931 C15.5620385,16.5537931 15.6883384,16.501478 15.7814599,16.4083565 C15.8745814,16.315235 15.9268966,16.1889351 15.9268966,16.0572414 L15.9268966,15.5917241 C15.9234987,15.3199132 15.702177,15.1013581 15.4303448,15.1013793 Z" id="Shape"></path>
                <path d="M17.4227586,0.235862069 C17.2990318,0.119511851 17.1330319,0.0589443276 16.9634483,0.0682758621 L16.9075862,0.0682758621 L13.8910345,0.211034483 C13.7202431,0.198299216 13.5517796,0.256699872 13.4255172,0.372413793 C13.3187357,0.480554727 13.2631122,0.629084504 13.2725922,0.780764713 C13.2820722,0.932444921 13.3557569,1.07289294 13.4751724,1.16689655 L13.7296552,1.42137931 L14.2572414,1.94896552 L9.21724138,6.98896552 L9.21724138,6.98896552 L9.12413793,7.08206897 L8.55931034,7.64689655 L8.36689655,7.83931034 L8.17448276,8.03172414 L7.2,7.05103448 L7.15034483,7.00137931 L5.44344828,5.30068966 C5.28000546,5.13387653 5.05629699,5.03987332 4.82275862,5.03987332 C4.58922025,5.03987332 4.36551178,5.13387653 4.20206897,5.30068966 L1.63862069,7.87655172 L1.24137931,8.2862069 L0.577241379,8.93793103 C0.410428255,9.10137385 0.31642504,9.32508232 0.31642504,9.55862069 C0.31642504,9.79215906 0.410428255,10.0158675 0.577241379,10.1793103 L0.73862069,10.3406897 C0.879225212,10.4631524 1.05549202,10.5371409 1.24137931,10.5517241 L1.36551724,10.5517241 C1.4878576,10.5504037 1.60849548,10.5228898 1.71931034,10.4710345 L1.71931034,10.4710345 L1.83103448,10.4089655 L1.94896552,10.3096552 L1.94896552,10.3096552 L2.76206897,9.49655172 L3.5937931,8.68965517 L3.5937931,8.68965517 L4.34482759,7.95103448 L4.82896552,7.44827586 L5.28206897,7.90137931 L7.56,10.1793103 L7.56,10.1793103 C7.81816124,10.4419277 8.21455353,10.5117326 8.54689655,10.3531034 L8.54689655,10.3531034 C8.63398532,10.3102341 8.71362083,10.2536509 8.78275862,10.1855172 L9.32275862,9.64551724 L9.67655172,9.29172414 L9.67655172,9.29172414 L11.3958621,7.57241379 L11.3958621,7.57241379 L11.6875862,7.28068966 L11.9296552,7.03862069 L12.662069,6.33103448 L13.382069,5.5862069 L14.1703448,4.79793103 L14.1703448,4.79793103 L15.6289655,3.33931034 L15.6289655,3.33931034 L15.6289655,3.33931034 L16.38,4.08413793 C16.4453466,4.15720222 16.5230946,4.21813979 16.6096552,4.26413793 C16.6676567,4.29246838 16.7313119,4.30732127 16.7958621,4.30758621 C16.8830658,4.30621005 16.9684928,4.28271764 17.0441379,4.23931034 C17.0987489,4.20918045 17.1488877,4.17157637 17.1931034,4.12758621 C17.3160879,3.99178844 17.3826782,3.81421437 17.3793103,3.63103448 C17.3793103,2.97931034 17.4413793,2.32758621 17.4724138,1.66965517 L17.5158621,0.688965517 C17.5443685,0.531576592 17.5110155,0.369258548 17.4227586,0.235862069 L17.4227586,0.235862069 Z" id="Shape"></path>
            </g>
        </g>
    </g>
</svg>