<?xml version="1.0" encoding="UTF-8"?>
<svg width="191px" height="155px" viewBox="0 0 191 155" version="1.1" xmlns="http://www.w3.org/2000/svg" xmlns:xlink="http://www.w3.org/1999/xlink">
    <!-- Generator: Sketch 43.1 (39012) - http://www.bohemiancoding.com/sketch -->
    <title>icon</title>
    <desc>Created with Sketch.</desc>
    <defs></defs>
    <g id="Symbols" stroke="none" stroke-width="1" fill="none" fill-rule="evenodd">
        <g id="Brand/Icon" fill-rule="nonzero">
            <g id="icon">
                <polygon id="Shape" fill="#FFBD31" points="76 21.9998532 114.12851 0 152.279865 21.9998532 152.279865 66.0452498 114.12851 88.0679481 76 66.0452498"></polygon>
                <polygon id="Shape" fill="#00BB89" points="152.151355 66 190.279865 87.9998532 190.279865 132.04525 152.151355 154.067948 114 132.04525 114 87.9998532"></polygon>
                <polygon id="Shape" fill="#FF6C1E" points="38.1285098 0 76.2798647 21.9998532 76.2798647 66.0452498 38.1285098 88.0679481 0 66.0452498 0 21.9998532"></polygon>
                <path d="M38.633206,9.13496721 L69.725418,27.0912337 L69.725418,63.0037666 L38.633206,80.9371879 L7.54099402,62.9809214 L7.54099402,27.0912337 L38.633206,9.13496721 L38.633206,9.13496721 Z M38.633206,5.09138049 L36.8969767,6.09656589 L5.73622933,24.0528323 L4,25.0580177 L4,64.9912922 L5.73622933,65.9964776 L36.8284413,83.9527441 L38.5646707,84.9579295 L40.3009,83.9527441 L71.393112,65.9964776 L73.1293413,64.9912922 L73.1293413,25.0580177 L71.393112,24.0528323 L40.3237451,6.0051854 L38.5875158,5 L38.633206,5.09138049 Z" id="Shape" fill="#FFFFFF"></path>
                <path d="M114.541826,8.13496721 L145.702573,26.0912337 L145.702573,62.0037666 L114.610361,79.960033 L83.5181489,62.0037666 L83.5181489,26.0912337 L114.610361,8.13496721 L114.541826,8.13496721 Z M114.610361,4.09138049 L112.874132,5.09656589 L81.7362293,23.0528323 L80,24.0580177 L80,63.9912922 L81.7362293,64.9964776 L112.828441,82.9527441 L114.564671,83.9579295 L116.3009,82.9527441 L147.393112,64.9964776 L149.129341,63.9912922 L149.129341,24.0580177 L147.393112,23.0528323 L116.278055,5.0051854 L114.541826,4 L114.610361,4.09138049 Z" id="Shape" fill="#FFFFFF"></path>
                <path d="M151.564671,74.0435867 L182.656883,91.9998532 L182.656883,127.912386 L151.564671,145.868653 L120.472459,127.912386 L120.472459,91.9998532 L151.564671,74.0435867 L151.564671,74.0435867 Z M151.564671,70 L149.828441,71.0051854 L118.736229,88.9614519 L117,89.9666373 L117,129.899912 L118.736229,130.905097 L149.828441,148.792828 L151.564671,149.798014 L153.3009,148.792828 L184.393112,130.836562 L186.129341,129.831376 L186.129341,89.9894824 L184.393112,88.984297 L153.323745,71.119411 L151.587516,70.1142256 L151.564671,70 Z" id="Shape" fill="#FFFFFF"></path>
                <polygon id="Shape" fill="#219CD9" points="38 87.9998532 76.1513549 66 114.279865 87.9998532 114.279865 132.04525 76.1513549 154.067948 38 132.04525"></polygon>
                <path d="M76.5646707,74.0435867 L107.656883,91.9998532 L107.656883,127.912386 L76.5646707,145.868653 L45.4724587,127.912386 L45.4724587,91.9998532 L76.5646707,74.0435867 L76.5646707,74.0435867 Z M76.5646707,70 L74.8284413,71.0051854 L43.7362293,88.9614519 L42,89.9666373 L42,129.899912 L43.7362293,130.905097 L74.8284413,148.792828 L76.5646707,149.798014 L78.3009,148.792828 L109.324577,130.927942 L111.060806,129.922757 L111.060806,89.9894824 L109.324577,88.984297 L78.3237451,71.119411 L76.5875158,70.1142256 L76.5646707,70 Z" id="Shape" fill="#FFFFFF"></path>
            </g>
        </g>
    </g>
</svg>