<?xml version="1.0" encoding="UTF-8"?>
<svg width="107px" height="30px" viewBox="0 0 107 30" version="1.1" xmlns="http://www.w3.org/2000/svg" xmlns:xlink="http://www.w3.org/1999/xlink">
    <!-- Generator: Sketch 44.1 (41455) - http://www.bohemiancoding.com/sketch -->
    <title>kadena-nav_051517</title>
    <desc>Created with Sketch.</desc>
    <defs></defs>
    <g id="Symbols" stroke="none" stroke-width="1" fill="none" fill-rule="evenodd">
        <g id="Layout/Menu/Desktop" transform="translate(-58.000000, -1008.000000)">
            <g id="kadena-nav_051517" transform="translate(58.000000, 1008.000000)">
                <g id="kadena" transform="translate(22.000000, 0.000000)" fill-rule="nonzero">
                    <g id="Group" transform="translate(47.948718, 0.000000)">
                        <polygon id="Shape" fill="#FFCF30" points="14.965812 4.24390244 22.2307692 0 29.4957265 4.24390244 29.4957265 12.6585366 22.2307692 16.8292683 14.965812 12.6585366"></polygon>
                        <polygon id="Shape" fill="#53B46B" points="22.2307692 16.8292683 29.4957265 12.6585366 36.6880342 16.8292683 36.6880342 25.2439024 29.4957265 29.4878049 22.2307692 25.2439024"></polygon>
                        <polygon id="Shape" fill="#F36E23" points="0.508547009 4.24390244 7.77350427 0 14.965812 4.24390244 14.965812 12.6585366 7.77350427 16.8292683 0.508547009 12.6585366"></polygon>
                        <path d="M7.77350427,1.53658537 L13.6581197,4.97560976 L13.6581197,11.8536585 L7.77350427,15.2926829 L1.88888889,11.8536585 L1.88888889,4.97560976 L7.77350427,1.53658537 L7.77350427,1.53658537 Z M7.77350427,0.804878049 L7.41025641,1.02439024 L1.52564103,4.3902439 L1.16239316,4.6097561 L1.16239316,4.97560976 L1.16239316,11.8536585 L1.16239316,12.2195122 L1.52564103,12.4390244 L7.41025641,15.8780488 L7.77350427,16.097561 L8.13675214,15.8780488 L14.0213675,12.4390244 L14.3846154,12.2195122 L14.3846154,11.8536585 L14.3846154,4.97560976 L14.3846154,4.6097561 L14.0213675,4.3902439 L8.13675214,0.951219512 L7.77350427,0.804878049 L7.77350427,0.804878049 Z" id="Shape" fill="#FFFFFF"></path>
                        <path d="M22.2307692,1.53658537 L28.1153846,4.97560976 L28.1153846,11.8536585 L22.2307692,15.2926829 L16.3461538,11.8536585 L16.3461538,4.97560976 L22.2307692,1.53658537 L22.2307692,1.53658537 Z M22.2307692,0.804878049 L21.8675214,1.02439024 L15.982906,4.3902439 L15.6196581,4.6097561 L15.6196581,4.97560976 L15.6196581,11.8536585 L15.6196581,12.2195122 L15.982906,12.4390244 L21.8675214,15.8780488 L22.2307692,16.097561 L22.5940171,15.8780488 L28.4786325,12.4390244 L28.8418803,12.2195122 L28.8418803,11.8536585 L28.8418803,4.97560976 L28.8418803,4.6097561 L28.4786325,4.3902439 L22.5940171,0.951219512 L22.2307692,0.804878049 L22.2307692,0.804878049 Z" id="Shape" fill="#FFFFFF"></path>
                        <path d="M29.4957265,14.195122 L35.3803419,17.6341463 L35.3803419,24.5121951 L29.4957265,27.9512195 L23.6111111,24.5121951 L23.6111111,17.6341463 L29.4957265,14.195122 L29.4957265,14.195122 Z M29.4957265,13.3902439 L29.1324786,13.6097561 L23.2478632,17.0487805 L22.8846154,17.2682927 L22.8846154,17.6341463 L22.8846154,24.5121951 L22.8846154,24.8780488 L23.2478632,25.097561 L29.1324786,28.5365854 L29.4957265,28.7560976 L29.8589744,28.5365854 L35.7435897,25.097561 L36.1068376,24.8780488 L36.1068376,24.5121951 L36.1068376,17.6341463 L36.1068376,17.2682927 L35.7435897,17.0487805 L29.8589744,13.6097561 L29.4957265,13.3902439 L29.4957265,13.3902439 Z" id="Shape" fill="#FFFFFF"></path>
                        <polygon id="Shape" fill="#239CD7" points="7.77350427 16.8292683 14.965812 12.6585366 22.2307692 16.8292683 22.2307692 25.2439024 14.965812 29.4878049 7.77350427 25.2439024"></polygon>
                        <path d="M14.965812,14.195122 L20.8504274,17.6341463 L20.8504274,24.5121951 L14.965812,27.9512195 L9.08119658,24.5121951 L9.08119658,17.6341463 L14.965812,14.195122 L14.965812,14.195122 Z M14.965812,13.3902439 L14.6025641,13.6097561 L8.71794872,17.0487805 L8.35470085,17.2682927 L8.35470085,17.6341463 L8.35470085,24.5121951 L8.35470085,24.8780488 L8.71794872,25.097561 L14.6025641,28.5365854 L14.965812,28.7560976 L15.3290598,28.5365854 L21.2136752,25.097561 L21.5769231,24.8780488 L21.5769231,24.5121951 L21.5769231,17.6341463 L21.5769231,17.2682927 L21.2136752,17.0487805 L15.3290598,13.6097561 L14.965812,13.3902439 L14.965812,13.3902439 Z" id="Shape" fill="#FFFFFF"></path>
                    </g>
                    <path class="hide" d="M49.8376068,25.1707317 L49.8376068,25.4634146 L49.2564103,25.4634146 L49.2564103,26.9268293 L48.8931624,26.9268293 L48.8931624,25.4634146 L48.3119658,25.4634146 L48.3119658,25.1707317 L49.8376068,25.1707317 Z M51.0726496,26.195122 C51.0726496,26.195122 51.0726496,26.2682927 51.0726496,26.2682927 C51.0726496,26.2682927 51.0726496,26.3414634 51.0726496,26.3414634 C51.0726496,26.3414634 51.0726496,26.2682927 51.0726496,26.2682927 C51.0726496,26.2682927 51.0726496,26.195122 51.0726496,26.195122 L51.5811966,25.2439024 C51.5811966,25.2439024 51.5811966,25.1707317 51.6538462,25.1707317 C51.6538462,25.1707317 51.7264957,25.1707317 51.7264957,25.1707317 L52.017094,25.1707317 L52.017094,27 L51.6538462,27 L51.6538462,25.902439 L51.6538462,25.6829268 L51.0726496,26.7073171 C51.0726496,26.7804878 51,26.7804878 50.9273504,26.7804878 L50.8547009,26.7804878 C50.7820513,26.7804878 50.7820513,26.7804878 50.7094017,26.7073171 L50.1282051,25.6829268 L50.1282051,25.902439 L50.1282051,27 L50.1282051,27 L50.1282051,25.1707317 L50.4188034,25.1707317 C50.4188034,25.1707317 50.491453,25.1707317 50.491453,25.1707317 C50.491453,25.1707317 50.491453,25.1707317 50.5641026,25.2439024 L51.0726496,26.195122 Z" id="Shape" fill="#838386"></path>
                    <g id="Group" transform="translate(0.000000, 13.902439)" fill="#818387">
                        <g transform="translate(9.444444, 2.926829)" id="Shape">
                            <path d="M7.62820513,8.70731707 L6.75641026,8.70731707 C6.68376068,8.70731707 6.61111111,8.70731707 6.53846154,8.63414634 C6.46581197,8.56097561 6.46581197,8.48780488 6.39316239,8.41463415 L5.59401709,6.43902439 L1.88888889,6.43902439 L1.08974359,8.41463415 C1.08974359,8.48780488 1.01709402,8.56097561 0.944444444,8.63414634 C0.871794872,8.70731707 0.799145299,8.70731707 0.726495726,8.70731707 L0,8.70731707 L3.26923077,0.43902439 L4.35897436,0.43902439 L7.62820513,8.70731707 Z M2.25213675,5.63414634 L5.3034188,5.63414634 L3.9957265,2.26829268 C3.92307692,2.04878049 3.85042735,1.82926829 3.77777778,1.46341463 C3.70512821,1.6097561 3.70512821,1.75609756 3.63247863,1.90243902 C3.63247863,2.12195122 3.63247863,2.19512195 3.55982906,2.34146341 L2.25213675,5.63414634 Z"></path>
                            <path d="M15.5470085,4.6097561 C15.5470085,5.19512195 15.474359,5.7804878 15.2564103,6.29268293 C15.0384615,6.80487805 14.8205128,7.24390244 14.457265,7.6097561 C14.0940171,7.97560976 13.6581197,8.26829268 13.1495726,8.41463415 C12.6410256,8.63414634 12.1324786,8.70731707 11.4786325,8.70731707 L8.42735043,8.70731707 L8.42735043,0.43902439 L11.4786325,0.43902439 C12.0598291,0.43902439 12.6410256,0.512195122 13.1495726,0.731707317 C13.6581197,0.951219512 14.0940171,1.24390244 14.457265,1.6097561 C14.8205128,1.97560976 15.1111111,2.41463415 15.2564103,2.92682927 C15.474359,3.43902439 15.5470085,3.95121951 15.5470085,4.6097561 Z M14.457265,4.6097561 C14.457265,4.09756098 14.3846154,3.65853659 14.2393162,3.2195122 C14.0940171,2.85365854 13.8760684,2.48780488 13.6581197,2.19512195 C13.4401709,1.90243902 13.0769231,1.68292683 12.7136752,1.53658537 C12.3504274,1.3902439 11.9871795,1.31707317 11.5512821,1.31707317 L9.58974359,1.31707317 L9.58974359,7.75609756 L11.5512821,7.75609756 C11.9871795,7.75609756 12.4230769,7.68292683 12.7136752,7.53658537 C13.0769231,7.3902439 13.3675214,7.17073171 13.6581197,6.87804878 C13.8760684,6.58536585 14.0940171,6.29268293 14.2393162,5.85365854 C14.3846154,5.56097561 14.457265,5.12195122 14.457265,4.6097561 Z"></path>
                            <polygon points="21.7222222 0.43902439 21.7222222 1.31707317 17.7991453 1.31707317 17.7991453 4.09756098 20.9957265 4.09756098 20.9957265 4.97560976 17.7991453 4.97560976 17.7991453 7.82926829 21.7222222 7.82926829 21.7222222 8.70731707 16.6367521 8.70731707 16.6367521 0.43902439"></polygon>
                            <path d="M23.6111111,0.512195122 C23.6837607,0.512195122 23.6837607,0.585365854 23.7564103,0.658536585 L28.4786325,6.87804878 C28.4786325,6.80487805 28.4786325,6.65853659 28.4786325,6.58536585 C28.4786325,6.51219512 28.4786325,6.36585366 28.4786325,6.29268293 L28.4786325,0.43902439 L29.4230769,0.43902439 L29.4230769,8.70731707 L28.8418803,8.70731707 C28.7692308,8.70731707 28.6965812,8.70731707 28.6239316,8.63414634 C28.5512821,8.63414634 28.4786325,8.56097561 28.4786325,8.48780488 L23.7564103,2.26829268 C23.7564103,2.34146341 23.7564103,2.48780488 23.7564103,2.56097561 C23.7564103,2.63414634 23.7564103,2.70731707 23.7564103,2.7804878 L23.7564103,8.63414634 L22.8119658,8.63414634 L22.8119658,0.43902439 L23.3931624,0.43902439 C23.465812,0.43902439 23.5384615,0.512195122 23.6111111,0.512195122 Z"></path>
                            <path d="M37.9957265,8.70731707 L37.1239316,8.70731707 C37.0512821,8.70731707 36.9786325,8.70731707 36.9059829,8.63414634 C36.8333333,8.56097561 36.8333333,8.48780488 36.7606838,8.41463415 L35.9615385,6.43902439 L32.2564103,6.43902439 L31.457265,8.41463415 C31.457265,8.48780488 31.3846154,8.56097561 31.3119658,8.63414634 C31.2393162,8.70731707 31.1666667,8.70731707 31.0940171,8.70731707 L30.2222222,8.70731707 L33.491453,0.43902439 L34.6538462,0.43902439 L37.9957265,8.70731707 Z M32.6196581,5.63414634 L35.6709402,5.63414634 L34.3632479,2.26829268 C34.2905983,2.04878049 34.2179487,1.82926829 34.1452991,1.46341463 C34.0726496,1.6097561 34.0726496,1.75609756 34,1.90243902 C33.9273504,2.04878049 33.9273504,2.12195122 33.8547009,2.26829268 L32.6196581,5.63414634 Z"></path>
                        </g>
                        <path d="M7.84615385,11.6341463 C7.77350427,11.6341463 7.7008547,11.6341463 7.62820513,11.6341463 C7.55555556,11.6341463 7.55555556,11.6341463 7.48290598,11.5609756 L7.26495726,11.3414634 L3.1965812,6.65853659 C3.12393162,6.58536585 3.05128205,6.58536585 2.97863248,6.51219512 C2.90598291,6.43902439 2.83333333,6.43902439 2.76068376,6.36585366 C2.68803419,6.29268293 2.54273504,6.29268293 2.47008547,6.29268293 C2.3974359,6.29268293 2.25213675,6.29268293 2.10683761,6.29268293 L1.23504274,6.29268293 L1.23504274,11.7073171 L0,11.7073171 L0,0.219512195 L1.23504274,0.219512195 L1.23504274,5.41463415 L2.03418803,5.41463415 C2.25213675,5.41463415 2.47008547,5.41463415 2.61538462,5.34146341 C2.76068376,5.26829268 2.90598291,5.19512195 3.05128205,5.04878049 L6.97435897,0.585365854 C7.04700855,0.43902439 7.19230769,0.365853659 7.26495726,0.365853659 C7.33760684,0.292682927 7.48290598,0.292682927 7.62820513,0.292682927 L8.57264957,0.292682927 L4.35897436,5.12195122 C4.28632479,5.26829268 4.14102564,5.34146341 4.06837607,5.41463415 C3.9957265,5.48780488 3.85042735,5.56097561 3.77777778,5.63414634 L3.41452991,5.85365854 L3.85042735,6 C3.9957265,6.07317073 4.06837607,6.07317073 4.21367521,6.2195122 C4.35897436,6.29268293 4.43162393,6.43902439 4.57692308,6.58536585 L9.00854701,11.9268293 L7.84615385,11.9268293 L7.84615385,11.6341463 Z" id="Shape"></path>
                    </g>
                </g>
                <path id="hide" d="M1.12398914,6.38853568 C1.28377661,6.59057751 1.45823582,6.73292302 1.647372,6.8155765 C1.83650818,6.89822997 2.04846797,6.93955609 2.28325771,6.93955609 C2.74631527,6.93955609 3.10175552,6.7849658 3.34958914,6.47578058 C3.59742276,6.16659536 3.72133771,5.72578344 3.72133771,5.1533316 C3.72133771,4.85026886 3.69280467,4.59006738 3.63573771,4.37271935 C3.57867076,4.15537133 3.49633254,3.97705678 3.38872057,3.83777037 C3.2811086,3.69848396 3.14904135,3.59669927 2.99251486,3.53241323 C2.83598836,3.46812719 2.65826823,3.43598466 2.45934914,3.43598466 C2.17564487,3.43598466 1.92699973,3.49720854 1.71340629,3.61965813 C1.49981284,3.74210772 1.30334242,3.91506517 1.12398914,4.13853568 L1.12398914,6.38853568 Z M1.07996629,3.5783316 C1.28866828,3.33649365 1.52997634,3.14210784 1.80389771,2.99516833 C2.07781908,2.84822882 2.39086738,2.77476017 2.743052,2.77476017 C3.03001724,2.77476017 3.28926037,2.82603517 3.52078914,2.9285867 C3.75231792,3.03113823 3.94960357,3.18266733 4.112652,3.38317854 C4.27570043,3.58368974 4.40124585,3.83241175 4.489292,4.12935201 C4.57733815,4.42629227 4.62136057,4.76761538 4.62136057,5.1533316 C4.62136057,5.49619045 4.57244677,5.81531992 4.47461771,6.11072956 C4.37678865,6.4061392 4.23575387,6.66174889 4.05150914,6.87756629 C3.86726441,7.0933837 3.64226095,7.26327996 3.376492,7.38726017 C3.11072305,7.51124038 2.81153366,7.57322956 2.47891486,7.57322956 C2.17564477,7.57322956 1.91558642,7.52501575 1.698732,7.4285867 C1.48187758,7.33215765 1.29029855,7.19823041 1.12398914,7.02680099 L1.12398914,9.08394384 L0.248423429,9.08394384 L0.248423429,2.85741323 L0.771806286,2.85741323 C0.895723096,2.85741323 0.97235471,2.91404532 1.00170343,3.02731119 L1.07996629,3.5783316 Z M7.82035486,2.78394384 C8.18232238,2.78394384 8.50841436,2.84057593 8.79864057,2.9538418 C9.08886678,3.06710767 9.33669669,3.22782035 9.54213771,3.43598466 C9.74757874,3.64414897 9.90491812,3.89593216 10.0141606,4.1913418 C10.123403,4.48675144 10.1780234,4.81659508 10.1780234,5.18088262 C10.1780234,5.54823139 10.123403,5.87884033 10.0141606,6.17271935 C9.90491812,6.46659837 9.74757874,6.71761627 9.54213771,6.92578058 C9.33669669,7.13394488 9.08886678,7.29389226 8.79864057,7.40562752 C8.50841436,7.51736277 8.18232238,7.57322956 7.82035486,7.57322956 C7.45512636,7.57322956 7.1265887,7.51736277 6.834732,7.40562752 C6.5428753,7.29389226 6.29423017,7.13394488 6.08878914,6.92578058 C5.88334812,6.71761627 5.72600874,6.46659837 5.61676629,6.17271935 C5.50752383,5.87884033 5.45290343,5.54823139 5.45290343,5.18088262 C5.45290343,4.81659508 5.50752383,4.48675144 5.61676629,4.1913418 C5.72600874,3.89593216 5.88334812,3.64414897 6.08878914,3.43598466 C6.29423017,3.22782035 6.5428753,3.06710767 6.834732,2.9538418 C7.1265887,2.84057593 7.45512636,2.78394384 7.82035486,2.78394384 Z M7.82035486,6.93496425 C8.30950016,6.93496425 8.67472317,6.78113926 8.91603486,6.47348466 C9.15734654,6.16583006 9.27800057,5.73649762 9.27800057,5.18547445 C9.27800057,4.63139005 9.15734654,4.19976172 8.91603486,3.8905765 C8.67472317,3.58139128 8.30950016,3.42680099 7.82035486,3.42680099 C7.57252124,3.42680099 7.3564853,3.46659651 7.17224057,3.54618874 C6.98799584,3.62578098 6.83473261,3.74057575 6.71244629,3.8905765 C6.59015996,4.04057725 6.49885421,4.22501418 6.43852629,4.44389282 C6.37819837,4.66277147 6.34803486,4.90996287 6.34803486,5.18547445 C6.34803486,5.73649762 6.46950412,6.16583006 6.71244629,6.47348466 C6.95538845,6.78113926 7.32468762,6.93496425 7.82035486,6.93496425 Z M18.0385491,2.85741323 L16.4341606,7.50894384 L15.7444691,7.50894384 C15.659684,7.50894384 15.6009874,7.45690355 15.5683777,7.35282139 L14.4726977,4.19822956 C14.44661,4.12782104 14.425414,4.05664828 14.4091091,3.98470915 C14.3928043,3.91277001 14.3764997,3.84159726 14.3601949,3.77118874 C14.34389,3.84159726 14.3275854,3.91277001 14.3112806,3.98470915 C14.2949757,4.05664828 14.2737797,4.12935164 14.247692,4.20282139 L13.1324463,7.35282139 C13.1030976,7.45690355 13.0378792,7.50894384 12.9367891,7.50894384 L12.2813377,7.50894384 L10.6769491,2.85741323 L11.3617491,2.85741323 C11.4302295,2.85741323 11.4881108,2.8742498 11.5353949,2.90792343 C11.5826789,2.94159707 11.6144729,2.98139259 11.6307777,3.02731119 L12.5797149,6.02118874 C12.6351513,6.24159801 12.6791737,6.44975919 12.7117834,6.64567854 C12.7411321,6.54465762 12.7712957,6.44210763 12.8022749,6.33802548 C12.8332541,6.23394332 12.8666785,6.12833213 12.9025491,6.02118874 L13.9493149,3.00894384 C13.9656197,2.96302525 13.9941527,2.92476032 14.0349149,2.89414792 C14.075677,2.86353553 14.125406,2.84822956 14.1841034,2.84822956 L14.5656349,2.84822956 C14.6308542,2.84822956 14.6846594,2.86353553 14.727052,2.89414792 C14.7694446,2.92476032 14.7987929,2.96302525 14.8150977,3.00894384 L15.8374063,6.02118874 C15.8732769,6.12833213 15.9058861,6.23394332 15.9352349,6.33802548 C15.9645836,6.44210763 15.9923014,6.54465762 16.0183891,6.64567854 C16.034694,6.54465762 16.0550747,6.44287293 16.079532,6.34032139 C16.1039893,6.23776986 16.1308919,6.13139337 16.1602406,6.02118874 L17.1287434,3.02731119 C17.1450483,2.97833135 17.176027,2.93777053 17.2216806,2.90562752 C17.2673341,2.8734845 17.3211393,2.85741323 17.3830977,2.85741323 L18.0385491,2.85741323 Z M22.1375663,4.67578058 C22.1375663,4.48598371 22.1090332,4.31226096 22.0519663,4.15460711 C21.9948993,3.99695326 21.9117459,3.86073013 21.8025034,3.74593364 C21.693261,3.63113715 21.5603785,3.54236252 21.403852,3.47960711 C21.2473255,3.41685169 21.0696054,3.38547445 20.8706863,3.38547445 C20.4532823,3.38547445 20.1231142,3.49950393 19.880172,3.72756629 C19.6372298,3.95562866 19.4864123,4.27169692 19.4277149,4.67578058 L22.1375663,4.67578058 Z M22.841932,6.85690303 C22.73432,6.97935262 22.6055137,7.08572911 22.4555091,7.17603568 C22.3055046,7.26634225 22.1449043,7.3405762 21.9737034,7.39873976 C21.8025026,7.45690332 21.6255977,7.50052533 21.4429834,7.52960711 C21.2603692,7.55868889 21.0793881,7.57322956 20.9000349,7.57322956 C20.5576331,7.57322956 20.2421392,7.51889337 19.9535434,7.41021935 C19.6649477,7.30154534 19.4154873,7.14236326 19.2051549,6.93266833 C18.9948224,6.72297341 18.8309612,6.46353723 18.7135663,6.15435201 C18.5961714,5.84516679 18.5374749,5.4900683 18.5374749,5.08904588 C18.5374749,4.76455447 18.5904648,4.46149627 18.6964463,4.17986221 C18.8024278,3.89822815 18.9548758,3.65409794 19.1537949,3.44746425 C19.3527139,3.24083056 19.5956525,3.07858729 19.8826177,2.96072956 C20.169583,2.84287182 20.492414,2.78394384 20.8511206,2.78394384 C21.1478687,2.78394384 21.4226012,2.83062705 21.6753263,2.92399486 C21.9280514,3.01736268 22.146533,3.15205521 22.3307777,3.3280765 C22.5150224,3.50409778 22.6593181,3.72144255 22.7636691,3.98011731 C22.8680201,4.23879207 22.9201949,4.53343199 22.9201949,4.86404588 C22.9201949,4.99261795 22.9055207,5.07833138 22.876172,5.12118874 C22.8468233,5.1640461 22.7913876,5.18547445 22.7098634,5.18547445 L19.3983663,5.18547445 C19.4081492,5.47935348 19.4513564,5.73496316 19.5279891,5.95231119 C19.6046219,6.16965922 19.711417,6.35103495 19.8483777,6.49644384 C19.9853384,6.64185273 20.1483844,6.75052512 20.3375206,6.82246425 C20.5266568,6.89440339 20.7386165,6.93037241 20.9734063,6.93037241 C21.1918912,6.93037241 21.3802093,6.90664816 21.5383663,6.85919894 C21.6965233,6.81174973 21.8326667,6.76047473 21.9468006,6.70537241 C22.0609345,6.6502701 22.1563164,6.5989951 22.2329491,6.55154588 C22.3095819,6.50409667 22.3756155,6.48037241 22.431052,6.48037241 C22.5027933,6.48037241 22.5582289,6.50639256 22.5973606,6.55843364 L22.841932,6.85690303 Z M24.8131777,3.78955609 C24.9697042,3.47118715 25.1620985,3.22246515 25.3903663,3.04338262 C25.6186341,2.86430009 25.8974427,2.77476017 26.2268006,2.77476017 C26.3311516,2.77476017 26.4314249,2.78547435 26.5276234,2.80690303 C26.623822,2.8283317 26.7094211,2.86200484 26.7844234,2.90792343 L26.7208349,3.51863772 C26.701269,3.59516872 26.6523552,3.63343364 26.574092,3.63343364 C26.5284384,3.63343364 26.4615896,3.62425006 26.3735434,3.60588262 C26.2854973,3.58751518 26.1860392,3.5783316 26.0751663,3.5783316 C25.9186398,3.5783316 25.7792355,3.59975995 25.6569491,3.64261731 C25.5346628,3.68547467 25.425422,3.74899444 25.3292234,3.83317854 C25.2330249,3.91736263 25.1466105,4.02144322 25.0699777,4.14542343 C24.993345,4.26940365 24.9240504,4.41098386 24.862092,4.57016833 L24.862092,7.50894384 L23.9865263,7.50894384 L23.9865263,2.85741323 L24.485452,2.85741323 C24.5800201,2.85741323 24.6452385,2.8742498 24.6811091,2.90792343 C24.7169798,2.94159707 24.7414367,2.99975976 24.7544806,3.08241323 L24.8131777,3.78955609 Z M30.6633263,4.67578058 C30.6633263,4.48598371 30.6347932,4.31226096 30.5777263,4.15460711 C30.5206593,3.99695326 30.4375059,3.86073013 30.3282634,3.74593364 C30.219021,3.63113715 30.0861385,3.54236252 29.929612,3.47960711 C29.7730855,3.41685169 29.5953654,3.38547445 29.3964463,3.38547445 C28.9790423,3.38547445 28.6488742,3.49950393 28.405932,3.72756629 C28.1629898,3.95562866 28.0121723,4.27169692 27.9534749,4.67578058 L30.6633263,4.67578058 Z M31.367692,6.85690303 C31.26008,6.97935262 31.1312737,7.08572911 30.9812691,7.17603568 C30.8312646,7.26634225 30.6706643,7.3405762 30.4994634,7.39873976 C30.3282626,7.45690332 30.1513577,7.50052533 29.9687434,7.52960711 C29.7861292,7.55868889 29.6051481,7.57322956 29.4257949,7.57322956 C29.0833931,7.57322956 28.7678992,7.51889337 28.4793034,7.41021935 C28.1907077,7.30154534 27.9412473,7.14236326 27.7309149,6.93266833 C27.5205824,6.72297341 27.3567212,6.46353723 27.2393263,6.15435201 C27.1219314,5.84516679 27.0632349,5.4900683 27.0632349,5.08904588 C27.0632349,4.76455447 27.1162248,4.46149627 27.2222063,4.17986221 C27.3281878,3.89822815 27.4806358,3.65409794 27.6795549,3.44746425 C27.8784739,3.24083056 28.1214125,3.07858729 28.4083777,2.96072956 C28.695343,2.84287182 29.018174,2.78394384 29.3768806,2.78394384 C29.6736287,2.78394384 29.9483612,2.83062705 30.2010863,2.92399486 C30.4538114,3.01736268 30.672293,3.15205521 30.8565377,3.3280765 C31.0407824,3.50409778 31.1850781,3.72144255 31.2894291,3.98011731 C31.3937801,4.23879207 31.4459549,4.53343199 31.4459549,4.86404588 C31.4459549,4.99261795 31.4312807,5.07833138 31.401932,5.12118874 C31.3725833,5.1640461 31.3171476,5.18547445 31.2356234,5.18547445 L27.9241263,5.18547445 C27.9339092,5.47935348 27.9771164,5.73496316 28.0537491,5.95231119 C28.1303819,6.16965922 28.237177,6.35103495 28.3741377,6.49644384 C28.5110984,6.64185273 28.6741444,6.75052512 28.8632806,6.82246425 C29.0524168,6.89440339 29.2643765,6.93037241 29.4991663,6.93037241 C29.7176512,6.93037241 29.9059693,6.90664816 30.0641263,6.85919894 C30.2222833,6.81174973 30.3584267,6.76047473 30.4725606,6.70537241 C30.5866945,6.6502701 30.6820764,6.5989951 30.7587091,6.55154588 C30.8353419,6.50409667 30.9013755,6.48037241 30.956812,6.48037241 C31.0285533,6.48037241 31.0839889,6.50639256 31.1231206,6.55843364 L31.367692,6.85690303 Z M35.7406291,3.96404588 C35.5775807,3.75894282 35.401491,3.615832 35.2123549,3.53470915 C35.0232187,3.45358629 34.8112589,3.41302548 34.5764691,3.41302548 C34.1166726,3.41302548 33.7628628,3.56761577 33.5150291,3.87680099 C33.2671955,4.1859862 33.1432806,4.62679812 33.1432806,5.19924997 C33.1432806,5.5023127 33.1709984,5.76174889 33.2264349,5.97756629 C33.2818713,6.1933837 33.3633943,6.37093294 33.4710063,6.51021935 C33.5786183,6.64950576 33.7106855,6.75129046 33.867212,6.8155765 C34.0237385,6.87986253 34.2014586,6.91200507 34.4003777,6.91200507 C34.687343,6.91200507 34.9376186,6.85078119 35.151212,6.7283316 C35.3648054,6.60588201 35.5612759,6.43292455 35.7406291,6.20945405 L35.7406291,3.96404588 Z M36.6113034,0.745168332 L36.6113034,7.50894384 L36.092812,7.50894384 C35.9688952,7.50894384 35.8906331,7.45231176 35.8580234,7.33904588 L35.7797606,6.77424997 C35.5677976,7.01302667 35.3264895,7.20588188 35.0558291,7.35282139 C34.7851687,7.4997609 34.4721204,7.57322956 34.1166749,7.57322956 C33.8329706,7.57322956 33.5753579,7.52195456 33.3438291,7.41940303 C33.1123004,7.31685149 32.9150147,7.16608769 32.7519663,6.96710711 C32.5889179,6.76812652 32.4633724,6.52016982 32.3753263,6.22322956 C32.2872801,5.9262893 32.2432577,5.58496618 32.2432577,5.19924997 C32.2432577,4.85639111 32.2921715,4.53726165 32.3900006,4.24185201 C32.4878296,3.94644237 32.6280492,3.69006738 32.8106634,3.47271935 C32.9932777,3.25537133 33.2174659,3.08470977 33.4832349,2.96072956 C33.7490038,2.83674935 34.0481932,2.77476017 34.380812,2.77476017 C34.6840821,2.77476017 34.9441404,2.82297397 35.1609949,2.91940303 C35.3778493,3.01583208 35.5710588,3.14975931 35.7406291,3.32118874 L35.7406291,0.745168332 L36.6113034,0.745168332 Z" id="powered" fill="#7A7C7C"></path>
                <path class="hide" d="M41.0300977,6.38853568 C41.1898852,6.59057751 41.3651596,6.73292302 41.5559263,6.8155765 C41.746693,6.89822997 41.956207,6.93955609 42.1844749,6.93955609 C42.6507934,6.93955609 43.0078641,6.7849658 43.2556977,6.47578058 C43.5035313,6.16659536 43.6274463,5.70588568 43.6274463,5.09363772 C43.6274463,4.52424712 43.5173902,4.10562886 43.2972749,3.83777037 C43.0771595,3.56991189 42.7632959,3.43598466 42.3556749,3.43598466 C42.0719706,3.43598466 41.8249559,3.49720854 41.6146234,3.61965813 C41.4042909,3.74210772 41.209451,3.91506517 41.0300977,4.13853568 L41.0300977,6.38853568 Z M41.0300977,3.52782139 C41.2387997,3.30128965 41.4744012,3.12067921 41.7369091,2.98598466 C41.9994171,2.85129011 42.3018674,2.78394384 42.6442691,2.78394384 C42.9344954,2.78394384 43.1961842,2.83598414 43.4293434,2.94006629 C43.6625027,3.04414844 43.8606036,3.19491224 44.023652,3.39236221 C44.1867004,3.58981218 44.3114306,3.8293506 44.3978463,4.11098466 C44.484262,4.39261872 44.5274691,4.70945229 44.5274691,5.06149486 C44.5274691,5.43802736 44.4785553,5.78088107 44.3807263,6.09006629 C44.2828972,6.39925151 44.1418624,6.66327948 43.9576177,6.88215813 C43.773373,7.10103677 43.5491847,7.27093303 43.2850463,7.39185201 C43.0209078,7.51277098 42.7241641,7.57322956 42.3948063,7.57322956 C42.0687094,7.57322956 41.7939769,7.51583217 41.5706006,7.40103568 C41.3472242,7.28623919 41.1523843,7.12323061 40.9860749,6.91200507 L40.942052,7.33445405 C40.9159643,7.45078116 40.8409631,7.50894384 40.7170463,7.50894384 L40.154532,7.50894384 L40.154532,0.745168332 L41.0300977,0.745168332 L41.0300977,3.52782139 Z M49.7729149,2.85741323 L47.0092577,8.88190303 C46.979909,8.94312782 46.9432236,8.99210692 46.8992006,9.0288418 C46.8551775,9.06557668 46.7875134,9.08394384 46.6962063,9.08394384 L46.0505377,9.08394384 L46.955452,7.23802548 L44.9108349,2.85741323 L45.6641149,2.85741323 C45.7391171,2.85741323 45.7986289,2.8750151 45.842652,2.91021935 C45.8866751,2.94542361 45.9168386,2.98445383 45.9331434,3.02731119 L47.2587206,5.95690303 C47.3108961,6.0854751 47.3549185,6.22016763 47.3907891,6.36098466 C47.4364427,6.21710639 47.4853565,6.08088326 47.537532,5.95231119 L48.8239777,3.02731119 C48.8435435,2.97833135 48.876968,2.93777053 48.924252,2.90562752 C48.971536,2.8734845 49.024526,2.85741323 49.0832234,2.85741323 L49.7729149,2.85741323 Z" id="-by" fill="#7A7C7C"></path>
            </g>
        </g>
    </g>
</svg>