<?xml version="1.0" encoding="UTF-8"?>
<svg width="16px" height="16px" viewBox="0 0 16 16" version="1.1" xmlns="http://www.w3.org/2000/svg" xmlns:xlink="http://www.w3.org/1999/xlink">
    <!-- Generator: Sketch 44.1 (41455) - http://www.bohemiancoding.com/sketch -->
    <title>location-24px-outline_square-pin</title>
    <desc>Created with Sketch.</desc>
    <defs></defs>
    <g id="Ready" stroke="none" stroke-width="1" fill="none" fill-rule="evenodd">
        <g id="Order-detail" transform="translate(-384.000000, -1124.000000)" fill-rule="nonzero" fill="#444444">
            <g id="Page" transform="translate(20.000000, 20.000000)">
                <g id="Container" transform="translate(233.166667, 70.000000)">
                    <g id="Products" transform="translate(20.000000, 688.000000)">
                        <g transform="translate(1.000000, 47.000000)" id="cart-item-/-common-copy-5">
                            <g transform="translate(0.000000, 230.000000)">
                                <g id="cart-item-/-static-inventory" transform="translate(108.000000, 10.000000)">
                                    <g id="content">
                                        <g id="Tracking-ID" transform="translate(0.000000, 58.000000)">
                                            <g id="location-24px-outline_square-pin" transform="translate(1.603322, 1.000000)">
                                                <polygon id="Shape" points="12.254644 12 13.5879773 14.6666667 2.41202266 14.6666667 3.74535599 12 6.6 12 6.6 10.6666667 2.92131067 10.6666667 0.254644007 16 15.745356 16 13.0786893 10.6666667 9.4 10.6666667 9.4 12"></polygon>
                                                <path d="M8.23253304,11.7042118 C8.76793414,11.1063472 9.30332958,10.4646375 9.80172908,9.80603822 C10.3461243,9.08665879 10.8122712,8.39124067 11.1756946,7.73958176 C11.7135307,6.77518124 12,5.95041274 12,5.33333333 C12,3.00386154 10.1554584,1.33333333 8,1.33333333 C5.84454157,1.33333333 4,3.00386154 4,5.33333333 C4,5.95041274 4.2864693,6.77518124 4.82430542,7.73958176 C5.18772879,8.39124067 5.65387568,9.08665879 6.19827092,9.80603822 C6.69667042,10.4646375 7.23206586,11.1063472 7.76746696,11.7042118 C7.84758388,11.7936757 7.9252147,11.8793622 8,11.9610144 C8.0747853,11.8793622 8.15241612,11.7936757 8.23253304,11.7042118 Z M13.3333333,5.33333333 C13.3333333,6.22314778 12.9787906,7.24390525 12.3401811,8.38900375 C11.943581,9.10015222 11.4440587,9.84536133 10.8649376,10.6106284 C10.3425037,11.3009875 9.78414919,11.9702153 9.2258003,12.5937049 C9.03028806,12.8120269 8.84853186,13.0092623 8.68505371,13.1822489 C8.58602602,13.2870363 8.51440898,13.3611429 8.47473588,13.4013828 L8,13.8829006 L7.52526412,13.4013828 C7.48559102,13.3611429 7.41397398,13.2870363 7.31494629,13.1822489 C7.15146814,13.0092623 6.96971194,12.8120269 6.7741997,12.5937049 C6.21585081,11.9702153 5.65749625,11.3009875 5.13506241,10.6106284 C4.55594135,9.84536133 4.05641898,9.10015222 3.65981889,8.38900375 C3.0212094,7.24390525 2.66666667,6.22314778 2.66666667,5.33333333 C2.66666667,2.23639003 5.13601399,0 8,0 C10.863986,0 13.3333333,2.23639003 13.3333333,5.33333333 Z" id="Shape"></path>
                                                <path d="M8,7.33333333 C6.8954305,7.33333333 6,6.43790283 6,5.33333333 C6,4.22876383 6.8954305,3.33333333 8,3.33333333 C9.1045695,3.33333333 10,4.22876383 10,5.33333333 C10,6.43790283 9.1045695,7.33333333 8,7.33333333 Z M8,6 C8.36818983,6 8.66666667,5.70152317 8.66666667,5.33333333 C8.66666667,4.9651435 8.36818983,4.66666667 8,4.66666667 C7.63181017,4.66666667 7.33333333,4.9651435 7.33333333,5.33333333 C7.33333333,5.70152317 7.63181017,6 8,6 Z" id="Oval"></path>
                                            </g>
                                        </g>
                                    </g>
                                </g>
                            </g>
                        </g>
                    </g>
                </g>
            </g>
        </g>
    </g>
</svg>