<?xml version="1.0" encoding="UTF-8"?>
<svg width="37px" height="30px" viewBox="0 0 37 30" version="1.1" xmlns="http://www.w3.org/2000/svg" xmlns:xlink="http://www.w3.org/1999/xlink">
    <!-- Generator: Sketch 44.1 (41455) - http://www.bohemiancoding.com/sketch -->
    <title>Group</title>
    <desc>Created with Sketch.</desc>
    <defs></defs>
    <g id="Symbols" stroke="none" stroke-width="1" fill="none" fill-rule="evenodd">
        <g id="Layout/Menu/Desktop" transform="translate(-128.000000, -1008.000000)" fill-rule="nonzero">
            <g id="kadena-nav_051517" transform="translate(58.000000, 1008.000000)">
                <g id="kadena" transform="translate(22.000000, 0.000000)">
                    <g id="Group" transform="translate(47.948718, 0.000000)">
                        <polygon id="Shape" fill="#FFCF30" points="14.965812 4.24390244 22.2307692 0 29.4957265 4.24390244 29.4957265 12.6585366 22.2307692 16.8292683 14.965812 12.6585366"></polygon>
                        <polygon id="Shape" fill="#53B46B" points="22.2307692 16.8292683 29.4957265 12.6585366 36.6880342 16.8292683 36.6880342 25.2439024 29.4957265 29.4878049 22.2307692 25.2439024"></polygon>
                        <polygon id="Shape" fill="#F36E23" points="0.508547009 4.24390244 7.77350427 0 14.965812 4.24390244 14.965812 12.6585366 7.77350427 16.8292683 0.508547009 12.6585366"></polygon>
                        <path d="M7.77350427,1.53658537 L13.6581197,4.97560976 L13.6581197,11.8536585 L7.77350427,15.2926829 L1.88888889,11.8536585 L1.88888889,4.97560976 L7.77350427,1.53658537 L7.77350427,1.53658537 Z M7.77350427,0.804878049 L7.41025641,1.02439024 L1.52564103,4.3902439 L1.16239316,4.6097561 L1.16239316,4.97560976 L1.16239316,11.8536585 L1.16239316,12.2195122 L1.52564103,12.4390244 L7.41025641,15.8780488 L7.77350427,16.097561 L8.13675214,15.8780488 L14.0213675,12.4390244 L14.3846154,12.2195122 L14.3846154,11.8536585 L14.3846154,4.97560976 L14.3846154,4.6097561 L14.0213675,4.3902439 L8.13675214,0.951219512 L7.77350427,0.804878049 L7.77350427,0.804878049 Z" id="Shape" fill="#FFFFFF"></path>
                        <path d="M22.2307692,1.53658537 L28.1153846,4.97560976 L28.1153846,11.8536585 L22.2307692,15.2926829 L16.3461538,11.8536585 L16.3461538,4.97560976 L22.2307692,1.53658537 L22.2307692,1.53658537 Z M22.2307692,0.804878049 L21.8675214,1.02439024 L15.982906,4.3902439 L15.6196581,4.6097561 L15.6196581,4.97560976 L15.6196581,11.8536585 L15.6196581,12.2195122 L15.982906,12.4390244 L21.8675214,15.8780488 L22.2307692,16.097561 L22.5940171,15.8780488 L28.4786325,12.4390244 L28.8418803,12.2195122 L28.8418803,11.8536585 L28.8418803,4.97560976 L28.8418803,4.6097561 L28.4786325,4.3902439 L22.5940171,0.951219512 L22.2307692,0.804878049 L22.2307692,0.804878049 Z" id="Shape" fill="#FFFFFF"></path>
                        <path d="M29.4957265,14.195122 L35.3803419,17.6341463 L35.3803419,24.5121951 L29.4957265,27.9512195 L23.6111111,24.5121951 L23.6111111,17.6341463 L29.4957265,14.195122 L29.4957265,14.195122 Z M29.4957265,13.3902439 L29.1324786,13.6097561 L23.2478632,17.0487805 L22.8846154,17.2682927 L22.8846154,17.6341463 L22.8846154,24.5121951 L22.8846154,24.8780488 L23.2478632,25.097561 L29.1324786,28.5365854 L29.4957265,28.7560976 L29.8589744,28.5365854 L35.7435897,25.097561 L36.1068376,24.8780488 L36.1068376,24.5121951 L36.1068376,17.6341463 L36.1068376,17.2682927 L35.7435897,17.0487805 L29.8589744,13.6097561 L29.4957265,13.3902439 L29.4957265,13.3902439 Z" id="Shape" fill="#FFFFFF"></path>
                        <polygon id="Shape" fill="#239CD7" points="7.77350427 16.8292683 14.965812 12.6585366 22.2307692 16.8292683 22.2307692 25.2439024 14.965812 29.4878049 7.77350427 25.2439024"></polygon>
                        <path d="M14.965812,14.195122 L20.8504274,17.6341463 L20.8504274,24.5121951 L14.965812,27.9512195 L9.08119658,24.5121951 L9.08119658,17.6341463 L14.965812,14.195122 L14.965812,14.195122 Z M14.965812,13.3902439 L14.6025641,13.6097561 L8.71794872,17.0487805 L8.35470085,17.2682927 L8.35470085,17.6341463 L8.35470085,24.5121951 L8.35470085,24.8780488 L8.71794872,25.097561 L14.6025641,28.5365854 L14.965812,28.7560976 L15.3290598,28.5365854 L21.2136752,25.097561 L21.5769231,24.8780488 L21.5769231,24.5121951 L21.5769231,17.6341463 L21.5769231,17.2682927 L21.2136752,17.0487805 L15.3290598,13.6097561 L14.965812,13.3902439 L14.965812,13.3902439 Z" id="Shape" fill="#FFFFFF"></path>
                    </g>
                </g>
            </g>
        </g>
    </g>
</svg>