<?xml version="1.0" encoding="utf-8"?>
<!-- Generator: Adobe Illustrator 21.0.0, SVG Export Plug-In . SVG Version: 6.00 Build 0)  -->
<svg version="1.1" id="Layer_1" xmlns="http://www.w3.org/2000/svg" xmlns:xlink="http://www.w3.org/1999/xlink" x="0px" y="0px"
	 viewBox="0 0 116.5 42.8" style="enable-background:new 0 0 116.5 42.8;" xml:space="preserve">
<style type="text/css">
	.st0{fill:#FFCF30;}
	.st1{fill:#53B46B;}
	.st2{fill:#F36E23;}
	.st3{fill:#FFFFFF;}
	.st4{fill:#239CD7;}
	.st5{fill:#838386;}
	.st6{fill:#818387;}
</style>
<g>
	<polygon class="st0" points="86.6,5.8 96.6,0 106.6,5.8 106.6,17.3 96.6,23 86.6,17.3 	"/>
	<polygon class="st1" points="96.6,23 106.6,17.3 116.5,23 116.5,34.5 106.6,40.3 96.6,34.5 	"/>
	<polygon class="st2" points="66.7,5.8 76.7,0 86.6,5.8 86.6,17.3 76.7,23 66.7,17.3 	"/>
	<path class="st3" d="M76.7,2.1l8.1,4.7v9.4l-8.1,4.7l-8.1-4.7V6.8L76.7,2.1 M76.7,1.1l-0.5,0.3L68.1,6l-0.5,0.3v0.5v9.4v0.5
		l0.5,0.3l8.1,4.7l0.5,0.3l0.5-0.3l8.1-4.7l0.5-0.3v-0.5V6.8V6.3L85.3,6l-8.1-4.7L76.7,1.1L76.7,1.1z"/>
	<path class="st3" d="M96.6,2.1l8.1,4.7v9.4l-8.1,4.7l-8.1-4.7V6.8L96.6,2.1 M96.6,1.1l-0.5,0.3L88,6l-0.5,0.3v0.5v9.4v0.5L88,17
		l8.1,4.7l0.5,0.3l0.5-0.3l8.1-4.7l0.5-0.3v-0.5V6.8V6.3L105.2,6l-8.1-4.7L96.6,1.1L96.6,1.1z"/>
	<path class="st3" d="M106.6,19.4l8.1,4.7v9.4l-8.1,4.7l-8.1-4.7v-9.4L106.6,19.4 M106.6,18.3l-0.5,0.3L98,23.3l-0.5,0.3v0.5v9.4V34
		l0.5,0.3l8.1,4.7l0.5,0.3l0.5-0.3l8.1-4.7l0.5-0.3v-0.5v-9.4v-0.5l-0.5-0.3l-8.1-4.7L106.6,18.3L106.6,18.3z"/>
	<polygon class="st4" points="76.7,23 86.6,17.3 96.6,23 96.6,34.5 86.6,40.3 76.7,34.5 	"/>
	<path class="st3" d="M86.6,19.4l8.1,4.7v9.4l-8.1,4.7l-8.1-4.7v-9.4L86.6,19.4 M86.6,18.3l-0.5,0.3l-8.1,4.7l-0.5,0.3v0.5v9.4V34
		l0.5,0.3l8.1,4.7l0.5,0.3l0.5-0.3l8.1-4.7l0.5-0.3v-0.5v-9.4v-0.5l-0.5-0.3l-8.1-4.7L86.6,18.3L86.6,18.3z"/>
</g>
<g>
	<path class="st5" d="M68.6,34.4v0.4h-0.8v2h-0.5v-2h-0.8v-0.4H68.6z M70.3,35.8c0,0,0,0.1,0,0.1c0,0,0,0.1,0,0.1c0,0,0-0.1,0-0.1
		c0,0,0-0.1,0-0.1l0.7-1.3c0,0,0-0.1,0.1-0.1c0,0,0.1,0,0.1,0h0.4v2.5h-0.5v-1.5l0-0.3l-0.8,1.4c0,0.1-0.1,0.1-0.2,0.1h-0.1
		c-0.1,0-0.1,0-0.2-0.1l-0.8-1.4l0,0.3v1.5H69v-2.5h0.4c0,0,0.1,0,0.1,0c0,0,0,0,0.1,0.1L70.3,35.8z"/>
</g>
<g>
	<g>
		<path class="st6" d="M23.5,34.9h-1.2c-0.1,0-0.2,0-0.3-0.1s-0.1-0.2-0.2-0.3l-1.1-2.7h-5.1l-1.1,2.7c0,0.1-0.1,0.2-0.2,0.3
			c-0.1,0.1-0.2,0.1-0.3,0.1H13l4.5-11.3H19L23.5,34.9z M16.1,30.7h4.2l-1.8-4.6c-0.1-0.3-0.2-0.6-0.3-1.1c-0.1,0.2-0.1,0.4-0.2,0.6
			C18,25.9,18,26,17.9,26.2L16.1,30.7z"/>
		<path class="st6" d="M34.4,29.3c0,0.8-0.1,1.6-0.4,2.3c-0.3,0.7-0.6,1.3-1.1,1.8c-0.5,0.5-1.1,0.9-1.8,1.1
			c-0.7,0.3-1.4,0.4-2.3,0.4h-4.2V23.6h4.2c0.8,0,1.6,0.1,2.3,0.4c0.7,0.3,1.3,0.7,1.8,1.2c0.5,0.5,0.9,1.1,1.1,1.8
			C34.3,27.7,34.4,28.4,34.4,29.3z M32.9,29.3c0-0.7-0.1-1.3-0.3-1.9c-0.2-0.5-0.5-1-0.8-1.4c-0.3-0.4-0.8-0.7-1.3-0.9
			c-0.5-0.2-1-0.3-1.6-0.3h-2.7v8.8h2.7c0.6,0,1.2-0.1,1.6-0.3c0.5-0.2,0.9-0.5,1.3-0.9c0.3-0.4,0.6-0.8,0.8-1.4
			C32.8,30.6,32.9,30,32.9,29.3z"/>
		<path class="st6" d="M42.9,23.6v1.2h-5.4v3.8h4.4v1.2h-4.4v3.9h5.4v1.2h-7V23.6H42.9z"/>
		<path class="st6" d="M45.5,23.7c0.1,0,0.1,0.1,0.2,0.2l6.5,8.5c0-0.1,0-0.3,0-0.4c0-0.1,0-0.3,0-0.4v-8h1.3v11.3h-0.8
			c-0.1,0-0.2,0-0.3-0.1c-0.1,0-0.2-0.1-0.2-0.2l-6.5-8.5c0,0.1,0,0.3,0,0.4c0,0.1,0,0.2,0,0.3v8h-1.3V23.6h0.8
			C45.3,23.6,45.4,23.7,45.5,23.7z"/>
		<path class="st6" d="M65.3,34.9h-1.2c-0.1,0-0.2,0-0.3-0.1s-0.1-0.2-0.2-0.3l-1.1-2.7h-5.1l-1.1,2.7c0,0.1-0.1,0.2-0.2,0.3
			c-0.1,0.1-0.2,0.1-0.3,0.1h-1.2l4.5-11.3h1.6L65.3,34.9z M57.9,30.7h4.2l-1.8-4.6c-0.1-0.3-0.2-0.6-0.3-1.1
			c-0.1,0.2-0.1,0.4-0.2,0.6c-0.1,0.2-0.1,0.3-0.2,0.5L57.9,30.7z"/>
	</g>
	<g>
		<path class="st6" d="M10.8,34.9c-0.1,0-0.2,0-0.3,0c-0.1,0-0.1,0-0.2-0.1l-0.3-0.3l-5.6-6.4C4.3,28,4.2,28,4.1,27.9
			c-0.1-0.1-0.2-0.1-0.3-0.2c-0.1-0.1-0.3-0.1-0.4-0.1c-0.1,0-0.3,0-0.5,0H1.7v7.4H0V19.3h1.7v7.1h1.1c0.3,0,0.6,0,0.8-0.1
			c0.2-0.1,0.4-0.2,0.6-0.4l5.4-6.1c0.1-0.2,0.3-0.3,0.4-0.3c0.1-0.1,0.3-0.1,0.5-0.1h1.3l-5.8,6.6c-0.1,0.2-0.3,0.3-0.4,0.4
			c-0.1,0.1-0.3,0.2-0.4,0.3l-0.5,0.3l0.6,0.2c0.2,0.1,0.3,0.1,0.5,0.3c0.2,0.1,0.3,0.3,0.5,0.5l6.1,7.3H10.8z"/>
	</g>
</g>
</svg>
