<?xml version="1.0" encoding="UTF-8"?>
<svg width="491px" height="155px" viewBox="0 0 491 155" version="1.1" xmlns="http://www.w3.org/2000/svg" xmlns:xlink="http://www.w3.org/1999/xlink">
    <!-- Generator: Sketch 43.1 (39012) - http://www.bohemiancoding.com/sketch -->
    <title>Brand/Logo V2</title>
    <desc>Created with Sketch.</desc>
    <defs></defs>
    <g id="Styleguide" stroke="none" stroke-width="1" fill="none" fill-rule="evenodd">
        <g transform="translate(-50.000000, -418.000000)" id="Logo">
            <g transform="translate(50.000000, 213.000000)">
                <g id="Brand/Logo-V2" transform="translate(0.000000, 205.000000)">
                    <g id="Brand/Icon">
                        <g id="icon">
                            <polygon id="Shape" fill="#FFBD31" fill-rule="nonzero" points="76 21.9998532 114.12851 0 152.279865 21.9998532 152.279865 66.0452498 114.12851 88.0679481 76 66.0452498"></polygon>
                            <polygon id="Shape" fill="#00BB89" fill-rule="nonzero" points="152.151355 66 190.279865 87.9998532 190.279865 132.04525 152.151355 154.067948 114 132.04525 114 87.9998532"></polygon>
                            <polygon id="Shape" fill="#FF6C1E" fill-rule="nonzero" points="38.1285098 0 76.2798647 21.9998532 76.2798647 66.0452498 38.1285098 88.0679481 0 66.0452498 0 21.9998532"></polygon>
                            <path d="M38.633206,9.13496721 L69.725418,27.0912337 L69.725418,63.0037666 L38.633206,80.9371879 L7.54099402,62.9809214 L7.54099402,27.0912337 L38.633206,9.13496721 L38.633206,9.13496721 Z M38.633206,5.09138049 L36.8969767,6.09656589 L5.73622933,24.0528323 L4,25.0580177 L4,64.9912922 L5.73622933,65.9964776 L36.8284413,83.9527441 L38.5646707,84.9579295 L40.3009,83.9527441 L71.393112,65.9964776 L73.1293413,64.9912922 L73.1293413,25.0580177 L71.393112,24.0528323 L40.3237451,6.0051854 L38.5875158,5 L38.633206,5.09138049 Z" id="Shape" fill="#FFFFFF" fill-rule="nonzero"></path>
                            <path d="M114.541826,8.13496721 L145.702573,26.0912337 L145.702573,62.0037666 L114.610361,79.960033 L83.5181489,62.0037666 L83.5181489,26.0912337 L114.610361,8.13496721 L114.541826,8.13496721 Z M114.610361,4.09138049 L112.874132,5.09656589 L81.7362293,23.0528323 L80,24.0580177 L80,63.9912922 L81.7362293,64.9964776 L112.828441,82.9527441 L114.564671,83.9579295 L116.3009,82.9527441 L147.393112,64.9964776 L149.129341,63.9912922 L149.129341,24.0580177 L147.393112,23.0528323 L116.278055,5.0051854 L114.541826,4 L114.610361,4.09138049 Z" id="Shape" fill="#FFFFFF" fill-rule="nonzero"></path>
                            <path d="M151.564671,74.0435867 L182.656883,91.9998532 L182.656883,127.912386 L151.564671,145.868653 L120.472459,127.912386 L120.472459,91.9998532 L151.564671,74.0435867 L151.564671,74.0435867 Z M151.564671,70 L149.828441,71.0051854 L118.736229,88.9614519 L117,89.9666373 L117,129.899912 L118.736229,130.905097 L149.828441,148.792828 L151.564671,149.798014 L153.3009,148.792828 L184.393112,130.836562 L186.129341,129.831376 L186.129341,89.9894824 L184.393112,88.984297 L153.323745,71.119411 L151.587516,70.1142256 L151.564671,70 Z" id="Shape" fill="#FFFFFF" fill-rule="nonzero"></path>
                            <polygon id="Shape" fill="#219CD9" fill-rule="nonzero" points="38 87.9998532 76.1513549 66 114.279865 87.9998532 114.279865 132.04525 76.1513549 154.067948 38 132.04525"></polygon>
                            <path d="M76.5646707,74.0435867 L107.656883,91.9998532 L107.656883,127.912386 L76.5646707,145.868653 L45.4724587,127.912386 L45.4724587,91.9998532 L76.5646707,74.0435867 L76.5646707,74.0435867 Z M76.5646707,70 L74.8284413,71.0051854 L43.7362293,88.9614519 L42,89.9666373 L42,129.899912 L43.7362293,130.905097 L74.8284413,148.792828 L76.5646707,149.798014 L78.3009,148.792828 L109.324577,130.927942 L111.060806,129.922757 L111.060806,89.9894824 L109.324577,88.984297 L78.3237451,71.119411 L76.5875158,70.1142256 L76.5646707,70 Z" id="Shape" fill="#FFFFFF" fill-rule="nonzero"></path>
                        </g>
                    </g>
                    <path d="M225.956055,109 L225.956055,87.8359375 L232.506836,80.6132812 L255.224609,109 L264.882812,109 L237.755859,75.2382812 L262.657227,48.4052734 L253.125,48.4052734 L226.375977,77.9677734 L225.956055,77.9677734 L225.956055,48.4052734 L218.397461,48.4052734 L218.397461,109 L225.956055,109 Z M283.905273,103.079102 C287.600604,103.079102 290.659005,102.008311 293.080566,99.8666992 C295.502128,97.7250869 296.712891,95.0306152 296.712891,91.7832031 L296.712891,88.1298828 L284.871094,88.8857422 C277.984341,89.3056662 274.541016,91.7271914 274.541016,96.1503906 C274.541016,98.2500105 275.38785,99.9296812 277.081543,101.189453 C278.775236,102.449225 281.04979,103.079102 283.905273,103.079102 Z M282.351562,109.419922 C277.760394,109.419922 274.065118,108.202161 271.265625,105.766602 C268.466132,103.331043 267.066406,100.111674 267.066406,96.1083984 C267.066406,88.1298429 272.721298,83.7906936 284.03125,83.0908203 L296.712891,82.3349609 L296.712891,78.5556641 C296.712891,75.728176 295.817066,73.5655999 294.025391,72.0678711 C292.233715,70.5701423 289.672217,69.8212891 286.34082,69.8212891 C283.709297,69.8212891 281.490732,70.4441669 279.685059,71.6899414 C277.879386,72.9357159 276.752606,74.6363825 276.304688,76.7919922 L269.291992,76.7919922 C269.403972,72.9566866 271.104639,69.751315 274.394043,67.1757812 C277.683447,64.6002475 281.693661,63.3125 286.424805,63.3125 C291.771837,63.3125 296.041,64.6352407 299.232422,67.2807617 C302.423844,69.9262828 304.019531,73.4745871 304.019531,77.9257812 L304.019531,109 L297.09082,109 L297.09082,101.147461 L296.922852,101.147461 C295.635085,103.667005 293.675469,105.675611 291.043945,107.17334 C288.412422,108.671069 285.51499,109.419922 282.351562,109.419922 Z M330.894531,109.419922 C325.21156,109.419922 320.557473,107.306336 316.932129,103.079102 C313.306785,98.8518669 311.494141,93.2809591 311.494141,86.3662109 C311.494141,79.4514628 313.292788,73.880555 316.890137,69.6533203 C320.487485,65.4260856 325.099581,63.3125 330.726562,63.3125 C333.973975,63.3125 336.850411,63.9843683 339.355957,65.328125 C341.861503,66.6718817 343.800123,68.5895058 345.171875,71.0810547 L345.339844,71.0810547 L345.339844,45.7597656 L352.646484,45.7597656 L352.646484,109 L345.675781,109 L345.675781,101.357422 L345.549805,101.357422 C344.094068,103.960951 342.106458,105.955559 339.586914,107.341309 C337.06737,108.727058 334.169938,109.419922 330.894531,109.419922 Z M332.196289,69.8212891 C328.221009,69.8212891 325.022636,71.3259941 322.601074,74.3354492 C320.179513,77.3449044 318.96875,81.3551182 318.96875,86.3662109 C318.96875,91.3773037 320.179513,95.3875175 322.601074,98.3969727 C325.022636,101.406428 328.221009,102.911133 332.196289,102.911133 C336.115579,102.911133 339.292957,101.385432 341.728516,98.3339844 C344.164075,95.2825368 345.381836,91.2933189 345.381836,86.3662109 C345.381836,81.439103 344.164075,77.449885 341.728516,74.3984375 C339.292957,71.34699 336.115579,69.8212891 332.196289,69.8212891 Z M381.033203,69.7373047 C377.477847,69.7373047 374.531424,70.9130742 372.193848,73.2646484 C369.856271,75.6162227 368.561525,78.7096162 368.30957,82.5449219 L393.210938,82.5449219 C393.126953,78.7096162 391.972179,75.6162227 389.746582,73.2646484 C387.520985,70.9130742 384.616554,69.7373047 381.033203,69.7373047 Z M393.042969,96.0664062 L400.265625,96.0664062 C399.649737,99.9577017 397.578143,103.156075 394.050781,105.661621 C390.52342,108.167167 386.33824,109.419922 381.495117,109.419922 C375.140268,109.419922 370.094257,107.355327 366.356934,103.226074 C362.61961,99.0968218 360.750977,93.5329126 360.750977,86.5341797 C360.750977,79.5074518 362.612612,73.880555 366.335938,69.6533203 C370.059263,65.4260856 375.000295,63.3125 381.15918,63.3125 C387.206085,63.3125 391.993146,65.3001103 395.520508,69.2753906 C399.047869,73.2506709 400.811523,78.6676089 400.811523,85.5263672 L400.811523,88.3818359 L368.30957,88.3818359 L368.30957,88.8017578 C368.30957,93.1129773 369.527332,96.5563022 371.962891,99.1318359 C374.39845,101.70737 377.631816,102.995117 381.663086,102.995117 C384.490574,102.995117 386.933095,102.372239 388.990723,101.126465 C391.04835,99.8806904 392.399085,98.1940211 393.042969,96.0664062 Z M408.496094,109 L415.802734,109 L415.802734,82.7128906 C415.802734,78.8215951 416.859527,75.7002071 418.973145,73.3486328 C421.086762,70.9970586 424.00519,69.8212891 427.728516,69.8212891 C431.311867,69.8212891 433.971345,70.801097 435.707031,72.7607422 C437.442717,74.7203874 438.310547,77.5478331 438.310547,81.2431641 L438.310547,109 L445.617188,109 L445.617188,79.9833984 C445.617188,74.832331 444.245456,70.7661282 441.501953,67.784668 C438.75845,64.8032077 434.895207,63.3125 429.912109,63.3125 C426.412743,63.3125 423.501314,63.9633724 421.177734,65.2651367 C418.854155,66.566901 416.978523,68.505521 415.550781,71.0810547 L415.382812,71.0810547 L415.382812,63.7324219 L408.496094,63.7324219 L408.496094,109 Z M470.098633,103.079102 C473.793964,103.079102 476.852364,102.008311 479.273926,99.8666992 C481.695487,97.7250869 482.90625,95.0306152 482.90625,91.7832031 L482.90625,88.1298828 L471.064453,88.8857422 C464.1777,89.3056662 460.734375,91.7271914 460.734375,96.1503906 C460.734375,98.2500105 461.581209,99.9296812 463.274902,101.189453 C464.968596,102.449225 467.24315,103.079102 470.098633,103.079102 Z M468.544922,109.419922 C463.953753,109.419922 460.258478,108.202161 457.458984,105.766602 C454.659491,103.331043 453.259766,100.111674 453.259766,96.1083984 C453.259766,88.1298429 458.914657,83.7906936 470.224609,83.0908203 L482.90625,82.3349609 L482.90625,78.5556641 C482.90625,75.728176 482.010426,73.5655999 480.21875,72.0678711 C478.427074,70.5701423 475.865577,69.8212891 472.53418,69.8212891 C469.902656,69.8212891 467.684091,70.4441669 465.878418,71.6899414 C464.072745,72.9357159 462.945966,74.6363825 462.498047,76.7919922 L455.485352,76.7919922 C455.597331,72.9566866 457.297998,69.751315 460.587402,67.1757812 C463.876807,64.6002475 467.887021,63.3125 472.618164,63.3125 C477.965196,63.3125 482.234359,64.6352407 485.425781,67.2807617 C488.617203,69.9262828 490.212891,73.4745871 490.212891,77.9257812 L490.212891,109 L483.28418,109 L483.28418,101.147461 L483.116211,101.147461 C481.828444,103.667005 479.868828,105.675611 477.237305,107.17334 C474.605781,108.671069 471.708349,109.419922 468.544922,109.419922 Z" id="Kadena" fill="#2B2B2B"></path>
                </g>
            </g>
        </g>
    </g>
</svg>