<svg width="18px" height="18px" viewBox="0 0 18 18" version="1.1" xmlns="http://www.w3.org/2000/svg" xmlns:xlink="http://www.w3.org/1999/xlink">
  <g id="Symbols" stroke="none" stroke-width="1" fill="none" fill-rule="evenodd">
    <g id="Icon-/-Menu-/-Mailings" transform="translate(-2.000000, -2.000000)" fill-rule="nonzero">
      <g id="shopping-color_newsletter" transform="translate(2.000000, 2.000000)">
        <g id="Group">
          <path
            d="M8.80851064,13.787234 C8.73689362,13.787234 8.66565957,13.7673191 8.60285106,13.7274894 L0.177319149,8.36578723 C0.060893617,8.29187234 -0.0065106383,8.16051064 0.000382978723,8.0226383 C0.00765957447,7.88514894 0.0880851064,7.76144681 0.211787234,7.69978723 L8.80851064,2.29787234 L17.405234,7.69978723 C17.5285532,7.76144681 17.6093617,7.88476596 17.6166383,8.0226383 C17.6239149,8.16051064 17.5561277,8.29148936 17.4397021,8.36578723 L9.01417021,13.7274894 C8.9513617,13.7673191 8.88012766,13.787234 8.80851064,13.787234 Z"
            id="Shape"
            fill="#A67C52"></path>
          <path
            d="M14.5531915,14.1702128 L3.06382979,14.1702128 L3.06382979,0.382978723 C3.06382979,0.171574468 3.23540426,0 3.44680851,0 L14.1702128,0 C14.381617,0 14.5531915,0.171574468 14.5531915,0.382978723 L14.5531915,14.1702128 Z"
            id="Shape"
            fill="#E6E6E6"></path>
          <path
            d="M17.2340426,17.6170213 C17.2018723,17.6170213 17.1693191,17.6128085 17.1375319,17.604766 L8.32902128,15.3068936 L8.42553191,12.6382979 L17.6170213,8.04255319 L17.6170213,17.2340426 C17.6170213,17.352766 17.5618723,17.4645957 17.4680426,17.5373617 C17.4006383,17.5894468 17.3179149,17.6170213 17.2340426,17.6170213 Z"
            id="Shape"
            fill="#B28F77"></path>
          <path
            d="M17.2340426,17.6170213 L0.382978723,17.6170213 C0.171191489,17.6170213 0,17.4454468 0,17.2340426 L0,8.04255319 L17.4174894,16.8977872 C17.5710638,16.9816596 17.6488085,17.1589787 17.6051489,17.3286383 C17.5618723,17.4982979 17.4090638,17.6170213 17.2340426,17.6170213 Z"
            id="Shape"
            fill="#C19F85"></path>
          <path
            d="M11.8723404,3.44680851 L5.74468085,3.44680851 C5.5332766,3.44680851 5.36170213,3.27561702 5.36170213,3.06382979 C5.36170213,2.85204255 5.5332766,2.68085106 5.74468085,2.68085106 L11.8723404,2.68085106 C12.0837447,2.68085106 12.2553191,2.85204255 12.2553191,3.06382979 C12.2553191,3.27561702 12.0837447,3.44680851 11.8723404,3.44680851 Z"
            id="Shape"
            fill="#B3B3B3"></path>
          <path
            d="M11.8723404,6.12765957 L5.74468085,6.12765957 C5.5332766,6.12765957 5.36170213,5.95646809 5.36170213,5.74468085 C5.36170213,5.53289362 5.5332766,5.36170213 5.74468085,5.36170213 L11.8723404,5.36170213 C12.0837447,5.36170213 12.2553191,5.53289362 12.2553191,5.74468085 C12.2553191,5.95646809 12.0837447,6.12765957 11.8723404,6.12765957 Z"
            id="Shape"
            fill="#B3B3B3"></path>
          <path
            d="M9.19148936,8.80851064 L5.74468085,8.80851064 C5.5332766,8.80851064 5.36170213,8.63731915 5.36170213,8.42553191 C5.36170213,8.21374468 5.5332766,8.04255319 5.74468085,8.04255319 L9.19148936,8.04255319 C9.40289362,8.04255319 9.57446809,8.21374468 9.57446809,8.42553191 C9.57446809,8.63731915 9.40289362,8.80851064 9.19148936,8.80851064 Z"
            id="Shape"
            fill="#B3B3B3"></path>
        </g>
      </g>
    </g>
  </g>
</svg>
