<?xml version="1.0" encoding="UTF-8"?>
<svg width="299px" height="299px" viewBox="0 0 299 299" version="1.1" xmlns="http://www.w3.org/2000/svg" xmlns:xlink="http://www.w3.org/1999/xlink">
    <!-- Generator: Sketch 44.1 (41455) - http://www.bohemiancoding.com/sketch -->
    <title>Icon / Menu / Mailings</title>
    <desc>Created with Sketch.</desc>
    <defs></defs>
    <g id="Ready" stroke="none" stroke-width="1" fill="none" fill-rule="evenodd">
        <g id="Contact-us-Confirmation" transform="translate(-476.000000, -220.000000)" fill-rule="nonzero">
            <g id="Icon-/-Menu-/-Mailings" transform="translate(475.000000, 220.000000)">
                <g id="shopping-color_newsletter" transform="translate(0.338792, 0.338792)">
                    <g id="Group" transform="translate(-0.000000, 0.000000)">
                        <path d="M150.144167,233.549984 C148.931004,233.549984 147.724329,233.212634 146.660379,232.537934 L3.93538931,141.71294 C1.96318945,140.460853 0.821389526,138.23564 0.938164518,135.900141 C1.06142701,133.571128 2.42380192,131.475666 4.51926427,130.431178 L150.144167,38.9249973 L295.769069,130.431178 C297.858044,131.475666 299.226906,133.564641 299.350169,135.900141 C299.473431,138.23564 298.325144,140.454365 296.352944,141.71294 L153.627954,232.537934 C152.564004,233.212634 151.357329,233.549984 150.144167,233.549984 Z" id="Shape" fill="#A67C52"></path>
                        <path d="M247.624986,240.037483 L53,240.037483 L53,6.48749955 C53,2.9063998 55.9063998,0 59.4874995,0 L241.137487,0 C244.718587,0 247.624986,2.9063998 247.624986,6.48749955 L247.624986,240.037483 Z" id="Shape" fill="#E6E6E6"></path>
                        <path d="M136.61773,135.139469 C134.948165,135.139469 133.2786,134.500339 132.006861,133.2286 L105.919904,107.141643 C103.369904,104.591643 103.369904,100.469904 105.919904,97.919904 C108.469904,95.369904 112.591643,95.369904 115.141643,97.919904 L136.61773,119.395991 L184.180774,71.8329475 C186.730774,69.2829475 190.852513,69.2829475 193.402513,71.8329475 C195.952513,74.3829475 195.952513,78.5046866 193.402513,81.0546866 L141.2286,133.2286 C139.956861,134.500339 138.287295,135.139469 136.61773,135.139469 Z" id="Shape" fill="#72C472"></path>
                        <path d="M292.869157,298.424979 C292.324207,298.424979 291.772769,298.353617 291.234307,298.217379 L142.021817,259.292382 L143.656667,214.087485 L299.356656,136.237491 L299.356656,291.93748 C299.356656,293.948605 298.422456,295.842954 296.833019,297.075579 C295.691219,297.957879 294.289919,298.424979 292.869157,298.424979 Z" id="Shape" fill="#B28F77"></path>
                        <path d="M292.869157,298.424979 L7.41917657,298.424979 C3.83158932,298.424979 0.931677019,295.518579 0.931677019,291.93748 L0.931677019,136.237491 L295.976669,286.241455 C298.578156,287.662218 299.895119,290.66593 299.155544,293.539892 C298.422456,296.413854 295.833944,298.424979 292.869157,298.424979 Z" id="Shape" fill="#C19F85"></path>
                    </g>
                </g>
            </g>
        </g>
    </g>
</svg>