<?xml version="1.0" encoding="UTF-8"?>
<svg width="42px" height="32px" viewBox="0 0 42 32" version="1.1" xmlns="http://www.w3.org/2000/svg" xmlns:xlink="http://www.w3.org/1999/xlink">
    <!-- Generator: Sketch 44.1 (41455) - http://www.bohemiancoding.com/sketch -->
    <title>fedexPic</title>
    <desc>Created with Sketch.</desc>
    <defs></defs>
    <g id="Ready" stroke="none" stroke-width="1" fill="none" fill-rule="evenodd">
        <g id="Order-detail" transform="translate(-273.000000, -479.000000)">
            <g id="Page" transform="translate(20.000000, 20.000000)">
                <g id="Container" transform="translate(233.166667, 70.000000)">
                    <g id="Payment" transform="translate(20.000000, 342.000000)">
                        <g id="fedexPic" transform="translate(0.000000, 47.000000)">
                            <rect id="Rectangle-5" fill="#FFFFFF" x="0" y="0" width="41.509434" height="32" rx="2"></rect>
                            <g id="g5473" transform="translate(1.000000, 0.000000)" fill-rule="nonzero">
                                <g id="g3806" transform="translate(21.025046, 28.689188) scale(-1, 1) rotate(-180.000000) translate(-21.025046, -28.689188) translate(2.178892, 25.996880)" fill="#231F20">
                                    <path d="M36.9230769,0.769230769 L36.9230769,0.69 L36.9961538,0.69 C37.0123077,0.69 37.0261538,0.693846154 37.0361538,0.7 C37.0453846,0.706153846 37.0507692,0.716923077 37.0507692,0.73 C37.0507692,0.743076923 37.0453846,0.753076923 37.0361538,0.759230769 C37.0261538,0.766153846 37.0123077,0.769230769 36.9961538,0.769230769 L36.9230769,0.769230769 Z M36.9969231,0.824615385 C37.0346154,0.824615385 37.0638462,0.816153846 37.0846154,0.799230769 C37.1053846,0.782307692 37.1153846,0.759230769 37.1153846,0.73 C37.1153846,0.705384615 37.1076923,0.685384615 37.0907692,0.669230769 C37.0746154,0.653846154 37.0515385,0.643846154 37.0207692,0.64 L37.1176923,0.528461538 L37.0423077,0.528461538 L36.9523077,0.639230769 L36.9230769,0.639230769 L36.9230769,0.528461538 L36.86,0.528461538 L36.86,0.824615385 L36.9969231,0.824615385 Z M36.9776923,0.426153846 C37.0123077,0.426153846 37.0446154,0.433076923 37.0738462,0.446153846 C37.1038462,0.459230769 37.13,0.476923077 37.1523077,0.499230769 C37.1746154,0.521538462 37.1923077,0.547692308 37.2053846,0.578461538 C37.2176923,0.608461538 37.2246154,0.640769231 37.2246154,0.675384615 C37.2246154,0.71 37.2176923,0.742307692 37.2053846,0.772307692 C37.1923077,0.802307692 37.1746154,0.829230769 37.1523077,0.851538462 C37.13,0.873846154 37.1038462,0.891538462 37.0738462,0.904615385 C37.0446154,0.916923077 37.0123077,0.923076923 36.9776923,0.923076923 C36.9430769,0.923076923 36.91,0.916923077 36.88,0.904615385 C36.8492308,0.891538462 36.8223077,0.873846154 36.8,0.851538462 C36.7776923,0.829230769 36.76,0.802307692 36.7476923,0.772307692 C36.7346154,0.742307692 36.7284615,0.71 36.7284615,0.675384615 C36.7284615,0.640769231 36.7346154,0.608461538 36.7476923,0.578461538 C36.76,0.547692308 36.7776923,0.521538462 36.8,0.499230769 C36.8223077,0.476923077 36.8492308,0.459230769 36.88,0.446153846 C36.91,0.433076923 36.9430769,0.426153846 36.9776923,0.426153846 L36.9776923,0.426153846 Z M36.9776923,0.994615385 C37.0230769,0.994615385 37.0646154,0.986153846 37.1046154,0.969230769 C37.1438462,0.953076923 37.1776923,0.93 37.2076923,0.900769231 C37.2369231,0.872307692 37.26,0.838461538 37.2769231,0.799230769 C37.2938462,0.760769231 37.3023077,0.719230769 37.3023077,0.675384615 C37.3023077,0.631538462 37.2938462,0.59 37.2769231,0.551538462 C37.26,0.513076923 37.2369231,0.479230769 37.2076923,0.45 C37.1776923,0.421538462 37.1438462,0.398461538 37.1046154,0.381538462 C37.0646154,0.364615385 37.0230769,0.356153846 36.9776923,0.356153846 C36.9315385,0.356153846 36.8892308,0.364615385 36.8492308,0.381538462 C36.8092308,0.398461538 36.7746154,0.421538462 36.7453846,0.45 C36.7161538,0.479230769 36.6930769,0.513076923 36.6761538,0.551538462 C36.6592308,0.59 36.6507692,0.631538462 36.6507692,0.675384615 C36.6507692,0.719230769 36.6592308,0.760769231 36.6761538,0.799230769 C36.6930769,0.838461538 36.7161538,0.872307692 36.7453846,0.900769231 C36.7746154,0.93 36.8092308,0.953076923 36.8492308,0.969230769 C36.8892308,0.986153846 36.9315385,0.994615385 36.9776923,0.994615385 L36.9776923,0.994615385 Z M7.00769231,2.13538462 C7.00769231,2.7 7.37769231,3.16384615 7.98230769,3.16384615 C8.56,3.16384615 8.95,2.72 8.95,2.13538462 C8.95,1.55076923 8.56,1.10692308 7.98230769,1.10692308 C7.37769231,1.10692308 7.00769231,1.57076923 7.00769231,2.13538462 L7.00769231,2.13538462 Z M9.60846154,2.13538462 L9.60846154,3.74153846 L8.91,3.74153846 L8.91,3.35153846 C8.68846154,3.64076923 8.35230769,3.82230769 7.89538462,3.82230769 C6.99461538,3.82230769 6.28846154,3.11615385 6.28846154,2.13538462 C6.28846154,1.15384615 6.99461538,0.448461538 7.89538462,0.448461538 C8.35230769,0.448461538 8.68846154,0.63 8.91,0.919230769 L8.91,0.529230769 L9.60846154,0.529230769 L9.60846154,2.13538462 L9.60846154,2.13538462 Z M33.2115385,2.13538462 C33.2115385,2.7 33.5815385,3.16384615 34.1861538,3.16384615 C34.7646154,3.16384615 35.1538462,2.72 35.1538462,2.13538462 C35.1538462,1.55076923 34.7646154,1.10692308 34.1861538,1.10692308 C33.5815385,1.10692308 33.2115385,1.57076923 33.2115385,2.13538462 L33.2115385,2.13538462 Z M35.8130769,2.13538462 L35.8130769,5.03153846 L35.1138462,5.03153846 L35.1138462,3.35153846 C34.8923077,3.64076923 34.5561538,3.82230769 34.0992308,3.82230769 C33.1984615,3.82230769 32.4923077,3.11615385 32.4923077,2.13538462 C32.4923077,1.15384615 33.1984615,0.448461538 34.0992308,0.448461538 C34.5561538,0.448461538 34.8923077,0.63 35.1138462,0.919230769 L35.1138462,0.529230769 L35.8130769,0.529230769 L35.8130769,2.13538462 Z M18.2784615,3.19692308 C18.7284615,3.19692308 19.0176923,2.91461538 19.0915385,2.41769231 L17.4246154,2.41769231 C17.4992308,2.88153846 17.7807692,3.19692308 18.2784615,3.19692308 L18.2784615,3.19692308 Z M18.2923077,3.82230769 C17.3507692,3.82230769 16.6923077,3.13692308 16.6923077,2.13538462 C16.6923077,1.11384615 17.3776923,0.448461538 18.3392308,0.448461538 C18.8230769,0.448461538 19.2661538,0.569230769 19.6561538,0.898461538 L19.3138462,1.41615385 C19.0446154,1.20153846 18.7015385,1.08 18.3792308,1.08 C17.9292308,1.08 17.5192308,1.28846154 17.4184615,1.86692308 L19.8038462,1.86692308 C19.8107692,1.95384615 19.8176923,2.04153846 19.8176923,2.13538462 C19.8107692,3.13692308 19.1923077,3.82230769 18.2923077,3.82230769 L18.2923077,3.82230769 Z M26.7261538,2.13538462 C26.7261538,2.7 27.0961538,3.16384615 27.7007692,3.16384615 C28.2784615,3.16384615 28.6684615,2.72 28.6684615,2.13538462 C28.6684615,1.55076923 28.2784615,1.10692308 27.7007692,1.10692308 C27.0961538,1.10692308 26.7261538,1.57076923 26.7261538,2.13538462 L26.7261538,2.13538462 Z M29.3269231,2.13538462 L29.3269231,3.74153846 L28.6284615,3.74153846 L28.6284615,3.35153846 C28.4061538,3.64076923 28.0707692,3.82230769 27.6138462,3.82230769 C26.7130769,3.82230769 26.0069231,3.11615385 26.0069231,2.13538462 C26.0069231,1.15384615 26.7130769,0.448461538 27.6138462,0.448461538 C28.0707692,0.448461538 28.4061538,0.63 28.6284615,0.919230769 L28.6284615,0.529230769 L29.3269231,0.529230769 L29.3269231,2.13538462 Z M22.7815385,2.13538462 C22.7815385,1.16076923 23.46,0.448461538 24.4953846,0.448461538 C24.9792308,0.448461538 25.3015385,0.556153846 25.6507692,0.831538462 L25.3153846,1.39615385 C25.0530769,1.20769231 24.7776923,1.10692308 24.4746154,1.10692308 C23.9169231,1.11384615 23.5069231,1.51692308 23.5069231,2.13538462 C23.5069231,2.75384615 23.9169231,3.15692308 24.4746154,3.16384615 C24.7776923,3.16384615 25.0530769,3.06307692 25.3153846,2.87461538 L25.6507692,3.43923077 C25.3015385,3.71461538 24.9792308,3.82230769 24.4953846,3.82230769 C23.46,3.82230769 22.7815385,3.11 22.7815385,2.13538462 L22.7815385,2.13538462 Z M31.7869231,3.82230769 C31.3838462,3.82230769 31.1215385,3.63384615 30.94,3.35153846 L30.94,3.74153846 L30.2476923,3.74153846 L30.2476923,0.529230769 L30.9469231,0.529230769 L30.9469231,2.33 C30.9469231,2.86153846 31.1753846,3.15692308 31.6323077,3.15692308 C31.7738462,3.15692308 31.9215385,3.13692308 32.0692308,3.07615385 L32.2846154,3.73461538 C32.13,3.79538462 31.9284615,3.82230769 31.7869231,3.82230769 L31.7869231,3.82230769 Z M13.0630769,3.48615385 C12.7269231,3.70769231 12.2638462,3.82230769 11.7530769,3.82230769 C10.9392308,3.82230769 10.4153846,3.43230769 10.4153846,2.79384615 C10.4153846,2.27 10.8053846,1.94692308 11.5238462,1.84615385 L11.8538462,1.79923077 C12.2369231,1.74538462 12.4176923,1.64461538 12.4176923,1.46307692 C12.4176923,1.21461538 12.1623077,1.07307692 11.6853846,1.07307692 C11.2015385,1.07307692 10.8523077,1.22769231 10.6169231,1.40923077 L10.2876923,0.865384615 C10.6707692,0.583076923 11.1546154,0.448461538 11.6784615,0.448461538 C12.6061538,0.448461538 13.1438462,0.885384615 13.1438462,1.49692308 C13.1438462,2.06153846 12.7207692,2.35692308 12.0215385,2.45769231 L11.6923077,2.50538462 C11.39,2.54538462 11.1476923,2.60538462 11.1476923,2.82076923 C11.1476923,3.05615385 11.3761538,3.19692308 11.7592308,3.19692308 C12.1692308,3.19692308 12.5661538,3.04230769 12.7607692,2.92153846 L13.0630769,3.48615385 L13.0630769,3.48615385 Z M22.0753846,3.82230769 C21.6723077,3.82230769 21.41,3.63384615 21.2292308,3.35153846 L21.2292308,3.74153846 L20.5369231,3.74153846 L20.5369231,0.529230769 L21.2353846,0.529230769 L21.2353846,2.33 C21.2353846,2.86153846 21.4638462,3.15692308 21.9207692,3.15692308 C22.0623077,3.15692308 22.21,3.13692308 22.3576923,3.07615385 L22.5730769,3.73461538 C22.4184615,3.79538462 22.2169231,3.82230769 22.0753846,3.82230769 L22.0753846,3.82230769 Z M16.1146154,3.74153846 L14.9723077,3.74153846 L14.9723077,4.71615385 L14.2661538,4.71615385 L14.2661538,3.74153846 L13.6146154,3.74153846 L13.6146154,3.10307692 L14.2661538,3.10307692 L14.2661538,1.63769231 C14.2661538,0.892307692 14.5553846,0.448461538 15.3815385,0.448461538 C15.6846154,0.448461538 16.0338462,0.542307692 16.2553846,0.696923077 L16.0538462,1.29538462 C15.8453846,1.17461538 15.6169231,1.11384615 15.4353846,1.11384615 C15.0861538,1.11384615 14.9723077,1.32923077 14.9723077,1.65153846 L14.9723077,3.10307692 L16.1146154,3.10307692 L16.1146154,3.74153846 L16.1146154,3.74153846 Z M5.67076923,0.529230769 L5.67076923,2.54538462 C5.67076923,3.30461538 5.18692308,3.81538462 4.40692308,3.82230769 C3.99692308,3.82923077 3.57384615,3.70153846 3.27769231,3.25076923 C3.05615385,3.60692308 2.70692308,3.82230769 2.21615385,3.82230769 C1.87307692,3.82230769 1.53769231,3.72153846 1.27538462,3.34538462 L1.27538462,3.74153846 L0.576153846,3.74153846 L0.576153846,0.529230769 L1.28153846,0.529230769 L1.28153846,2.31 C1.28153846,2.86769231 1.59076923,3.16384615 2.06846154,3.16384615 C2.53230769,3.16384615 2.76692308,2.86153846 2.76692308,2.31692308 L2.76692308,0.529230769 L3.47307692,0.529230769 L3.47307692,2.31 C3.47307692,2.86769231 3.79538462,3.16384615 4.25923077,3.16384615 C4.73615385,3.16384615 4.96461538,2.86153846 4.96461538,2.31692308 L4.96461538,0.529230769 L5.67076923,0.529230769 L5.67076923,0.529230769 Z" id="path3808"></path>
                                </g>
                                <g id="g5446">
                                    <g id="g3816" transform="translate(38.731138, 19.782185) scale(-1, 1) rotate(-180.000000) translate(-38.731138, -19.782185) translate(37.961908, 19.397569)" fill="#F79410">
                                        <path d="M1.53846154,0 L1.53846154,0.469230769 L1.41615385,0.469230769 L1.27461538,0.146923077 L1.13384615,0.469230769 L1.01076923,0.469230769 L1.01076923,0 L1.09769231,0 L1.09769231,0.353846154 L1.23,0.0484615385 L1.32,0.0484615385 L1.45230769,0.354615385 L1.45230769,0 L1.53846154,0 Z M0.762307692,0 L0.762307692,0.389230769 L0.919230769,0.389230769 L0.919230769,0.468461538 L0.519230769,0.468461538 L0.519230769,0.389230769 L0.676153846,0.389230769 L0.676153846,0 L0.762307692,0 Z" id="path3818"></path>
                                    </g>
                                    <g id="g5439">
                                        <polygon id="path3810" fill="#FF5F00" points="25.5966154 22.1815692 15.0104615 22.1815692 15.0104615 3.15695385 25.5966154 3.15695385"></polygon>
                                        <g id="g3812" transform="translate(10.682031, 12.669649) scale(-1, 1) rotate(-180.000000) translate(-10.682031, -12.669649) translate(0.297415, 0.361957)" fill="#EB001B">
                                            <path d="M15.3846154,12.3076923 C15.3846154,16.1669231 17.1915385,19.6046154 20.0053846,21.82 C17.9476923,23.44 15.3507692,24.4069231 12.5284615,24.4069231 C5.84692308,24.4069231 0.430769231,18.99 0.430769231,12.3076923 C0.430769231,5.62538462 5.84692308,0.208461538 12.5284615,0.208461538 C15.3507692,0.208461538 17.9476923,1.17538462 20.0053846,2.79538462 C17.1915385,5.01076923 15.3846154,8.44846154 15.3846154,12.3076923" id="path3814"></path>
                                        </g>
                                        <g id="g3820" transform="translate(29.878154, 12.669649) scale(-1, 1) rotate(-180.000000) translate(-29.878154, -12.669649) translate(19.878154, 0.361957)" fill="#F79E1B">
                                            <path d="M20,12.3076923 C20,5.62538462 14.5838462,0.208461538 7.90230769,0.208461538 C5.08,0.208461538 2.48307692,1.17538462 0.424615385,2.79538462 C3.23923077,5.01076923 5.04615385,8.44846154 5.04615385,12.3076923 C5.04615385,16.1669231 3.23923077,19.6046154 0.424615385,21.82 C2.48307692,23.44 5.08,24.4069231 7.90230769,24.4069231 C14.5838462,24.4069231 20,18.99 20,12.3076923" id="path3822"></path>
                                        </g>
                                    </g>
                                </g>
                            </g>
                        </g>
                    </g>
                </g>
            </g>
        </g>
    </g>
</svg>