<svg xmlns="http://www.w3.org/2000/svg" xmlns:xlink="http://www.w3.org/1999/xlink" x="0px" y="0px" width="48px" height="48px" viewBox="0 0 48 48"><g  transform="translate(0, 0)">
<path fill="none" stroke="#404040" stroke-width="4" stroke-linecap="square" stroke-miterlimit="10" d="M6,46c-2.209,0-4-1.791-4-4&#10;&#9;V26h8" stroke-linejoin="miter"/>
<path fill="none" stroke="#404040" stroke-width="4" stroke-linecap="square" stroke-miterlimit="10" d="M10,2c0,0,0,37.791,0,40&#10;&#9;c0,2.209-1.791,4-4,4h36c2.209,0,4-1.791,4-4V2H10z" stroke-linejoin="miter"/>
<line data-color="color-2" fill="none" stroke="#404040" stroke-width="4" stroke-linecap="square" stroke-miterlimit="10" x1="33" y1="12" x2="38" y2="12" stroke-linejoin="miter"/>
<line data-color="color-2" fill="none" stroke="#404040" stroke-width="4" stroke-linecap="square" stroke-miterlimit="10" x1="33" y1="20" x2="38" y2="20" stroke-linejoin="miter"/>
<line data-color="color-2" fill="none" stroke="#404040" stroke-width="4" stroke-linecap="square" stroke-miterlimit="10" x1="18" y1="28" x2="38" y2="28" stroke-linejoin="miter"/>
<line data-color="color-2" fill="none" stroke="#404040" stroke-width="4" stroke-linecap="square" stroke-miterlimit="10" x1="18" y1="36" x2="38" y2="36" stroke-linejoin="miter"/>
<rect data-color="color-2" x="18" y="12" fill="none" stroke="#404040" stroke-width="4" stroke-linecap="square" stroke-miterlimit="10" width="8" height="8" stroke-linejoin="miter"/>
</g></svg>