<?xml version="1.0" encoding="UTF-8"?>
<svg width="16px" height="21px" viewBox="0 0 16 21" version="1.1" xmlns="http://www.w3.org/2000/svg" xmlns:xlink="http://www.w3.org/1999/xlink">
    <!-- Generator: Sketch 43.1 (39012) - http://www.bohemiancoding.com/sketch -->
    <title>Shape</title>
    <desc>Created with Sketch.</desc>
    <defs></defs>
    <g id="BP-1200" stroke="none" stroke-width="1" fill="none" fill-rule="evenodd">
        <g id="Page-Layout-V6-1200" transform="translate(-17.000000, -229.000000)" fill-rule="nonzero" fill="#404040">
            <g id="Menu">
                <g id="ORDERS" transform="translate(0.000000, 216.000000)">
                    <g id="shopping-48px-glyph_receipt-list-43" transform="translate(17.837104, 13.792899)">
                        <path d="M13.9594728,0 L0.775526264,0 C0.347048003,0 0,0.379229483 0,0.847440185 L0,19.0674042 C0,19.2237569 0.0787159158,19.367398 0.204738934,19.4411253 C0.330374188,19.5148526 0.483928389,19.5063782 0.602583907,19.4199393 L2.71434192,17.8818353 L4.82571218,19.4199393 C4.95600059,19.5148526 5.12584084,19.5148526 5.25574149,19.4199393 L7.36749951,17.8818353 L9.47886976,19.4199393 C9.54440173,19.4673959 9.61962778,19.4911243 9.69446606,19.4911243 C9.76930435,19.4911243 9.8445304,19.4673959 9.9096746,19.4199393 L12.0206571,17.8818353 L14.1320273,19.4199393 C14.2510706,19.5063782 14.4042371,19.5148526 14.5298723,19.4411253 C14.6562831,19.367398 14.734999,19.2237569 14.734999,19.0674042 L14.734999,0.847440185 C14.734999,0.379229483 14.387951,0 13.9594728,0 Z M7.36749951,12.7116028 L3.10210506,12.7116028 C2.88767204,12.7116028 2.71434192,12.5221999 2.71434192,12.2878827 C2.71434192,12.0535655 2.88767204,11.8641626 3.10210506,11.8641626 L7.36749951,11.8641626 C7.58193252,11.8641626 7.75526264,12.0535655 7.75526264,12.2878827 C7.75526264,12.5221999 7.58193252,12.7116028 7.36749951,12.7116028 Z M7.36749951,9.32184204 L3.10210506,9.32184204 C2.88767204,9.32184204 2.71434192,9.13243916 2.71434192,8.89812194 C2.71434192,8.66380473 2.88767204,8.47440185 3.10210506,8.47440185 L7.36749951,8.47440185 C7.58193252,8.47440185 7.75526264,8.66380473 7.75526264,8.89812194 C7.75526264,9.13243916 7.58193252,9.32184204 7.36749951,9.32184204 Z M7.36749951,5.9320813 L3.10210506,5.9320813 C2.88767204,5.9320813 2.71434192,5.74267842 2.71434192,5.5083612 C2.71434192,5.27404399 2.88767204,5.08464111 3.10210506,5.08464111 L7.36749951,5.08464111 C7.58193252,5.08464111 7.75526264,5.27404399 7.75526264,5.5083612 C7.75526264,5.74267842 7.58193252,5.9320813 7.36749951,5.9320813 Z M11.632894,12.7116028 L10.4696046,12.7116028 C10.2551716,12.7116028 10.0818414,12.5221999 10.0818414,12.2878827 C10.0818414,12.0535655 10.2551716,11.8641626 10.4696046,11.8641626 L11.632894,11.8641626 C11.847327,11.8641626 12.0206571,12.0535655 12.0206571,12.2878827 C12.0206571,12.5221999 11.847327,12.7116028 11.632894,12.7116028 Z M11.632894,9.32184204 L10.4696046,9.32184204 C10.2551716,9.32184204 10.0818414,9.13243916 10.0818414,8.89812194 C10.0818414,8.66380473 10.2551716,8.47440185 10.4696046,8.47440185 L11.632894,8.47440185 C11.847327,8.47440185 12.0206571,8.66380473 12.0206571,8.89812194 C12.0206571,9.13243916 11.847327,9.32184204 11.632894,9.32184204 Z M11.632894,5.9320813 L10.4696046,5.9320813 C10.2551716,5.9320813 10.0818414,5.74267842 10.0818414,5.5083612 C10.0818414,5.27404399 10.2551716,5.08464111 10.4696046,5.08464111 L11.632894,5.08464111 C11.847327,5.08464111 12.0206571,5.27404399 12.0206571,5.5083612 C12.0206571,5.74267842 11.847327,5.9320813 11.632894,5.9320813 Z" id="Shape"></path>
                    </g>
                </g>
            </g>
        </g>
    </g>
</svg>