<svg width="16px" height="18px" viewBox="0 0 16 18" version="1.1" xmlns="http://www.w3.org/2000/svg" xmlns:xlink="http://www.w3.org/1999/xlink">
  <g id="Symbols" stroke="none" stroke-width="1" fill="none" fill-rule="evenodd">
    <g id="Icon-/-Menu-/-Orders-Idle" transform="translate(-3.000000, -2.000000)" fill-rule="nonzero" fill="#FFFFFF">
      <g id="shopping-48px-glyph_receipt-list-43" transform="translate(3.550000, 2.000000)">
        <path
          d="M14.0869565,0 L0.782608696,0 C0.350217391,0 0,0.350217391 0,0.782608696 L0,17.6086957 C0,17.753087 0.0794347826,17.8857391 0.206608696,17.9538261 C0.333391304,18.021913 0.488347826,18.014087 0.608086957,17.9342609 L2.73913043,16.5138261 L4.86978261,17.9342609 C5.00126087,18.021913 5.17265217,18.021913 5.30373913,17.9342609 L7.43478261,16.5138261 L9.56543478,17.9342609 C9.63156522,17.978087 9.70747826,18 9.783,18 C9.85852174,18 9.93443478,17.978087 10.0001739,17.9342609 L12.1304348,16.5138261 L14.261087,17.9342609 C14.3812174,18.014087 14.5357826,18.021913 14.6625652,17.9538261 C14.7901304,17.8857391 14.8695652,17.753087 14.8695652,17.6086957 L14.8695652,0.782608696 C14.8695652,0.350217391 14.5193478,0 14.0869565,0 Z M7.43478261,11.7391304 L3.13043478,11.7391304 C2.91404348,11.7391304 2.73913043,11.5642174 2.73913043,11.3478261 C2.73913043,11.1314348 2.91404348,10.9565217 3.13043478,10.9565217 L7.43478261,10.9565217 C7.65117391,10.9565217 7.82608696,11.1314348 7.82608696,11.3478261 C7.82608696,11.5642174 7.65117391,11.7391304 7.43478261,11.7391304 Z M7.43478261,8.60869565 L3.13043478,8.60869565 C2.91404348,8.60869565 2.73913043,8.43378261 2.73913043,8.2173913 C2.73913043,8.001 2.91404348,7.82608696 3.13043478,7.82608696 L7.43478261,7.82608696 C7.65117391,7.82608696 7.82608696,8.001 7.82608696,8.2173913 C7.82608696,8.43378261 7.65117391,8.60869565 7.43478261,8.60869565 Z M7.43478261,5.47826087 L3.13043478,5.47826087 C2.91404348,5.47826087 2.73913043,5.30334783 2.73913043,5.08695652 C2.73913043,4.87056522 2.91404348,4.69565217 3.13043478,4.69565217 L7.43478261,4.69565217 C7.65117391,4.69565217 7.82608696,4.87056522 7.82608696,5.08695652 C7.82608696,5.30334783 7.65117391,5.47826087 7.43478261,5.47826087 Z M11.7391304,11.7391304 L10.5652174,11.7391304 C10.3488261,11.7391304 10.173913,11.5642174 10.173913,11.3478261 C10.173913,11.1314348 10.3488261,10.9565217 10.5652174,10.9565217 L11.7391304,10.9565217 C11.9555217,10.9565217 12.1304348,11.1314348 12.1304348,11.3478261 C12.1304348,11.5642174 11.9555217,11.7391304 11.7391304,11.7391304 Z M11.7391304,8.60869565 L10.5652174,8.60869565 C10.3488261,8.60869565 10.173913,8.43378261 10.173913,8.2173913 C10.173913,8.001 10.3488261,7.82608696 10.5652174,7.82608696 L11.7391304,7.82608696 C11.9555217,7.82608696 12.1304348,8.001 12.1304348,8.2173913 C12.1304348,8.43378261 11.9555217,8.60869565 11.7391304,8.60869565 Z M11.7391304,5.47826087 L10.5652174,5.47826087 C10.3488261,5.47826087 10.173913,5.30334783 10.173913,5.08695652 C10.173913,4.87056522 10.3488261,4.69565217 10.5652174,4.69565217 L11.7391304,4.69565217 C11.9555217,4.69565217 12.1304348,4.87056522 12.1304348,5.08695652 C12.1304348,5.30334783 11.9555217,5.47826087 11.7391304,5.47826087 Z"
          id="Shape"></path>
      </g>
    </g>
  </g>
</svg>
