<svg width="16px" height="18px" viewBox="0 0 16 18" version="1.1" xmlns="http://www.w3.org/2000/svg" xmlns:xlink="http://www.w3.org/1999/xlink">
  <g id="Symbols" stroke="none" stroke-width="1" fill="none" fill-rule="evenodd">
    <g id="Icon-/-Menu-/-Orders" transform="translate(-3.000000, -2.000000)" fill-rule="nonzero">
      <g id="shopping-color_receipt-list-43" transform="translate(3.220000, 2.000000)">
        <g id="base" fill="#E6E6E6">
          <path
            d="M15.1407897,0 L0.409210531,0 C0.183326318,0 0,0.183326318 0,0.409210531 L0,17.5960528 C0,17.7470515 0.0830697379,17.8857739 0.216063161,17.9569765 C0.348647373,18.02777 0.509876322,18.019995 0.635913166,17.936516 L2.86447372,16.4510818 L5.09303427,17.936516 C5.23052901,18.0281792 5.40935401,18.0281792 5.54684875,17.936516 L7.7750001,16.4510818 L10.0035606,17.936516 C10.1410554,18.0281792 10.3198804,18.0281792 10.4573751,17.936516 L12.6855265,16.4510818 L14.914087,17.936516 C14.9824252,17.9823476 15.0614028,18.0052634 15.1407897,18.0052634 C15.2070818,18.0052634 15.2733739,17.9893042 15.333937,17.9569765 C15.4669305,17.8857739 15.5500002,17.7470515 15.5500002,17.5960528 L15.5500002,0.409210531 C15.5500002,0.183326318 15.3666739,0 15.1407897,0 Z"
            id="Shape"></path>
        </g>
        <g id="lines" transform="translate(3.000000, 4.000000)" fill="#B3B3B3">
          <path
            d="M6.00263169,1.72894744 L0.682894782,1.72894744 C0.457010569,1.72894744 0.273684251,1.54562112 0.273684251,1.31973691 C0.273684251,1.09385269 0.457010569,0.910526376 0.682894782,0.910526376 L6.00263169,0.910526376 C6.2285159,0.910526376 6.41184222,1.09385269 6.41184222,1.31973691 C6.41184222,1.54562112 6.2285159,1.72894744 6.00263169,1.72894744 Z"
            id="Shape"></path>
          <path
            d="M8.86710541,1.72894744 L8.04868435,1.72894744 C7.82280013,1.72894744 7.63947381,1.54562112 7.63947381,1.31973691 C7.63947381,1.09385269 7.82280013,0.910526376 8.04868435,0.910526376 L8.86710541,0.910526376 C9.09298962,0.910526376 9.27631594,1.09385269 9.27631594,1.31973691 C9.27631594,1.54562112 9.09298962,1.72894744 8.86710541,1.72894744 Z"
            id="Shape"></path>
          <path
            d="M6.00263169,5.00263169 L0.682894782,5.00263169 C0.457010569,5.00263169 0.273684251,4.81930537 0.273684251,4.59342116 C0.273684251,4.36753694 0.457010569,4.18421063 0.682894782,4.18421063 L6.00263169,4.18421063 C6.2285159,4.18421063 6.41184222,4.36753694 6.41184222,4.59342116 C6.41184222,4.81930537 6.2285159,5.00263169 6.00263169,5.00263169 Z"
            id="Shape"></path>
          <path
            d="M8.86710541,5.00263169 L8.04868435,5.00263169 C7.82280013,5.00263169 7.63947381,4.81930537 7.63947381,4.59342116 C7.63947381,4.36753694 7.82280013,4.18421063 8.04868435,4.18421063 L8.86710541,4.18421063 C9.09298962,4.18421063 9.27631594,4.36753694 9.27631594,4.59342116 C9.27631594,4.81930537 9.09298962,5.00263169 8.86710541,5.00263169 Z"
            id="Shape"></path>
          <path
            d="M6.00263169,8.27631594 L0.682894782,8.27631594 C0.457010569,8.27631594 0.273684251,8.09298962 0.273684251,7.86710541 C0.273684251,7.6412212 0.457010569,7.45789488 0.682894782,7.45789488 L6.00263169,7.45789488 C6.2285159,7.45789488 6.41184222,7.6412212 6.41184222,7.86710541 C6.41184222,8.09298962 6.2285159,8.27631594 6.00263169,8.27631594 Z"
            id="Shape"></path>
          <path
            d="M8.86710541,8.27631594 L8.04868435,8.27631594 C7.82280013,8.27631594 7.63947381,8.09298962 7.63947381,7.86710541 C7.63947381,7.6412212 7.82280013,7.45789488 8.04868435,7.45789488 L8.86710541,7.45789488 C9.09298962,7.45789488 9.27631594,7.6412212 9.27631594,7.86710541 C9.27631594,8.09298962 9.09298962,8.27631594 8.86710541,8.27631594 Z"
            id="Shape"></path>
        </g>
      </g>
    </g>
  </g>
</svg>
