<?xml version="1.0" encoding="UTF-8"?>
<svg width="17px" height="18px" viewBox="0 0 17 18" version="1.1" xmlns="http://www.w3.org/2000/svg" xmlns:xlink="http://www.w3.org/1999/xlink">
    <!-- Generator: Sketch 43.1 (39012) - http://www.bohemiancoding.com/sketch -->
    <title>design-24px-outline_todo</title>
    <desc>Created with Sketch.</desc>
    <defs></defs>
    <g id="Symbols" stroke="none" stroke-width="1" fill="none" fill-rule="evenodd">
        <g id="Icon-/-Menu-/-Orders-Idle" transform="translate(-2.000000, -2.000000)" fill="#444444">
            <g id="design-24px-outline_todo" transform="translate(2.500000, 2.000000)">
                <polygon id="Shape" fill-rule="nonzero" points="15 16.5 1.5 16.5 1.5 2.25 5.25 2.25 5.25 0.75 0 0.75 0 18 16.5 18 16.5 0.75 11.25 0.75 11.25 2.25 15 2.25"></polygon>
                <rect id="Rectangle" x="3" y="9" width="10" height="1"></rect>
                <rect id="Rectangle-Copy" x="3" y="12" width="10" height="1"></rect>
                <path d="M3.75,0 L12.75,0 L12.75,6 L9,6 L9,5.25 C9,4.83546356 8.66453644,4.5 8.25,4.5 C7.83546356,4.5 7.5,4.83546356 7.5,5.25 L7.5,6 L3.75,6 L3.75,0 Z M5.25,4.5 L6.12795007,4.5 C6.43671787,3.62596587 7.27003372,3 8.25,3 C9.22996628,3 10.0632821,3.62596587 10.3720499,4.5 L11.25,4.5 L11.25,1.5 L5.25,1.5 L5.25,4.5 Z" id="Shape" fill-rule="nonzero"></path>
            </g>
        </g>
    </g>
</svg>