
<svg width="300px" height="300px" viewBox="0 0 300 300" version="1.1" xmlns="http://www.w3.org/2000/svg" xmlns:xlink="http://www.w3.org/1999/xlink">
    <!-- Generator: Sketch 44.1 (41455) - http://www.bohemiancoding.com/sketch -->
    <desc>Created with Sketch.</desc>
    <defs>
        <filter x="0.0%" y="0.0%" width="100.0%" height="100.0%" filterUnits="objectBoundingBox" id="filter-1">
            <feOffset dx="0" dy="0" in="SourceAlpha" result="shadowOffsetOuter1"></feOffset>
            <feColorMatrix values="0 0 0 0 0   0 0 0 0 0   0 0 0 0 0  0 0 0 0.5 0" type="matrix" in="shadowOffsetOuter1" result="shadowMatrixOuter1"></feColorMatrix>
            <feMerge>
                <feMergeNode in="shadowMatrixOuter1"></feMergeNode>
                <feMergeNode in="SourceGraphic"></feMergeNode>
            </feMerge>
        </filter>
    </defs>
    <g id="Ready" stroke="none" stroke-width="1" fill="none" fill-rule="evenodd">
        <g id="Shopping-cart-Error-Alternative" transform="translate(-475.000000, -220.000000)" fill-rule="nonzero">
            <g id="files-color_archive-3d-check" transform="translate(475.000000, 220.000000)">
                <polygon id="Shape" fill="#5F4025" points="6.52173913 202.173913 52.173913 110.869565 247.826087 110.869565 293.478261 202.173913 150 267.391304"></polygon>
                <path d="M150,273.913043 C149.080435,273.913043 148.16087,273.717391 147.3,273.326087 L3.82173913,208.108696 C2.20434783,207.378261 0.965217391,206.021739 0.37173913,204.345652 C-0.215217391,202.676087 -0.104347826,200.836957 0.684782609,199.252174 L46.3369565,107.947826 C47.4456522,105.743478 49.7021739,104.347826 52.173913,104.347826 L247.826087,104.347826 C250.297826,104.347826 252.554348,105.743478 253.663043,107.954348 L299.315217,199.258696 C300.11087,200.843478 300.221739,202.682609 299.628261,204.352174 C299.034783,206.021739 297.78913,207.378261 296.178261,208.115217 L152.7,273.332609 C151.83913,273.717391 150.919565,273.913043 150,273.913043 Z M15.3782609,199.036957 L150,260.223913 L284.621739,199.036957 L243.795652,117.391304 L56.2043478,117.391304 L15.3782609,199.036957 Z" id="Shape" fill="#A67C52"></path>
                <path d="M247.826087,241.304348 L52.173913,241.304348 C48.573913,241.304348 45.6521739,238.382609 45.6521739,234.782609 L45.6521739,6.52173913 C45.6521739,2.92173913 48.573913,0 52.173913,0 L247.826087,0 C251.426087,0 254.347826,2.92173913 254.347826,6.52173913 L254.347826,234.782609 C254.347826,238.382609 251.426087,241.304348 247.826087,241.304348 Z" id="Shape" fill="#E6E6E6"></path>
                <path d="M195.652174,195.652174 L195.652174,228.26087 C195.652174,231.86087 192.730435,234.782609 189.130435,234.782609 L110.869565,234.782609 C107.269565,234.782609 104.347826,231.86087 104.347826,228.26087 L104.347826,195.652174 L6.52173913,195.652174 C2.92173913,195.652174 0,198.573913 0,202.173913 L0,293.478261 C0,297.078261 2.92173913,300 6.52173913,300 L293.478261,300 C297.078261,300 300,297.078261 300,293.478261 L300,202.173913 C300,198.573913 297.078261,195.652174 293.478261,195.652174 L195.652174,195.652174 Z" id="Shape" fill="#A67C52"></path>
            </g>
            <g id="ui-color-3_alert" transform="translate(582.000000, 281.000000)">
                <path d="M85.1767959,78.6926203 L44.3727038,0.945147026 C43.7328215,-0.274747853 41.726002,-0.274747853 41.0879744,0.945147026 L0.283882353,78.6926203 C-0.0184388747,79.2664707 0.00381790281,79.9550912 0.339524297,80.5085792 C0.675230691,81.0620672 1.27616368,81.4026751 1.92531969,81.4026751 L83.5335038,81.4026751 C84.1826598,81.4026751 84.7835928,81.0639183 85.1192992,80.5104303 C85.4550056,79.9569424 85.4772624,79.2664707 85.1767959,78.6926203 Z" id="Shape" fill="#EFD358"></path>
                <path d="M40.8746803,31.4221566 C40.8746803,30.4003326 41.7056,29.5710263 42.7294118,29.5710263 C43.7532235,29.5710263 44.5841432,30.4003326 44.5841432,31.4221566 L44.5841432,55.4868507 C44.5841432,56.5086746 43.7532235,57.337981 42.7294118,57.337981 C41.7056,57.337981 40.8746803,56.5086746 40.8746803,55.4868507 L40.8746803,31.4221566 Z M42.7294118,70.2958932 C40.6799335,70.2958932 39.0199488,68.6391316 39.0199488,66.5936326 C39.0199488,64.5481336 40.6799335,62.891372 42.7294118,62.891372 C44.77889,62.891372 46.4388747,64.5481336 46.4388747,66.5936326 C46.4388747,68.6391316 44.77889,70.2958932 42.7294118,70.2958932 Z" id="Shape" fill="#FFFFFF"></path>
            </g>
        </g>
    </g>
</svg>
