<?xml version="1.0" encoding="utf-8"?>
<!-- Generator: Adobe Illustrator 22.0.0, SVG Export Plug-In . SVG Version: 6.00 Build 0)  -->
<svg version="1.1" id="Layer_1" xmlns="http://www.w3.org/2000/svg" xmlns:xlink="http://www.w3.org/1999/xlink" x="0px" y="0px"
	 viewBox="0 0 20 20" style="enable-background:new 0 0 20 20;" xml:space="preserve">
<style type="text/css">
	.st0{fill:#606060;}
</style>
<g>
	<path class="st0" d="M14.9,4.2c0.8,0,1.4-0.6,1.4-1.4V1.4c0-0.8-0.6-1.4-1.4-1.4c-0.8,0-1.4,0.6-1.4,1.4v1.4
		C13.5,3.6,14.1,4.2,14.9,4.2L14.9,4.2z M14.9,4.2"/>
	<path class="st0" d="M19.8,2.4H17v0.7c0,1.2-0.9,2.1-2.1,2.1c-1.2,0-2.1-0.9-2.1-2.1V2.4H7.2v0.7c0,1.2-0.9,2.1-2.1,2.1
		C3.9,5.2,3,4.3,3,3.1V2.4l-2.8,0V20h18.3l1.4,0L19.8,2.4z M18.4,18.6H1.6V7.3h16.9V18.6z M18.4,18.6"/>
	<path class="st0" d="M5.1,4.2c0.8,0,1.4-0.6,1.4-1.4V1.4C6.4,0.6,5.8,0,5.1,0C4.3,0,3.7,0.6,3.7,1.4v1.4C3.7,3.6,4.3,4.2,5.1,4.2
		L5.1,4.2z M5.1,4.2"/>
	<rect x="7.2" y="8.8" class="st0" width="2.2" height="2"/>
	<rect x="10.8" y="8.8" class="st0" width="2.2" height="2"/>
	<rect x="14.1" y="8.8" class="st0" width="2.2" height="2"/>
	<rect x="7.2" y="12.1" class="st0" width="2.2" height="2"/>
	<rect x="10.8" y="12.1" class="st0" width="2.2" height="2"/>
	<rect x="14.1" y="12.1" class="st0" width="2.2" height="2"/>
	<rect x="7.2" y="15.4" class="st0" width="2.2" height="2"/>
	<rect x="3.7" y="12.1" class="st0" width="2.2" height="2"/>
	<rect x="3.7" y="15.4" class="st0" width="2.2" height="2"/>
	<rect x="10.8" y="15.4" class="st0" width="2.2" height="2"/>
	<rect x="14.1" y="15.4" class="st0" width="2.2" height="2"/>
</g>
</svg>
