<svg width="18px" height="18px" viewBox="0 0 18 18" version="1.1" xmlns="http://www.w3.org/2000/svg" xmlns:xlink="http://www.w3.org/1999/xlink">
  <g id="Symbols" stroke="none" stroke-width="1" fill="none" fill-rule="evenodd">
    <g id="Icon-/-Menu-/-Proofing-Idle" transform="translate(-2.000000, -2.000000)" fill="#FFFFFF">
      <g id="design-48px-glyph-2_ungroup" transform="translate(2.000000, 2.000000)">
        <g id="Group">
          <path
            d="M18,10.9792374 L15.9583246,9 C16.536185,8.25656663 16.7720752,7.39811578 16.7720752,6.3860376 C16.7720752,5.78727432 16.651453,5.21613753 16.4332335,4.69565217 L17.2173913,4.69565217 C17.6497826,4.69565217 18,5.04586957 18,5.47826087 L18,10.9792374 Z M18,12.9724966 L18,17.2173913 C18,17.6497826 17.6497826,18 17.2173913,18 L5.47826087,18 C5.04586957,18 4.69565217,17.6497826 4.69565217,17.2173913 L4.69565217,14.0869565 L13.3043478,14.0869565 C13.7367391,14.0869565 14.0869565,13.7367391 14.0869565,13.3043478 L14.0869565,10.5598001 C14.3901313,10.4573473 14.6769365,10.3081037 14.954129,10.0926458 L17.9924234,12.965094 C17.9947374,12.967408 17.9972659,12.9698782 18,12.9724966 Z M13.3043478,2.09671406 C13.0081156,2.03335401 12.7008962,2 12.3860376,2 C9.96768612,2 8,3.96768612 8,6.3860376 C8,8.80438909 9.96768612,10.7720752 12.3860376,10.7720752 C12.7113045,10.7720752 13.0159656,10.7615843 13.3043478,10.7281635 L13.3043478,12.5217391 C13.3043478,12.9541304 12.9541304,13.3043478 12.5217391,13.3043478 L0.782608696,13.3043478 C0.350217391,13.3043478 0,12.9541304 0,12.5217391 L0,0.782608696 C0,0.350217391 0.350217391,0 0.782608696,0 L12.5217391,0 C12.9541304,0 13.3043478,0.350217391 13.3043478,0.782608696 L13.3043478,2.09671406 Z"
            id="Combined-Shape"></path>
        </g>
        <circle id="Oval" cx="12.5" cy="6.4000001" r="3"></circle>
      </g>
    </g>
  </g>
</svg>
