<svg width="16px" height="18px" viewBox="0 0 16 18" version="1.1" xmlns="http://www.w3.org/2000/svg" xmlns:xlink="http://www.w3.org/1999/xlink">
  <g id="Symbols" stroke="none" stroke-width="1" fill="none" fill-rule="evenodd">
    <g id="Icon-/-Menu-/-Proofing" transform="translate(-3.000000, -2.000000)" fill-rule="nonzero">
      <g id="files-color_search" transform="translate(3.600000, 2.000000)">
        <g id="Group">
          <path
            d="M14.0869565,18 L0.782608696,18 C0.350217391,18 0,17.6497826 0,17.2173913 L0,0.782608696 C0,0.350217391 0.350217391,0 0.782608696,0 L10.173913,0 L14.8695652,4.69565217 L14.8695652,17.2173913 C14.8695652,17.6497826 14.5193478,18 14.0869565,18 Z"
            id="Shape"
            fill="#BFDEE0"></path>
          <path d="M10.173913,0 L10.173913,3.91304348 C10.173913,4.34543478 10.5241304,4.69565217 10.9565217,4.69565217 L14.8695652,4.69565217 L10.173913,0 Z" id="Shape" fill="#76B5B5"></path>
          <path
            d="M11.2331739,12.245087 L9.12208696,10.134 C9.53452174,9.6033913 9.7826087,8.93973913 9.7826087,8.2173913 C9.7826087,6.49134783 8.37821739,5.08695652 6.65217391,5.08695652 C4.92613043,5.08695652 3.52173913,6.49134783 3.52173913,8.2173913 C3.52173913,9.94343478 4.92613043,11.3478261 6.65217391,11.3478261 C7.37452174,11.3478261 8.03817391,11.0997391 8.56878261,10.6873043 L10.6798696,12.7983913 C10.7561739,12.8746957 10.8563478,12.9130435 10.9565217,12.9130435 C11.0566957,12.9130435 11.1568696,12.8746957 11.2331739,12.7983913 C11.3861739,12.6453913 11.3861739,12.398087 11.2331739,12.245087 Z M4.30434783,8.2173913 C4.30434783,6.92256522 5.35734783,5.86956522 6.65217391,5.86956522 C7.947,5.86956522 9,6.92256522 9,8.2173913 C9,9.51221739 7.947,10.5652174 6.65217391,10.5652174 C5.35734783,10.5652174 4.30434783,9.51221739 4.30434783,8.2173913 Z"
            id="Shape"
            fill="#335262"></path>
        </g>
      </g>
    </g>
  </g>
</svg>
