<?xml version="1.0" encoding="UTF-8"?>
<svg width="18px" height="18px" viewBox="0 0 18 18" version="1.1" xmlns="http://www.w3.org/2000/svg" xmlns:xlink="http://www.w3.org/1999/xlink">
    <!-- Generator: Sketch 43.1 (39012) - http://www.bohemiancoding.com/sketch -->
    <title>Group 38</title>
    <desc>Created with Sketch.</desc>
    <defs></defs>
    <g id="Symbols" stroke="none" stroke-width="1" fill="none" fill-rule="evenodd">
        <g id="Icon-/-Menu-/-Proofing-Idle" transform="translate(-2.000000, -2.000000)" fill="#404040">
            <g id="Group-38" transform="translate(2.000000, 2.000000)">
                <path d="M14.9484314,10.4787176 C14.7146393,10.7069913 14.5932343,11.0249055 14.6154425,11.35103 L14.6848937,12.3665517 C14.6959305,12.5294121 14.5924267,12.6781399 14.4357578,12.7240369 L13.4301961,13.0188007 C13.1033986,13.1144979 12.8421491,13.3501744 12.7130722,13.665262 L12.3371474,14.5841443 C12.2740222,14.7383906 12.1103543,14.8261467 11.9469555,14.7934401 L10.9626599,14.5966617 C10.8911898,14.5823946 10.8175661,14.5749918 10.7443463,14.5749918 C10.4906341,14.5749918 10.2423057,14.6628826 10.044989,14.8222435 L9.22368827,15.4860676 C9.09568811,15.589706 8.91250387,15.5891676 8.7849075,15.4849909 L7.97854689,14.8261467 C7.78042256,14.6642286 7.53034445,14.5749918 7.27434413,14.5749918 C7.20179725,14.5749918 7.12911577,14.58226 7.05791484,14.5963925 L6.07173487,14.7918249 C5.90847074,14.8241278 5.74520661,14.7363716 5.68221599,14.58226 L5.30696422,13.6653966 C5.1778873,13.3501744 4.91663777,13.1146325 4.58997491,13.0188007 L3.58441321,12.7240369 C3.42774425,12.6781399 3.32410584,12.5294121 3.33514266,12.3665517 L3.40459385,11.3525105 C3.42693667,11.0238287 3.30391654,10.7041648 3.06689417,10.4754873 L2.35636543,9.79012793 C2.23724857,9.67518352 2.21557872,9.49226847 2.30454623,9.35269312 L2.85490653,8.48926409 C3.03486048,8.20674849 3.07833477,7.86258824 2.97415799,7.54453948 L2.66418495,6.59779594 C2.61236575,6.43991562 2.67952882,6.2676336 2.8242188,6.18620343 L3.68737863,5.70139105 C3.98577648,5.53381987 4.18766947,5.24390153 4.24137301,4.90606726 L4.40194523,3.90117854 C4.42778754,3.73885657 4.56372882,3.61691321 4.72793512,3.6085683 L5.72501731,3.55836424 C6.06190941,3.54153982 6.36945974,3.37531459 6.56825704,3.10248986 L7.15872674,2.29289896 C7.25751971,2.15763066 7.43841584,2.11186825 7.58943179,2.18387675 L8.48866318,2.61242827 C8.63725642,2.68322541 8.80294327,2.72064292 8.96755336,2.72064292 C9.13202885,2.72064292 9.2977157,2.68322541 9.44630894,2.61242827 L10.3455403,2.18387675 C10.4966909,2.11186825 10.677587,2.15763066 10.7762454,2.29289896 L11.3667151,3.10248986 C11.5659162,3.37544919 11.8734665,3.54153982 12.2103586,3.55836424 L13.2071716,3.6085683 C13.3712433,3.61691321 13.5071846,3.73885657 13.5331615,3.90117854 L13.6935991,4.90647105 C13.7477064,5.24430532 13.9495994,5.53381987 14.2475935,5.70139105 L15.1107533,6.18633802 C15.2554433,6.2676336 15.3226064,6.43991562 15.2710564,6.59779594 L14.9637752,7.53605997 C14.8556952,7.86622231 14.9095333,8.23339837 15.1080614,8.51847127 L15.6876289,9.35094338 C15.7848067,9.49051873 15.766771,9.67989436 15.6450968,9.79874203 L14.9484314,10.4787176 Z M17.8249091,9.46115702 L16.7776364,7.95719008 C16.7056364,7.85365289 16.6862975,7.72214876 16.7255702,7.60239669 L17.2685455,5.94431405 C17.3667273,5.71522314 17.2685455,5.43719008 17.0394545,5.30628099 L15.4910083,4.43633058 C15.3840496,4.3762314 15.3104132,4.27046281 15.2909256,4.1493719 L15.0106612,2.39459504 C15.0106612,2.11656198 14.781719,1.93656198 14.5035372,1.93656198 L12.7480165,1.84804959 C12.6269256,1.84195041 12.5150579,1.78140496 12.4435041,1.68352066 L11.4112562,0.268066116 C11.2223306,0.0477520661 10.9578347,0.00907438017 10.7340992,0.0792892562 C10.7163967,0.0847933884 10.699438,0.0920826446 10.6827769,0.100115702 L9.13001653,0.839900826 C9.02067769,0.892115702 8.89363636,0.892115702 8.78429752,0.839900826 L7.23228099,0.100413223 C7.21517355,0.092231405 7.1977686,0.0847933884 7.17947107,0.0791404959 C6.95231405,0.00907438017 6.64452893,0.0479008264 6.50305785,0.268066116 L5.47066116,1.68352066 C5.3992562,1.78140496 5.28738843,1.84195041 5.16629752,1.84804959 L3.41077686,1.93656198 C3.18168595,1.93656198 2.95259504,2.11641322 2.90365289,2.39459504 L2.62338843,4.1493719 C2.60390083,4.27046281 2.53026446,4.3762314 2.42330579,4.43633058 L0.874859504,5.30628099 C0.645768595,5.43719008 0.547586777,5.71522314 0.645768595,5.94431405 L1.19186777,7.61191736 C1.22935537,7.72631405 1.21358678,7.85157025 1.14887603,7.95317355 L0.187586777,9.46115702 C0.0404628099,9.69024793 0.089553719,9.96828099 0.269553719,10.148281 L1.52538843,11.3596364 C1.61077686,11.4420496 1.65540496,11.5579339 1.64722314,11.6763471 L1.52910744,13.4034545 C1.52910744,13.6814876 1.66001653,13.9269421 1.93819835,14.0087603 L3.65042975,14.5105289 C3.76780165,14.5448926 3.86315702,14.6307273 3.90942149,14.7440826 L4.55980165,16.3335868 C4.56813223,16.3539669 4.57765289,16.3741983 4.58955372,16.3929421 C4.72269421,16.6053719 4.94404959,16.7383636 5.21047934,16.6913554 L6.92256198,16.3520331 C7.0402314,16.3286777 7.16221488,16.3591736 7.25504132,16.4350413 L8.61322314,17.5447934 C8.62438017,17.5538678 8.63642975,17.5627934 8.64847934,17.5706777 C8.78563636,17.6606777 8.88084298,17.7056033 9.00624793,17.7056033 C9.1533719,17.7056033 9.28442975,17.6565124 9.36624793,17.5584793 L10.7574545,16.4337025 C10.8504298,16.3587273 10.9718182,16.3286777 11.0890413,16.3521818 L12.7856529,16.6913554 C13.063686,16.7404463 13.3420165,16.5933223 13.4401983,16.3642314 L14.1030744,14.7440826 C14.1493388,14.630876 14.2446942,14.5448926 14.3620661,14.5105289 L16.0742975,14.0087603 C16.3523306,13.9269421 16.4832397,13.6814876 16.4832397,13.4034545 L16.365124,11.6748595 C16.3569421,11.5573388 16.4009752,11.4421983 16.4851736,11.3599339 L17.7267273,10.148281 C17.9229421,9.96828099 17.9556694,9.69024793 17.8249091,9.46115702" id="Fill-34"></path>
                <path d="M12.8574918,7.63123233 L8.35004931,12.1204082 C8.16069661,12.3089455 7.85456824,12.3084562 7.66586792,12.1194297 L5.34144521,9.79125579 C5.15356036,9.60288165 5.15274488,9.29822114 5.33965117,9.10886843 L5.93657701,8.50476643 C6.12527734,8.31394588 6.43303665,8.31296731 6.62304173,8.50248311 L7.86875746,9.7464048 C7.9445964,9.82208065 8.06740656,9.82191755 8.1430824,9.74575242 L11.54083,6.32827043 C11.7282255,6.1395701 12.032886,6.13744988 12.2228911,6.32354069 L12.8545561,6.9421581 C13.0473338,7.13102152 13.0486385,7.44090106 12.8574918,7.63123233" id="Fill-36"></path>
            </g>
        </g>
    </g>
</svg>