<?xml version="1.0" encoding="UTF-8"?>
<svg width="18px" height="21px" viewBox="0 0 18 21" version="1.1" xmlns="http://www.w3.org/2000/svg" xmlns:xlink="http://www.w3.org/1999/xlink">
    <!-- Generator: Sketch 43.1 (39012) - http://www.bohemiancoding.com/sketch -->
    <title>design-48px-glyph-2_ungroup</title>
    <desc>Created with Sketch.</desc>
    <defs></defs>
    <g id="BP-1200" stroke="none" stroke-width="1" fill="none" fill-rule="evenodd">
        <g id="Page-Layout-V6-1200" transform="translate(-16.000000, -385.000000)" fill="#404040">
            <g id="Menu">
                <g id="INSIGHTS-Copy-2" transform="translate(0.000000, 372.000000)">
                    <g id="design-48px-glyph-2_ungroup" transform="translate(16.000000, 13.846154)">
                        <g id="Group">
                            <path d="M17.8371041,11.88876 L15.8139053,9.74556213 C16.3865363,8.94054256 16.6202917,8.01097744 16.6202917,6.91505847 C16.6202917,6.2666935 16.5007611,5.6482436 16.2845165,5.08464111 L17.0615778,5.08464111 C17.4900561,5.08464111 17.8371041,5.46387059 17.8371041,5.9320813 L17.8371041,11.88876 Z M17.8371041,14.0471413 L17.8371041,18.6436841 C17.8371041,19.1118948 17.4900561,19.4911243 17.0615778,19.4911243 L5.42868385,19.4911243 C5.00020559,19.4911243 4.65315758,19.1118948 4.65315758,18.6436841 L4.65315758,15.2539233 L13.1839465,15.2539233 C13.6124247,15.2539233 13.9594728,14.8746939 13.9594728,14.4064831 L13.9594728,11.4345765 C14.2599038,11.3236364 14.5441136,11.1620295 14.8187975,10.928723 L17.8295961,14.0391255 C17.8318891,14.0416312 17.8343948,14.0443059 17.8371041,14.0471413 Z M13.1839465,2.27040635 C12.8903951,2.20179753 12.5859559,2.16568047 12.2739468,2.16568047 C9.87748082,2.16568047 7.92760181,4.29637018 7.92760181,6.91505847 C7.92760181,9.53374676 9.87748082,11.6644365 12.2739468,11.6644365 C12.5962701,11.6644365 12.898174,11.6530765 13.1839465,11.6168871 L13.1839465,13.559043 C13.1839465,14.0272537 12.8368985,14.4064831 12.4084202,14.4064831 L0.775526264,14.4064831 C0.347048003,14.4064831 0,14.0272537 0,13.559043 L0,0.847440185 C0,0.379229483 0.347048003,0 0.775526264,0 L12.4084202,0 C12.8368985,0 13.1839465,0.379229483 13.1839465,0.847440185 L13.1839465,2.27040635 Z" id="Combined-Shape"></path>
                        </g>
                        <ellipse id="Oval" cx="12.3868778" cy="6.93017762" rx="2.97285068" ry="3.24852071"></ellipse>
                    </g>
                </g>
            </g>
        </g>
    </g>
</svg>