<svg xmlns="http://www.w3.org/2000/svg" xmlns:xlink="http://www.w3.org/1999/xlink" x="0px" y="0px" width="48px" height="48px" viewBox="0 0 48 48"><g  transform="translate(0, 0)">
<path fill="none" stroke="#404040" stroke-width="4" stroke-linecap="square" stroke-miterlimit="10" d="M46,28v-8h-4.11&#10;&#9;c-1.369,0-2.591-0.831-3.112-2.097c-0.574-1.392-0.218-2.805,0.701-3.724l2.907-2.907l-5.657-5.657l-2.907,2.907&#10;&#9;c-0.919,0.919-2.332,1.275-3.724,0.701C28.831,8.701,28,7.48,28,6.11V2h-8v4.11c0,1.369-0.831,2.591-2.097,3.112&#10;&#9;c-1.392,0.574-2.805,0.218-3.724-0.701l-2.907-2.907l-5.657,5.657l2.907,2.907c0.919,0.919,1.275,2.332,0.701,3.724&#10;&#9;C8.701,19.169,7.48,20,6.11,20H2v8h4.11c1.293,0,2.55,0.743,3.129,2.138c0.525,1.265,0.251,2.714-0.718,3.683l-2.907,2.907&#10;&#9;l5.657,5.657l2.907-2.907c0.969-0.969,2.418-1.243,3.683-0.718C19.252,39.338,20,40.592,20,41.89V46h8v-4.11&#10;&#9;c0-1.293,0.743-2.55,2.138-3.129c1.265-0.525,2.714-0.251,3.683,0.718l2.907,2.907l5.657-5.657l-2.907-2.907&#10;&#9;c-0.919-0.919-1.275-2.332-0.701-3.724C39.299,28.831,40.521,28,41.89,28H46z" stroke-linejoin="miter"/>
<circle data-color="color-2" fill="none" stroke="#404040" stroke-width="4" stroke-linecap="square" stroke-miterlimit="10" cx="24" cy="24" r="6" stroke-linejoin="miter"/>
</g></svg>