<svg width="18px" height="18px" viewBox="0 0 18 18" version="1.1" xmlns="http://www.w3.org/2000/svg" xmlns:xlink="http://www.w3.org/1999/xlink">
  <g id="Symbols" stroke="none" stroke-width="1" fill="none" fill-rule="evenodd">
    <g id="Icon-/-Menu-/-Settings" transform="translate(-2.000000, -2.000000)" fill-rule="nonzero">
      <g id="ui-color-1_preferences-circle" transform="translate(2.400000, 2.000000)">
        <g id="Group">
          <path
            d="M16.8286357,3.52227259 L4.69636345,3.52227259 L4.69636345,1.9568181 L16.8286357,1.9568181 C17.044778,1.9568181 17.2199993,2.13203942 17.2199993,2.34818172 L17.2199993,3.13090897 C17.2199993,3.34705518 17.044778,3.52227259 16.8286357,3.52227259 Z"
            id="Shape"
            fill="#B3B3B3"></path>
          <rect id="Rectangle-path" fill="#898989" x="7.43590879" y="1.9568181" width="1.56545448" height="1.56545448"></rect>
          <path
            d="M16.8286357,16.0459085 L4.69636345,16.0459085 L4.69636345,14.480454 L16.8286357,14.480454 C17.044778,14.480454 17.2199993,14.6556753 17.2199993,14.8718176 L17.2199993,15.6545448 C17.2199993,15.8706871 17.044778,16.0459085 16.8286357,16.0459085 Z"
            id="Shape"
            fill="#B3B3B3"></path>
          <rect id="Rectangle-path" fill="#898989" x="7.43590879" y="14.480454" width="1.56545448" height="1.56545448"></rect>
          <path
            d="M16.8286357,9.78409052 L11.7409086,9.78409052 L11.7409086,8.21863604 L16.8286357,8.21863604 C17.044778,8.21863604 17.2199993,8.39385736 17.2199993,8.60999966 L17.2199993,9.3927269 C17.2199993,9.6088692 17.044778,9.78409052 16.8286357,9.78409052 Z"
            id="Shape"
            fill="#B3B3B3"></path>
          <rect id="Rectangle-path" fill="#898989" x="14.480454" y="8.21863604" width="1.56545448" height="1.56545448"></rect>
          <path d="M4.69636345,3.52227259 L0.391363621,3.52227259 C0.17522132,3.52227259 0,3.34705518 0,3.13090897 L0,2.34818172 C0,2.13203942 0.17522132,1.9568181 0.391363621,1.9568181 L4.69636345,1.9568181 L4.69636345,3.52227259 Z" id="Shape" fill="#43A6DD"></path>
          <path
            d="M11.7409086,9.78409052 L0.391363621,9.78409052 C0.17522132,9.78409052 0,9.6088692 0,9.3927269 L0,8.60999966 C0,8.39385736 0.17522132,8.21863604 0.391363621,8.21863604 L11.7409086,8.21863604 L11.7409086,9.78409052 Z"
            id="Shape"
            fill="#43A6DD"></path>
          <path d="M4.69636345,16.0459085 L0.391363621,16.0459085 C0.17522132,16.0459085 0,15.8706871 0,15.6545448 L0,14.8718176 C0,14.6556753 0.17522132,14.480454 0.391363621,14.480454 L4.69636345,14.480454 L4.69636345,16.0459085 Z" id="Shape" fill="#43A6DD"></path>
          <ellipse id="Oval" fill="#E6E6E6" cx="5.08772707" cy="2.73954535" rx="2.73954535" ry="2.73954535"></ellipse>
          <ellipse id="Oval" fill="#E6E6E6" cx="12.1322722" cy="9.00136328" rx="2.73954535" ry="2.73954535"></ellipse>
          <ellipse id="Oval" fill="#E6E6E6" cx="5.08772707" cy="15.2631812" rx="2.73954535" ry="2.73954535"></ellipse>
        </g>
      </g>
    </g>
  </g>
</svg>
