<?xml version="1.0" encoding="UTF-8"?>
<svg width="18px" height="21px" viewBox="0 0 18 21" version="1.1" xmlns="http://www.w3.org/2000/svg" xmlns:xlink="http://www.w3.org/1999/xlink">
    <!-- Generator: Sketch 43.1 (39012) - http://www.bohemiancoding.com/sketch -->
    <title>Combined Shape</title>
    <desc>Created with Sketch.</desc>
    <defs></defs>
    <g id="BP-1200" stroke="none" stroke-width="1" fill="none" fill-rule="evenodd">
        <g id="Page-Layout-V6-1200" transform="translate(-16.000000, -489.000000)" fill-rule="nonzero" fill="#404040">
            <g id="Menu">
                <g id="INSIGHTS-Copy-4" transform="translate(0.000000, 476.000000)">
                    <g id="ui-48px-glyph-1_preferences-circle" transform="translate(16.000000, 13.846154)">
                        <g id="Group">
                            <path d="M17.4493409,3.41094685 L9.30631517,3.41094685 C9.09226992,3.41094685 8.91855204,3.16839064 8.91855204,2.86952673 C8.91855204,2.57066283 9.09226992,2.32810661 9.30631517,2.32810661 L17.4493409,2.32810661 C17.6633862,2.32810661 17.8371041,2.57066283 17.8371041,2.86952673 C17.8371041,3.16839064 17.6633862,3.41094685 17.4493409,3.41094685 Z M5.04092072,0 C6.54001298,0 7.75526264,1.32793877 7.75526264,2.96604065 C7.75526264,4.60414253 6.54001298,5.9320813 5.04092072,5.9320813 C3.67405568,5.9320813 2.54605272,4.82659557 2.35759984,3.38976074 L0.387763132,3.38976074 C0.173717883,3.38976074 0,3.19993414 0,2.96604065 C0,2.73214716 0.173717883,2.54232056 0.387763132,2.54232056 L2.35759984,2.54232056 C2.54605272,1.10548572 3.67366791,0 5.04092072,0 Z M17.4493409,17.076391 L9.30631517,17.076391 C9.09226992,17.076391 8.91855204,16.8338348 8.91855204,16.5349709 C8.91855204,16.236107 9.09226992,15.9935508 9.30631517,15.9935508 L17.4493409,15.9935508 C17.6633862,15.9935508 17.8371041,16.236107 17.8371041,16.5349709 C17.8371041,16.8338348 17.6633862,17.076391 17.4493409,17.076391 Z M5.04092072,13.559043 C6.54001298,13.559043 7.75526264,14.8869817 7.75526264,16.5250836 C7.75526264,18.1631855 6.54001298,19.4911243 5.04092072,19.4911243 C3.67405568,19.4911243 2.54605272,18.3856385 2.35759984,16.9488037 L0.387763132,16.9488037 C0.173717883,16.9488037 0,16.7589771 0,16.5250836 C0,16.2911901 0.173717883,16.1013635 0.387763132,16.1013635 L2.35759984,16.1013635 C2.54605272,14.6645287 3.67366791,13.559043 5.04092072,13.559043 Z M0.387763132,10.2978109 C0.173717883,10.2978109 0,10.0552547 0,9.75639078 C0,9.45752688 0.173717883,9.21497066 0.387763132,9.21497066 L8.5307889,9.21497066 C8.74483415,9.21497066 8.91855204,9.45752688 8.91855204,9.75639078 C8.91855204,10.0552547 8.74483415,10.2978109 8.5307889,10.2978109 L0.387763132,10.2978109 Z M12.7961834,6.77952148 C14.1634362,6.77952148 15.2910513,7.8850072 15.4795042,9.32184204 L17.4493409,9.32184204 C17.6633862,9.32184204 17.8371041,9.51166864 17.8371041,9.74556213 C17.8371041,9.97945562 17.6633862,10.1692822 17.4493409,10.1692822 L15.4795042,10.1692822 C15.2910513,11.6061171 14.1630484,12.7116028 12.7961834,12.7116028 C11.2970911,12.7116028 10.0818414,11.383664 10.0818414,9.74556213 C10.0818414,8.10746025 11.2970911,6.77952148 12.7961834,6.77952148 Z" id="Combined-Shape"></path>
                        </g>
                    </g>
                </g>
            </g>
        </g>
    </g>
</svg>