<svg width="18px" height="18px" viewBox="0 0 18 18" version="1.1" xmlns="http://www.w3.org/2000/svg" xmlns:xlink="http://www.w3.org/1999/xlink">
  <g id="Symbols" stroke="none" stroke-width="1" fill="none" fill-rule="evenodd">
    <g id="Icon-/-Menu-/-Settings-Idle" transform="translate(-2.000000, -2.000000)" fill-rule="nonzero" fill="#FFFFFF">
      <g id="ui-48px-glyph-1_preferences-circle" transform="translate(2.000000, 2.000000)">
        <g id="Group">
          <path
            d="M17.6086957,3.1500001 L9.39130435,3.1500001 C9.17530435,3.1500001 9,2.9260001 9,2.6500001 C9,2.3740001 9.17530435,2.1500001 9.39130435,2.1500001 L17.6086957,2.1500001 C17.8246957,2.1500001 18,2.3740001 18,2.6500001 C18,2.9260001 17.8246957,3.1500001 17.6086957,3.1500001 Z"
            id="Shape"></path>
          <path
            d="M5.08695652,0 C3.70721739,0 2.56930435,1.02091304 2.37913043,2.34782609 L0.391304348,2.34782609 C0.175304348,2.34782609 0,2.52313043 0,2.73913043 C0,2.95513043 0.175304348,3.13043478 0.391304348,3.13043478 L2.37913043,3.13043478 C2.56930435,4.45734783 3.7076087,5.47826087 5.08695652,5.47826087 C6.59973913,5.47826087 7.82608696,4.25191304 7.82608696,2.73913043 C7.82608696,1.22634783 6.59973913,0 5.08695652,0 Z"
            id="Shape"></path>
          <path
            d="M17.6086957,15.7700005 L9.39130435,15.7700005 C9.17530435,15.7700005 9,15.5460005 9,15.2700005 C9,14.9940005 9.17530435,14.7700005 9.39130435,14.7700005 L17.6086957,14.7700005 C17.8246957,14.7700005 18,14.9940005 18,15.2700005 C18,15.5460005 17.8246957,15.7700005 17.6086957,15.7700005 Z"
            id="Shape"></path>
          <path
            d="M5.08695652,12.5217391 C3.70721739,12.5217391 2.56930435,13.5426522 2.37913043,14.8695652 L0.391304348,14.8695652 C0.175304348,14.8695652 0,15.0448696 0,15.2608696 C0,15.4768696 0.175304348,15.6521739 0.391304348,15.6521739 L2.37913043,15.6521739 C2.56930435,16.979087 3.7076087,18 5.08695652,18 C6.59973913,18 7.82608696,16.7736522 7.82608696,15.2608696 C7.82608696,13.748087 6.59973913,12.5217391 5.08695652,12.5217391 Z"
            id="Shape"></path>
          <path
            d="M0.391304348,9.51000023 L8.60869565,9.51000023 C8.82469565,9.51000023 9,9.28600023 9,9.01000023 C9,8.73400023 8.82469565,8.51000023 8.60869565,8.51000023 L0.391304348,8.51000023 C0.175304348,8.51000023 0,8.73400023 0,9.01000023 C0,9.28600023 0.175304348,9.51000023 0.391304348,9.51000023 Z"
            id="Shape"></path>
          <path
            d="M12.9130435,6.26086957 C14.2927826,6.26086957 15.4306957,7.28178261 15.6208696,8.60869565 L17.6086957,8.60869565 C17.8246957,8.60869565 18,8.784 18,9 C18,9.216 17.8246957,9.39130435 17.6086957,9.39130435 L15.6208696,9.39130435 C15.4306957,10.7182174 14.2923913,11.7391304 12.9130435,11.7391304 C11.4002609,11.7391304 10.173913,10.5127826 10.173913,9 C10.173913,7.48721739 11.4002609,6.26086957 12.9130435,6.26086957 Z"
            id="Shape"></path>
        </g>
      </g>
    </g>
  </g>
</svg>
