<?xml version="1.0" encoding="UTF-8"?>
<svg width="23px" height="14px" viewBox="0 0 23 14" version="1.1" xmlns="http://www.w3.org/2000/svg" xmlns:xlink="http://www.w3.org/1999/xlink">
    <!-- Generator: Sketch 44.1 (41455) - http://www.bohemiancoding.com/sketch -->
    <title>arrows-48px-glyph-2_move-up</title>
    <desc>Created with Sketch.</desc>
    <defs></defs>
    <g id="Ready" stroke="none" stroke-width="1" fill="none" fill-rule="evenodd">
        <g id="Mailing-lists" transform="translate(-540.000000, -374.000000)" fill-rule="nonzero">
            <g id="Page" transform="translate(20.000000, 20.000000)">
                <g id="Container" transform="translate(232.166667, 70.000000)">
                    <g transform="translate(20.000000, 136.000000)" id="Table">
                        <g transform="translate(0.000000, 128.000000)">
                            <g id="head">
                                <g id="td2" transform="translate(267.833333, 20.000000)">
                                    <g id="arrows-48px-glyph-2_move-up">
                                        <path d="M4.71319766,0.133256099 C4.57349071,-0.0444186996 4.2734341,-0.0444186996 4.13372716,0.133256099 L0.0789081092,5.29393489 C-0.0084548103,5.40488948 -0.0246740865,5.55565502 0.037254059,5.68282889 C0.0991822044,5.81000276 0.227461934,5.89036191 0.368643361,5.89036191 L3.68622258,5.89036191 L3.68622258,13.6313801 C3.68622258,13.8348583 3.8513643,14 4.05484249,14 L4.79208232,14 C4.99556051,14 5.16070223,13.8348583 5.16070223,13.6313801 L5.16070223,5.89036191 L8.47828146,5.89036191 C8.61946288,5.89036191 8.74811123,5.80963414 8.80967076,5.68282889 C8.87123028,5.55602364 8.85537963,5.40488948 8.76801671,5.29393489 L4.71319766,0.133256099 Z" id="Shape" fill="#444444"></path>
                                        <path d="M18.7131977,0.133256099 C18.5734907,-0.0444186996 18.2734341,-0.0444186996 18.1337272,0.133256099 L14.0789081,5.29393489 C13.9915452,5.40488948 13.9753259,5.55565502 14.0372541,5.68282889 C14.0991822,5.81000276 14.2274619,5.89036191 14.3686434,5.89036191 L17.6862226,5.89036191 L17.6862226,13.6313801 C17.6862226,13.8348583 17.8513643,14 18.0548425,14 L18.7920823,14 C18.9955605,14 19.1607022,13.8348583 19.1607022,13.6313801 L19.1607022,5.89036191 L22.4782815,5.89036191 C22.6194629,5.89036191 22.7481112,5.80963414 22.8096708,5.68282889 C22.8712303,5.55602364 22.8553796,5.40488948 22.7680167,5.29393489 L18.7131977,0.133256099 Z" id="Shape-Copy-2" fill="#E4E7EA" transform="translate(18.423383, 7.000000) rotate(-180.000000) translate(-18.423383, -7.000000) "></path>
                                    </g>
                                </g>
                            </g>
                        </g>
                    </g>
                </g>
            </g>
        </g>
    </g>
</svg>