<svg width="18px" height="18px" viewBox="0 0 18 18" version="1.1" xmlns="http://www.w3.org/2000/svg" xmlns:xlink="http://www.w3.org/1999/xlink">
  <g id="Symbols" stroke="none" stroke-width="1" fill="none" fill-rule="evenodd">
    <g id="Icon-/-Menu-/-Sourcing" transform="translate(-2.000000, -2.000000)" fill-rule="nonzero">
      <g id="design-color-2_selection" transform="translate(2.000000, 2.000000)">
        <g id="Group">
          <path
            d="M4.30434783,4.69565217 L0.391304348,4.69565217 C0.175304348,4.69565217 0,4.52034783 0,4.30434783 L0,0.391304348 C0,0.175304348 0.175304348,0 0.391304348,0 L4.30434783,0 C4.52034783,0 4.69565217,0.175304348 4.69565217,0.391304348 L4.69565217,4.30434783 C4.69565217,4.52034783 4.52034783,4.69565217 4.30434783,4.69565217 Z"
            id="Shape"
            fill="#43A6DD"></path>
          <path
            d="M10.9565217,4.69565217 L7.04347826,4.69565217 C6.82747826,4.69565217 6.65217391,4.52034783 6.65217391,4.30434783 L6.65217391,0.391304348 C6.65217391,0.175304348 6.82747826,0 7.04347826,0 L10.9565217,0 C11.1725217,0 11.3478261,0.175304348 11.3478261,0.391304348 L11.3478261,4.30434783 C11.3478261,4.52034783 11.1725217,4.69565217 10.9565217,4.69565217 Z"
            id="Shape"
            fill="#43A6DD"></path>
          <path
            d="M10.9565217,11.3478261 L7.04347826,11.3478261 C6.82747826,11.3478261 6.65217391,11.1725217 6.65217391,10.9565217 L6.65217391,7.04347826 C6.65217391,6.82747826 6.82747826,6.65217391 7.04347826,6.65217391 L10.9565217,6.65217391 C11.1725217,6.65217391 11.3478261,6.82747826 11.3478261,7.04347826 L11.3478261,10.9565217 C11.3478261,11.1725217 11.1725217,11.3478261 10.9565217,11.3478261 Z"
            id="Shape"
            fill="#43A6DD"></path>
          <path
            d="M10.173913,17.2173913 L7.82608696,17.2173913 C7.61008696,17.2173913 7.43478261,17.042087 7.43478261,16.826087 L7.43478261,14.4782609 C7.43478261,14.2622609 7.61008696,14.0869565 7.82608696,14.0869565 L10.173913,14.0869565 C10.389913,14.0869565 10.5652174,14.2622609 10.5652174,14.4782609 L10.5652174,16.826087 C10.5652174,17.042087 10.389913,17.2173913 10.173913,17.2173913 Z"
            id="Shape"
            fill="#B3B3B3"></path>
          <path
            d="M16.826087,17.2173913 L14.4782609,17.2173913 C14.2622609,17.2173913 14.0869565,17.042087 14.0869565,16.826087 L14.0869565,14.4782609 C14.0869565,14.2622609 14.2622609,14.0869565 14.4782609,14.0869565 L16.826087,14.0869565 C17.042087,14.0869565 17.2173913,14.2622609 17.2173913,14.4782609 L17.2173913,16.826087 C17.2173913,17.042087 17.042087,17.2173913 16.826087,17.2173913 Z"
            id="Shape"
            fill="#B3B3B3"></path>
          <path
            d="M16.826087,10.5652174 L14.4782609,10.5652174 C14.2622609,10.5652174 14.0869565,10.389913 14.0869565,10.173913 L14.0869565,7.82608696 C14.0869565,7.61008696 14.2622609,7.43478261 14.4782609,7.43478261 L16.826087,7.43478261 C17.042087,7.43478261 17.2173913,7.61008696 17.2173913,7.82608696 L17.2173913,10.173913 C17.2173913,10.389913 17.042087,10.5652174 16.826087,10.5652174 Z"
            id="Shape"
            fill="#B3B3B3"></path>
          <path
            d="M17.6086957,4.69565217 L13.6956522,4.69565217 C13.4796522,4.69565217 13.3043478,4.52034783 13.3043478,4.30434783 L13.3043478,0.391304348 C13.3043478,0.175304348 13.4796522,0 13.6956522,0 L17.6086957,0 C17.8246957,0 18,0.175304348 18,0.391304348 L18,4.30434783 C18,4.52034783 17.8246957,4.69565217 17.6086957,4.69565217 Z"
            id="Shape"
            fill="#43A6DD"></path>
          <path
            d="M4.30434783,11.3478261 L0.391304348,11.3478261 C0.175304348,11.3478261 0,11.1725217 0,10.9565217 L0,7.04347826 C0,6.82747826 0.175304348,6.65217391 0.391304348,6.65217391 L4.30434783,6.65217391 C4.52034783,6.65217391 4.69565217,6.82747826 4.69565217,7.04347826 L4.69565217,10.9565217 C4.69565217,11.1725217 4.52034783,11.3478261 4.30434783,11.3478261 Z"
            id="Shape"
            fill="#43A6DD"></path>
          <path
            d="M4.30434783,18 L0.391304348,18 C0.175304348,18 0,17.8246957 0,17.6086957 L0,13.6956522 C0,13.4796522 0.175304348,13.3043478 0.391304348,13.3043478 L4.30434783,13.3043478 C4.52034783,13.3043478 4.69565217,13.4796522 4.69565217,13.6956522 L4.69565217,17.6086957 C4.69565217,17.8246957 4.52034783,18 4.30434783,18 Z"
            id="Shape"
            fill="#43A6DD"></path>
        </g>
      </g>
    </g>
  </g>
</svg>
