<?xml version="1.0" encoding="UTF-8"?>
<svg width="19px" height="21px" viewBox="0 0 19 21" version="1.1" xmlns="http://www.w3.org/2000/svg" xmlns:xlink="http://www.w3.org/1999/xlink">
    <!-- Generator: Sketch 43.1 (39012) - http://www.bohemiancoding.com/sketch -->
    <title>Combined Shape</title>
    <desc>Created with Sketch.</desc>
    <defs></defs>
    <g id="BP-1200" stroke="none" stroke-width="1" fill="none" fill-rule="evenodd">
        <g id="Page-Layout-V6-1200" transform="translate(-15.000000, -333.000000)" fill-rule="nonzero" fill="#404040">
            <g id="Menu">
                <g id="INSIGHTS-Copy" transform="translate(0.000000, 320.000000)">
                    <g id="design-48px-glyph_app" transform="translate(15.855204, 13.792899)">
                        <g id="design-48px-glyph-2_selection-(1)">
                            <g id="Group">
                                <path d="M4.26539445,5.08464111 L0.387763132,5.08464111 C0.173717883,5.08464111 0,4.89481451 0,4.66092102 L0,0.423720093 C0,0.189826601 0.173717883,0 0.387763132,0 L4.26539445,0 C4.4794397,0 4.65315758,0.189826601 4.65315758,0.423720093 L4.65315758,4.66092102 C4.65315758,4.89481451 4.4794397,5.08464111 4.26539445,5.08464111 Z M10.8573677,5.08464111 L6.97973638,5.08464111 C6.76569113,5.08464111 6.59197324,4.89481451 6.59197324,4.66092102 L6.59197324,0.423720093 C6.59197324,0.189826601 6.76569113,0 6.97973638,0 L10.8573677,0 C11.0714129,0 11.2451308,0.189826601 11.2451308,0.423720093 L11.2451308,4.66092102 C11.2451308,4.89481451 11.0714129,5.08464111 10.8573677,5.08464111 Z M10.8573677,12.2878827 L6.97973638,12.2878827 C6.76569113,12.2878827 6.59197324,12.0980561 6.59197324,11.8641626 L6.59197324,7.62696167 C6.59197324,7.39306818 6.76569113,7.20324157 6.97973638,7.20324157 L10.8573677,7.20324157 C11.0714129,7.20324157 11.2451308,7.39306818 11.2451308,7.62696167 L11.2451308,11.8641626 C11.2451308,12.0980561 11.0714129,12.2878827 10.8573677,12.2878827 Z M10.0818414,18.6436841 L7.75526264,18.6436841 C7.54121739,18.6436841 7.36749951,18.4538575 7.36749951,18.219964 L7.36749951,15.6776434 C7.36749951,15.4437499 7.54121739,15.2539233 7.75526264,15.2539233 L10.0818414,15.2539233 C10.2958867,15.2539233 10.4696046,15.4437499 10.4696046,15.6776434 L10.4696046,18.219964 C10.4696046,18.4538575 10.2958867,18.6436841 10.0818414,18.6436841 Z M16.6738147,18.6436841 L14.3472359,18.6436841 C14.1331906,18.6436841 13.9594728,18.4538575 13.9594728,18.219964 L13.9594728,15.6776434 C13.9594728,15.4437499 14.1331906,15.2539233 14.3472359,15.2539233 L16.6738147,15.2539233 C16.8878599,15.2539233 17.0615778,15.4437499 17.0615778,15.6776434 L17.0615778,18.219964 C17.0615778,18.4538575 16.8878599,18.6436841 16.6738147,18.6436841 Z M16.6738147,11.4404425 L14.3472359,11.4404425 C14.1331906,11.4404425 13.9594728,11.2506159 13.9594728,11.0167224 L13.9594728,8.47440185 C13.9594728,8.24050836 14.1331906,8.05068176 14.3472359,8.05068176 L16.6738147,8.05068176 C16.8878599,8.05068176 17.0615778,8.24050836 17.0615778,8.47440185 L17.0615778,11.0167224 C17.0615778,11.2506159 16.8878599,11.4404425 16.6738147,11.4404425 Z M17.4493409,5.08464111 L13.5717096,5.08464111 C13.3576644,5.08464111 13.1839465,4.89481451 13.1839465,4.66092102 L13.1839465,0.423720093 C13.1839465,0.189826601 13.3576644,0 13.5717096,0 L17.4493409,0 C17.6633862,0 17.8371041,0.189826601 17.8371041,0.423720093 L17.8371041,4.66092102 C17.8371041,4.89481451 17.6633862,5.08464111 17.4493409,5.08464111 Z M4.26539445,12.2878827 L0.387763132,12.2878827 C0.173717883,12.2878827 0,12.0980561 0,11.8641626 L0,7.62696167 C0,7.39306818 0.173717883,7.20324157 0.387763132,7.20324157 L4.26539445,7.20324157 C4.4794397,7.20324157 4.65315758,7.39306818 4.65315758,7.62696167 L4.65315758,11.8641626 C4.65315758,12.0980561 4.4794397,12.2878827 4.26539445,12.2878827 Z M4.26539445,19.4911243 L0.387763132,19.4911243 C0.173717883,19.4911243 0,19.3012977 0,19.0674042 L0,14.8302032 C0,14.5963098 0.173717883,14.4064831 0.387763132,14.4064831 L4.26539445,14.4064831 C4.4794397,14.4064831 4.65315758,14.5963098 4.65315758,14.8302032 L4.65315758,19.0674042 C4.65315758,19.3012977 4.4794397,19.4911243 4.26539445,19.4911243 Z" id="Combined-Shape"></path>
                            </g>
                        </g>
                    </g>
                </g>
            </g>
        </g>
    </g>
</svg>