<?xml version="1.0" encoding="utf-8"?>
<!-- Generator: Adobe Illustrator 22.0.0, SVG Export Plug-In . SVG Version: 6.00 Build 0)  -->
<svg version="1.1" id="Layer_1" xmlns="http://www.w3.org/2000/svg" xmlns:xlink="http://www.w3.org/1999/xlink" x="0px" y="0px"
	 viewBox="0 0 20 20" style="enable-background:new 0 0 20 20;" xml:space="preserve">
<style type="text/css">
	.st0{fill:#606060;}
</style>
<g>
	<path class="st0" d="M18.5,15.5l-3.3-1.4c-0.1,0-0.2-0.1-0.2-0.3l2.2,0c0,0,0.9,0.1,1.7-0.2c0.3-0.1,0.5-0.3,0.6-0.6
		c0.1-0.3,0-0.6-0.1-0.8c-0.6-0.9-2.1-3.2-2.1-5.5c0,0-0.1-4-4.1-4.1c-0.6,0-1.1,0.1-1.6,0.3C11.4,2.6,11.2,2.3,11,2
		c-0.7-0.8-1.8-1.2-3.3-1.2C6.2,0.8,5,1.2,4.4,2C3.6,2.9,3.6,4,3.7,4.2V6C3.5,6.2,3.3,6.5,3.3,6.8v1.3c0,0.4,0.2,0.8,0.5,1
		c0.3,1.2,0.9,2.1,1.2,2.4v1.1c0,0.3-0.2,0.6-0.5,0.8l-3,1.6c-1,0.5-1.6,1.5-1.6,2.6v1.4h20v-1.2C20,16.9,19.4,16,18.5,15.5
		L18.5,15.5z M14.7,18.5h-14v-0.7c0-0.9,0.5-1.6,1.2-2.1l3-1.6c0.5-0.3,0.8-0.8,0.8-1.4v-1.3l-0.1-0.1c0,0-0.8-1-1.1-2.4l0-0.1
		L4.3,8.7C4.1,8.6,4,8.4,4,8.2V6.8c0-0.2,0.1-0.4,0.2-0.5l0.1-0.1V4.2l0,0c0,0-0.1-0.9,0.5-1.7c0.6-0.6,1.5-0.9,2.8-0.9
		c1.3,0,2.2,0.3,2.8,0.9c0.3,0.3,0.4,0.7,0.5,1c0,0,0,0,0,0.1c0,0,0,0,0,0.1c0,0,0,0.1,0,0.1c0,0,0,0,0,0.1c0,0,0,0.1,0,0.1
		c0,0,0,0,0,0c0,0,0,0.1,0,0.1c0,0,0,0,0,0c0,0,0,0.1,0,0.1v0c0,0.1,0,0.1,0,0.1l0,2.1l0.1,0.1c0.1,0.1,0.2,0.3,0.2,0.5v1.3
		c0,0.3-0.2,0.5-0.5,0.6l-0.2,0.1L10.6,9c-0.2,0.7-0.5,1.3-0.9,1.9c-0.1,0.1-0.2,0.3-0.3,0.4l-0.1,0.1v1.4c0,0.1,0,0.2,0,0.2
		c0,0,0,0,0,0.1c0,0.1,0,0.1,0.1,0.2c0,0,0,0,0,0c0,0.1,0.1,0.1,0.1,0.2c0,0,0,0,0,0c0,0.1,0.1,0.2,0.2,0.2l0.1,0.1h0
		c0.1,0.1,0.2,0.2,0.4,0.3l3.2,1.6c0.8,0.4,1.3,1.2,1.3,2.1V18.5z M19.3,18.5h-4v-0.7c0-1.1-0.6-2.2-1.7-2.7L11.4,14
		c0.1-0.1,0.1-0.3,0-0.4c-0.1-0.2-0.3-0.4-0.5-0.4h-0.7c0,0,0-0.1,0-0.1c0,0,0-0.1,0-0.1c0-0.1,0-0.2,0-0.2v-1.1
		c0.1-0.1,0.2-0.2,0.2-0.3c0.4-0.6,0.7-1.2,1-1.9C11.7,9.2,12,8.7,12,8.2V6.8c0-0.3-0.1-0.6-0.3-0.9V4.2c0-0.1,0-0.4,0-0.7
		c0.4-0.2,0.9-0.3,1.4-0.3c3.3,0,3.4,3.3,3.4,3.4c0.1,2.5,1.6,5,2.2,5.9c0.1,0.1,0.1,0.2,0,0.3c0,0.1-0.1,0.2-0.2,0.2
		c-0.6,0.2-1.3,0.2-1.4,0.2h-2.3c-0.2,0-0.4,0.1-0.5,0.3c-0.1,0.2-0.1,0.4,0,0.6c0.1,0.2,0.3,0.5,0.6,0.6l3.3,1.4
		c0.7,0.3,1.1,1,1.1,1.8V18.5z M19.3,18.5"/>
</g>
</svg>
