<?xml version="1.0" encoding="UTF-8"?>
<svg width="38px" height="31px" viewBox="0 0 38 31" version="1.1" xmlns="http://www.w3.org/2000/svg" xmlns:xlink="http://www.w3.org/1999/xlink">
    <!-- Generator: Sketch 43.2 (39069) - http://www.bohemiancoding.com/sketch -->
    <title>United_States_Postal_Service_Logo Copy</title>
    <desc>Created with Sketch.</desc>
    <defs></defs>
    <g id="BP-1200-/-1024" stroke="none" stroke-width="1" fill="none" fill-rule="evenodd">
        <g id="Shopping-cart-Alternative" transform="translate(-336.000000, -1138.000000)" fill-rule="nonzero">
            <g id="Page" transform="translate(20.000000, 20.000000)">
                <g id="Container" transform="translate(233.166667, 70.000000)">
                    <g id="Header" transform="translate(20.000000, 20.000000)">
                        <g id="Delivery" transform="translate(0.000000, 732.000000)">
                            <g id="USPS" transform="translate(20.000000, 294.804335)">
                                <g id="uspsPic" transform="translate(41.833333, 0.172232)">
                                    <g id="United_States_Postal_Service_Logo-Copy" transform="translate(1.000000, 0.000000)">
                                        <g id="Group" transform="translate(19.348089, 16.416889) scale(-1, 1) rotate(-180.000000) translate(-19.348089, -16.416889) translate(0.348089, 0.916889)">
                                            <path d="M1.69769939,0.0093244963 C1.69769939,0.0093244963 1.5478524,0.714396284 1.32434655,1.76631602 C1.19059831,2.37329411 1.59997866,2.64822688 2.28183246,2.64822688 C2.96629711,2.64822688 3.48651075,2.3732708 3.61677397,1.76631602 C3.99646746,0.00923125133 3.6127318,1.76640708 3.99649077,0.0093244963 L3.4241765,0.0093244963 C3.4241765,0.0093244963 3.1350938,1.36102679 3.08497463,1.59239085 C2.99872304,1.99772671 2.78491234,2.23981394 2.36561305,2.23981394 C1.92764146,2.23631726 1.83786988,1.99392698 1.92761815,1.59239085 C1.91741948,1.63289414 2.26817207,0.0093244963 2.26817207,0.0093244963 L1.69767607,0.0093244963 L1.69769939,0.0093244963 Z M4.54470122,0.0093244963 L3.9946958,2.60130135 L4.50143555,2.60130135 L4.90164293,0.677657768 L4.91302581,0.677657768 L5.5531758,2.60130135 L6.27253737,2.60130135 L6.82163365,0.0093244963 L6.31580304,0.0093244963 L5.9073901,1.9543678 L5.90055991,1.9543678 L5.2854462,0.0093244963 L4.5446849,0.0093244963 L4.54470122,0.0093244963 Z M7.37025671,0.0093244963 L6.82162666,2.60130135 L7.39256556,2.60130135 L7.94210475,0.0093244963 L7.37025671,0.0093244963 L7.37025671,0.0093244963 Z M8.32501519,0.0093244963 L8.23441139,0.421816901 L9.04074721,0.421816901 L8.57771604,2.60132467 L9.14912117,2.60132467 L9.61170943,0.421816901 L10.417579,0.421816901 L10.5045416,0.0093244963 L8.32503384,0.0093244963 L8.32501519,0.0093244963 Z M10.8883192,0.0093244963 L10.3351435,2.60130135 L12.2137031,2.60130135 L12.3011203,2.18880895 L10.9966932,2.18880895 L11.1451205,1.48035703 L12.2833618,1.48035703 L12.3657693,1.09744659 L11.227971,1.09744659 L11.3718456,0.42179359 L12.6776481,0.42179359 L12.7636992,0.00930118506 L10.8883332,0.00930118506 L10.8883192,0.0093244963 Z M13.1802804,0.0093244963 L12.6316504,2.60130135 L13.8022243,2.60130135 C14.5254556,2.60130135 15.2193846,2.12444661 15.3752668,1.19169394 C15.486578,0.530237482 15.2226878,0.00927787381 14.4382715,0.00927787381 L13.1802804,0.00927787381 L13.1802804,0.0093244963 Z M17.4770083,0.0093244963 C16.8053648,0.0093244963 16.4714546,0.247798489 16.4216385,0.620778341 C16.3385922,1.24174317 17.4373093,1.61076011 17.3545544,1.9825744 C17.303561,2.19995172 17.0363792,2.18882527 16.8195847,2.18882527 L16.1152356,2.18882527 L16.0278184,2.60131767 L16.9028991,2.60131767 C17.6188339,2.60131767 17.9295494,2.34447442 17.986965,1.98986383 C18.0912828,1.35374669 16.9751406,1.02524469 17.0622547,0.61349824 C17.090811,0.486743369 17.2312239,0.421816901 17.5421399,0.421816901 L18.1531508,0.421816901 L18.2428455,0.0093244963 L17.4770246,0.0093244963 L17.4770083,0.0093244963 Z M18.5364809,0.0093244963 L18.4467862,0.421816901 L19.2526558,0.421816901 L18.7900676,2.60132467 L19.3610065,2.60132467 L19.8235947,0.421816901 L20.6299305,0.421816901 L20.7168931,0.0093244963 L18.5364762,0.0093244963 L18.5364809,0.0093244963 Z M21.321941,0.0093244963 L19.8367586,2.60130135 L20.4081637,2.60130135 L21.546405,0.523314043 L21.7745101,2.18878564 L20.9567984,2.18878564 L20.733246,2.60127804 L22.4096505,2.60127804 L22.0053404,0.00930118506 L21.321948,0.00930118506 L21.321941,0.0093244963 Z M22.6359258,0.0093244963 L22.5457765,0.421816901 L23.3516461,0.421816901 L22.8890579,2.60132467 L23.4599968,2.60132467 L23.922585,0.421816901 L24.7280117,0.421816901 L24.8154289,0.0093244963 L22.6359211,0.0093244963 L22.6359258,0.0093244963 Z M25.1964324,0.0093244963 L24.6427905,2.60130135 L26.5222593,2.60130135 L26.6096764,2.18880895 L25.3038739,2.18880895 L25.4522989,1.48035703 L26.5910064,1.48035703 L26.6738709,1.09744659 L25.5356296,1.09744659 L25.6804134,0.42179359 L26.9848405,0.42179359 L27.0718031,0.00930118506 L25.1964371,0.00930118506 L25.1964324,0.0093244963 Z M28.3285307,0.0093244963 C27.6560014,0.0093244963 27.3233967,0.247798489 27.2726947,0.620778341 C27.1896484,1.24174317 28.2883655,1.61076011 28.2056106,1.9825744 C28.1546172,2.19995172 27.8869692,2.18882527 27.6701747,2.18882527 L26.9653826,2.18882527 L26.8788746,2.60131767 L27.7530461,2.60131767 C28.468981,2.60131767 28.7802093,2.34447442 28.8384874,1.98986383 C28.9425115,1.35374669 27.8261502,1.02524469 27.9124018,0.61349824 C27.9415408,0.486743369 28.082737,0.421816901 28.393639,0.421816901 L29.0032746,0.421816901 L29.0947875,0.0093244963 L28.3285237,0.0093244963 L28.3285307,0.0093244963 Z M13.6683246,0.421816901 L14.2511056,0.421816901 C14.724044,0.421816901 14.8931205,0.772697697 14.8211353,1.18444414 C14.7203142,1.76664238 14.3478705,2.18883226 13.7015664,2.18883226 L13.2931534,2.18883226 L13.6683246,0.421816901 Z M4.41348224,4.2836736 C3.61129583,4.2836736 2.94291593,4.70285633 2.74710151,5.62453617 C2.59237315,6.36175415 3.04065996,6.96856906 3.83934969,6.96856906 C4.64913558,6.96856906 5.29958913,6.56805863 5.50209387,5.62453617 C5.66789507,4.85498549 5.20867529,4.2836736 4.41348224,4.2836736 Z M27.2925326,4.2836736 C26.4970365,4.2836736 25.7315187,4.69528018 25.535984,5.62453617 C25.337547,6.55320937 25.9262374,6.96856906 26.7220366,6.96856906 C26.9420364,6.96856906 27.1529682,6.94370995 27.3621866,6.911657 L27.5028746,6.46592276 C27.2971529,6.5169161 27.0793793,6.55698113 26.808083,6.55698113 C26.2911563,6.55698113 25.9992762,6.21022643 26.12194,5.6245315 C26.2449068,5.03883658 26.6855592,4.69527551 27.2019031,4.69527551 C27.4664857,4.69527551 27.6466816,4.73138929 27.8092775,4.77859455 L27.8602709,4.34150879 C27.6764034,4.30916444 27.4848433,4.28368525 27.2925256,4.28368525 L27.2925326,4.2836736 Z M6.89892673,4.33011425 C6.2261177,4.33011425 5.89304669,4.56889129 5.84264779,4.9415681 C5.75960149,5.56339544 6.85817868,5.93187623 6.77600656,6.3042733 C6.72530461,6.52106784 6.45736521,6.51006726 6.24057067,6.51006726 L5.53577862,6.51006726 L5.44836146,6.92211675 L6.32390836,6.92211675 C7.03956345,6.92211675 7.35027897,6.66543668 7.40797429,6.31110582 C7.51287488,5.67529173 6.39626645,5.34602045 6.48279777,4.93429732 C6.51164543,4.80754245 6.65271574,4.74261598 6.96450125,4.74261598 L7.57413682,4.74261598 L7.66519519,4.33012358 L6.89893139,4.33012358 L6.89892673,4.33011425 Z M7.9579564,4.33011425 L7.86780717,4.74260666 L8.67367676,4.74260666 L8.2110885,6.92211442 L8.78202741,6.92211442 L9.24552481,4.74260666 L10.0509515,4.74260666 L10.1370026,4.33011425 L7.95793775,4.33011425 L7.9579564,4.33011425 Z M16.3008163,4.33011425 C15.6280073,4.33011425 15.2950995,4.56889129 15.2449803,4.9415681 C15.1613512,5.56339544 16.260045,5.93187623 16.1778962,6.3042733 C16.1271942,6.52106784 15.8592548,6.51006726 15.6424603,6.51006726 L14.9376682,6.51006726 L14.8507056,6.92211675 L15.7257863,6.92211675 C16.4411617,6.92211675 16.7521569,6.66543668 16.8098523,6.31110582 C16.9147528,5.67529173 15.7984008,5.34602045 15.8837666,4.93429732 C15.9129056,4.80754245 16.0545587,4.74261598 16.3654701,4.74261598 L16.9760148,4.74261598 L17.066164,4.33012358 L16.3008094,4.33012358 L16.3008163,4.33011425 Z M17.5610686,4.33011425 L17.0078929,6.92209111 L18.8878046,6.92209111 L18.9743103,6.51004162 L17.6694403,6.51004162 L17.8178653,5.80114679 L18.9565728,5.80114679 L19.0394372,5.41779343 L17.901196,5.41779343 L18.0450683,4.74258335 L19.3504045,4.74258335 L19.4364556,4.33009094 L17.5610896,4.33009094 L17.5610686,4.33011425 Z M19.8516778,4.33011425 L19.3021386,6.92209111 L19.8730775,6.92209111 L20.3356658,4.73894679 L20.8487928,4.73894679 C21.1667115,4.73894679 21.1952911,4.91571127 21.1629351,5.07859157 C21.1020345,5.38571717 20.8342932,5.50840423 20.5414574,5.50840423 C20.4872588,5.50840423 20.396254,5.5121923 20.3242806,5.50111946 L20.7946081,6.92210277 L21.4197224,6.92210277 L20.9931034,5.804795 C21.3727968,5.75088775 21.6986181,5.47999948 21.7338647,4.99162899 C21.7670832,4.55773686 21.5646763,4.33007929 21.0591208,4.33007929 L19.8516685,4.33007929 L19.8516778,4.33011425 Z M28.321584,4.33011425 L27.7697603,6.92209111 L29.6492291,6.92209111 L29.7357348,6.51004162 L28.4313077,6.51004162 L28.5792804,5.80114679 L29.7179879,5.80114679 L29.8008524,5.41779343 L28.6626111,5.41779343 L28.8073949,4.74258335 L30.111822,4.74258335 L30.1983277,4.33009094 L28.3215863,4.33009094 L28.321584,4.33011425 Z M0.78168418,4.33058048 L0.232144991,6.92209111 L0.803550124,6.92209111 L1.26613839,4.74258335 L1.73189698,4.74258335 C1.94228092,4.74258335 2.08601803,4.84706433 2.02510576,5.12913034 C1.99305281,5.28444148 1.85145567,5.5521128 1.46099705,5.5521128 C1.37445407,5.5521128 1.28073588,5.54118682 1.20876942,5.53389973 L1.2374539,5.91042289 C1.32020881,5.91770765 1.41818828,5.93136571 1.50882006,5.93136571 C2.02194709,5.93136571 2.47357907,5.6354062 2.57875938,5.14323597 C2.64723615,4.8183239 2.58198333,4.33053619 2.02192378,4.33053619 L0.781695836,4.33053619 L0.78168418,4.33058048 Z M10.7472396,4.33058048 L9.26296628,6.92209111 L9.83299605,6.92209111 L10.9726127,4.84366089 L11.1993518,6.51004162 L10.3829921,6.51004162 L10.1589851,6.92209111 L11.8353897,6.92209111 L11.4315457,4.33058048 L10.7472443,4.33058048 L10.7472396,4.33058048 Z M12.682702,4.33058048 L12.1336057,6.92209111 L13.8869607,6.92209111 L13.9771099,6.51004162 L12.7951601,6.51004162 L13.2577483,4.33053385 L12.6827066,4.33053385 L12.682702,4.33058048 Z M22.0372698,4.33058048 L22.4274533,6.92209111 L23.1026634,6.92209111 L24.5782883,4.33058048 L24.0141795,4.33058048 L22.8759383,6.40947693 L22.608232,4.33058048 L22.0372931,4.33058048 L22.0372698,4.33058048 Z M24.922502,4.33058048 L24.3734058,6.92209111 L24.9443447,6.92209111 L25.4938839,4.33058048 L24.9224787,4.33058048 L24.922502,4.33058048 Z M4.32329105,4.69540139 C4.85101092,4.69540139 5.02843277,5.09987473 4.91653882,5.62465738 C4.79269785,6.21035231 4.44609467,6.55710701 3.92944764,6.55710701 C3.39417493,6.55710701 3.2170095,6.12701462 3.32890346,5.62465738 C3.4626517,5.03896246 3.80664402,4.69540139 4.32326774,4.69540139 L4.32329105,4.69540139 Z" id="Shape" fill="#15569C" transform="translate(15.215236, 3.488923) scale(-1, 1) rotate(-180.000000) translate(-15.215236, -3.488923) "></path>
                                            <polygon id="Shape" fill="#ED192D" points="0.984899921 3.6074145 0.944396641 3.41509677 30.3631825 3.41509677 30.4028116 3.6074145 0.986939655 3.6074145"></polygon>
                                            <polygon id="Shape" fill="#FFFFFF" points="32.85008 8.11217778 37.69008 30.8837333 5.99674667 30.8837333 1.15674667 8.11217778 32.85008 8.11217778"></polygon>
                                            <path d="M36.6461689,8.95054222 L6.66999111,8.95192889 L6.65193529,9.05192533 C6.65193529,9.05192533 24.2746908,12.670272 24.6238464,12.7324942 C28.6727708,13.4471609 28.5474731,14.2283164 28.5474731,14.2283164 C31.3848064,14.2140942 31.7333931,14.3288747 32.2293931,14.742208 C33.7209486,15.9884302 31.2960597,19.6602524 31.2960597,19.6602524 C30.9493931,19.9162524 4.73463751,30.0396302 4.73463751,30.0396302 L32.1607708,30.0396302 L36.6454642,8.95091911 L36.6461689,8.95054222 Z M21.0694933,13.8269867 C20.2747556,13.8207502 19.7154667,13.8321564 19.6514667,13.8283733 L5.64044444,13.8283733 L5.637664,13.8283733 L2.194464,30.0452622 C2.194464,30.0452622 12.7409529,24.8695111 14.0309084,24.2064 C16.6735396,22.8490311 20.3281529,21.0552533 23.7055751,19.9050311 C24.3491307,19.6872533 27.105824,18.8370844 28.7111573,18.5508622 C29.3333796,18.4397511 29.5983396,18.3339733 29.590304,18.2175289 C29.566304,17.8850844 28.9401351,17.8631964 27.8805796,17.914752 C24.6477262,18.066752 18.4526684,20.5340587 16.6692018,21.4745031 L14.6566862,15.2356409 L27.519264,15.2356409 C27.9523307,14.0219876 23.4538418,13.8457031 21.0694862,13.8270009 L21.0694933,13.8269867 Z M27.8889067,15.3297778 C27.7955733,15.3297778 27.7154098,15.392832 27.6069653,15.5394987 C27.5082987,15.6666098 27.4282418,15.7522773 27.1722418,15.8811662 C26.7749084,16.0767218 25.736224,16.186112 25.2500373,16.2270009 C24.7833707,16.266112 24.6566507,16.3132231 24.6486507,16.4936676 C24.6441707,16.6545564 24.7182044,16.7464462 25.3875662,16.7464462 C26.9279751,16.7464462 29.7005973,16.1653902 30.5361529,16.431168 C30.9770418,16.5725013 30.6229298,17.3580302 30.261152,18.3909191 C30.1207076,18.7900302 30.3955947,18.7618631 30.5555947,18.586752 C30.7155947,18.410752 31.4343147,17.0944853 31.5125369,16.4242631 C31.623648,15.4722276 30.806816,15.329792 29.6805724,15.329792 L27.888928,15.329792 L27.8889067,15.3297778 Z" id="Shape" fill="#15569C" transform="translate(19.420316, 19.497902) scale(-1, 1) rotate(-180.000000) translate(-19.420316, -19.497902) "></path>
                                        </g>
                                    </g>
                                </g>
                            </g>
                        </g>
                    </g>
                </g>
            </g>
        </g>
    </g>
</svg>