<?xml version="1.0" encoding="UTF-8"?>
<svg width="42px" height="32px" viewBox="0 0 42 32" version="1.1" xmlns="http://www.w3.org/2000/svg" xmlns:xlink="http://www.w3.org/1999/xlink">
    <!-- Generator: Sketch 44.1 (41455) - http://www.bohemiancoding.com/sketch -->
    <title>visaCard</title>
    <desc>Created with Sketch.</desc>
    <defs></defs>
    <g id="Ready" stroke="none" stroke-width="1" fill="none" fill-rule="evenodd">
        <g id="Order-detail" transform="translate(-325.000000, -479.000000)">
            <g id="Page" transform="translate(20.000000, 20.000000)">
                <g id="Container" transform="translate(233.166667, 70.000000)">
                    <g id="Payment" transform="translate(20.000000, 342.000000)">
                        <g id="visaCard" transform="translate(52.000000, 47.000000)">
                            <rect id="Rectangle-5" fill="#FFFFFF" x="0" y="0" width="41.509434" height="32" rx="2"></rect>
                            <g id="Visa_Inc._logo" transform="translate(1.000000, 9.000000)" fill-rule="nonzero">
                                <polygon id="polygon9" fill="#00579F" points="17.29304 12.8295455 14.0751359 12.8295455 16.0878437 0.384472599 19.3055718 0.384472599"></polygon>
                                <path d="M28.9582282,0.688719122 C28.3235161,0.436910693 27.3168103,0.158883217 26.0720215,0.158883217 C22.8942378,0.158883217 20.6564686,1.85344308 20.6427432,4.27615339 C20.6163481,6.06362371 22.2449205,7.05642815 23.4629624,7.65242755 C24.7079272,8.2614485 25.1311272,8.6589574 25.1311272,9.20181484 C25.1184576,10.0355453 24.1251253,10.4198567 23.1986603,10.4198567 C21.913927,10.4198567 21.225545,10.2217182 20.1794227,9.7578698 L19.7556947,9.55902736 L19.3053958,12.3526756 C20.0601172,12.6965146 21.4506065,13.001641 22.8942378,13.0150145 C26.2706879,13.0150145 28.4688647,11.3466736 28.4949077,8.76488939 C28.5077533,7.34818103 27.6478038,6.26264211 25.793818,5.37559369 C24.6683346,4.80616526 23.9790729,4.4222058 23.9790729,3.83957987 C23.9922704,3.30991993 24.5620507,2.76741442 25.8325307,2.76741442 C26.8786531,2.74084344 27.6472759,2.99229993 28.2295499,3.2439324 L28.5205989,3.37608343 L28.9582282,0.688719122 L28.9582282,0.688719122 L28.9582282,0.688719122 Z" id="path11" fill="#00579F"></path>
                                <path d="M33.2351002,8.42069841 C33.5001062,7.70574548 34.5198335,4.93866823 34.5198335,4.93866823 C34.50646,4.96523921 34.7843116,4.21051779 34.9432095,3.74719732 L35.168095,4.81953874 C35.168095,4.81953874 35.7774679,7.79847996 35.9097949,8.42069841 L33.2351002,8.42069841 L33.2351002,8.42069841 Z M37.2071978,0.384472599 L34.7181481,0.384472599 C33.9505811,0.384472599 33.3674272,0.609358114 33.0362578,1.41704553 L28.2564728,12.8293695 L31.6329229,12.8293695 C31.6329229,12.8293695 32.1888019,11.2933557 32.3082833,10.9625382 L36.4398068,10.9625382 C36.5321893,11.3994637 36.8237663,12.8293695 36.8237663,12.8293695 L39.8032354,12.8293695 L37.2071978,0.384472599 L37.2071978,0.384472599 L37.2071978,0.384472599 Z" id="path13" fill="#00579F"></path>
                                <path d="M11.3874196,0.384472599 L8.236031,8.87082137 L7.89166406,7.14969053 C7.30903813,5.16372971 5.48179933,3.00602534 3.44269655,1.93315602 L6.32925523,12.816348 L9.73210037,12.816348 L14.7900888,0.384472599 L11.3874196,0.384472599 L11.3874196,0.384472599 L11.3874196,0.384472599 Z" id="path15" fill="#00579F"></path>
                                <path d="M5.30970384,0.384472599 L0.132409923,0.384472599 L0.0794439292,0.635929095 C4.11805696,1.66867799 6.79275166,4.1580797 7.89166406,7.15021843 L6.76618068,1.43059497 C6.58088769,0.635753128 6.01145926,0.410691646 5.30970384,0.384472599 L5.30970384,0.384472599 Z" id="path17" fill="#FAA61A"></path>
                            </g>
                        </g>
                    </g>
                </g>
            </g>
        </g>
    </g>
</svg>