<svg xmlns="http://www.w3.org/2000/svg" width="48" height="48" viewBox="0 0 48 48"><path fill="#007AC6" d="M44 7H4a3 3 0 0 0-3 3v28a3 3 0 0 0 3 3h40a3 3 0 0 0 3-3V10a3 3 0 0 0-3-3z"/><path fill="#FFF" d="M10.533 24.429h2.33l-1.165-2.857-1.165 2.857zM43 19h-5.969l-1.456 1.571L34.264 19H21.598l-1.165 2.571L19.268 19h-5.096v1.143L13.59 19H9.222L5 29h5.096l.582-1.571h1.456L12.716 29h5.678v-1.143L18.831 29h2.912l.437-1.286V29h11.648l1.456-1.571L36.594 29h5.969l-3.785-5L43 19zm-17.617 8.571h-1.602V22l-2.475 5.571H19.85L17.375 22v5.571h-3.349L13.444 26H9.95l-.582 1.571H7.475l3.057-7.143h2.475l2.766 6.714v-6.714h2.766l2.184 4.857 2.038-4.857h2.766v7.143h-.144zm14.414 0h-2.184l-1.893-2.429-2.184 2.429h-6.552v-7.143h6.697l2.038 2.286 2.184-2.286h2.038L36.739 24l3.058 3.571zm-11.211-5.714v1.286h3.64v1.429h-3.64V26h4.077l1.893-2.143-1.747-2h-4.223z"/></svg>