<svg xmlns="http://www.w3.org/2000/svg" width="48" height="48" viewBox="0 0 48 48"><path fill="#003564" d="M44 7H4a3 3 0 0 0-3 3v28a3 3 0 0 0 3 3h40a3 3 0 0 0 3-3V10a3 3 0 0 0-3-3z"/><circle fill="#F01524" cx="19" cy="24" r="8"/><path fill="#376BD1" d="M24 30.24c.093-.075.177-.161.267-.24h-.535c.091.079.175.165.268.24z"/><path fill="#FEB415" d="M29 16a7.984 7.984 0 0 0-6.24 3h2.48c.251.313.47.651.673 1h-3.835a7.858 7.858 0 0 0-.492 1h4.818c.132.324.246.656.335 1h-5.477a7.851 7.851 0 0 0-.193 1h5.865c.041.328.066.661.066 1h-6c0 .339.028.672.069 1h5.865a8.034 8.034 0 0 1-.195 1h-5.477c.088.342.194.677.325 1h4.818c-.141.346-.305.68-.491 1h-3.835c.203.351.429.686.681 1h2.48a8.064 8.064 0 0 1-.973 1h-.547a7.96 7.96 0 0 0 5.279 2A8 8 0 0 0 29 16z"/></svg>