<svg width="16" height="16" viewBox="0 0 16 16" xmlns="http://www.w3.org/2000/svg"><title>location-24px-outline_square-pin</title><g fill="#444"><path d="M12.025 12l1.333 2.667H2.182L3.515 12H6.37v-1.333H2.691L.025 16h15.49l-2.666-5.333H9.17V12z"/><path d="M8.003 11.704a30.09 30.09 0 0 0 1.569-1.898c.544-.72 1.01-1.415 1.374-2.066.538-.965.824-1.79.824-2.407 0-2.33-1.845-4-4-4-2.155 0-4 1.67-4 4 0 .617.286 1.442.824 2.407.364.651.83 1.347 1.374 2.066a30.09 30.09 0 0 0 1.802 2.155l.233-.257zm5.1-6.37c0 .89-.354 1.91-.993 3.055a19.404 19.404 0 0 1-1.475 2.222 31.404 31.404 0 0 1-2.39 2.79l-.475.482-.475-.482a29.98 29.98 0 0 1-.751-.808 31.404 31.404 0 0 1-1.639-1.982A19.404 19.404 0 0 1 3.43 8.389c-.639-1.145-.993-2.166-.993-3.056C2.437 2.236 4.906 0 7.77 0c2.864 0 5.333 2.236 5.333 5.333z"/><path d="M7.77 7.333a2 2 0 1 1 0-4 2 2 0 0 1 0 4zM7.77 6a.667.667 0 1 0 0-1.333.667.667 0 0 0 0 1.333z"/></g></svg>