<svg width="7" height="10" viewBox="0 0 7 10" xmlns="http://www.w3.org/2000/svg"><title>?</title><path d="M.851 2.733h1.086c.034-.452.196-.811.485-1.076.29-.264.674-.396 1.153-.396.474 0 .851.129 1.133.387.281.258.422.584.422.977 0 .339-.079.623-.235.851-.157.229-.419.455-.787.68-.436.257-.758.539-.965.844-.207.304-.309.666-.305 1.085v.584H3.95v-.413c0-.334.072-.608.216-.822.144-.213.417-.439.819-.676a3.02 3.02 0 0 0 .968-.904c.239-.358.358-.786.358-1.286 0-.656-.248-1.203-.745-1.64C5.067.488 4.419.27 3.619.27c-.893 0-1.569.24-2.028.718a2.624 2.624 0 0 0-.74 1.745zM3.48 9.614a.849.849 0 0 0 .632-.247.865.865 0 0 0 .244-.635.874.874 0 0 0-.244-.641.849.849 0 0 0-.632-.248.86.86 0 0 0-.634.248.867.867 0 0 0-.248.64c0 .26.083.47.248.636a.86.86 0 0 0 .634.247z" fill="#FFF" fill-rule="evenodd"/></svg>