<?xml version="1.0" encoding="UTF-8"?>
<svg width="10px" height="14px" viewBox="0 0 10 14" version="1.1" xmlns="http://www.w3.org/2000/svg" xmlns:xlink="http://www.w3.org/1999/xlink">
    <!-- Generator: Sketch 46.2 (44496) - http://www.bohemiancoding.com/sketch -->
    <title>Shape</title>
    <desc>Created with Sketch.</desc>
    <defs></defs>
    <g id="Styleguide" stroke="none" stroke-width="1" fill="none" fill-rule="evenodd">
        <g transform="translate(-227.000000, -4549.000000)" id="Tables" fill-rule="nonzero" fill="#444444">
            <g transform="translate(50.000000, 4465.000000)">
                <g id="Table" transform="translate(0.000000, 64.000000)">
                    <g id="head">
                        <g id="td2" transform="translate(177.000000, 20.000000)">
                            <g id="arrows-48px-glyph-2_move-up" transform="translate(0.833333, 0.000000)">
                                <path d="M4.71319766,0.133256099 C4.57349071,-0.0444186996 4.2734341,-0.0444186996 4.13372716,0.133256099 L0.0789081092,5.29393489 C-0.0084548103,5.40488948 -0.0246740865,5.55565502 0.037254059,5.68282889 C0.0991822044,5.81000276 0.227461934,5.89036191 0.368643361,5.89036191 L3.68622258,5.89036191 L3.68622258,13.6313801 C3.68622258,13.8348583 3.8513643,14 4.05484249,14 L4.79208232,14 C4.99556051,14 5.16070223,13.8348583 5.16070223,13.6313801 L5.16070223,5.89036191 L8.47828146,5.89036191 C8.61946288,5.89036191 8.74811123,5.80963414 8.80967076,5.68282889 C8.87123028,5.55602364 8.85537963,5.40488948 8.76801671,5.29393489 L4.71319766,0.133256099 Z" id="Shape"></path>
                            </g>
                        </g>
                    </g>
                </g>
            </g>
        </g>
    </g>
</svg>