<svg class="nc-icon glyph" xmlns="http://www.w3.org/2000/svg" xmlns:xlink="http://www.w3.org/1999/xlink" x="0px" y="0px" width="48px" height="48px" viewBox="0 0 48 48"><g> <circle fill="#444444" cx="36" cy="35" r="5"></circle> <path fill="#444444" d="M47.316,23.052l-5.463-1.821l-1.877-8.447C39.874,12.325,39.469,12,39,12H1c-0.553,0-1,0.447-1,1 s0.447,1,1,1h22c0.553,0,1,0.447,1,1s-0.447,1-1,1h-5v3H6c-0.553,0-1,0.447-1,1s0.447,1,1,1h17c0.553,0,1,0.447,1,1s-0.447,1-1,1h-5 v3h-7c-0.553,0-1,0.447-1,1s0.447,1,1,1h12c0.553,0,1,0.447,1,1s-0.447,1-1,1h-5v4c0,0.553,0.447,1,1,1h10c0-3.859,3.141-7,7-7 s7,3.141,7,7h4c0.553,0,1-0.447,1-1V24C48,23.569,47.725,23.188,47.316,23.052z"></path> </g></svg>
