<?xml version="1.0" encoding="UTF-8"?>
<svg width="40px" height="19px" viewBox="0 0 40 19" version="1.1" xmlns="http://www.w3.org/2000/svg" xmlns:xlink="http://www.w3.org/1999/xlink">
    <!-- Generator: Sketch 43.2 (39069) - http://www.bohemiancoding.com/sketch -->
    <title>FedEx_Express</title>
    <desc>Created with Sketch.</desc>
    <defs></defs>
    <g id="BP-1200-/-1024" stroke="none" stroke-width="1" fill="none" fill-rule="evenodd">
        <g id="Shopping-cart-Alternative" transform="translate(-293.000000, -897.000000)" fill-rule="nonzero">
            <g id="Page" transform="translate(20.000000, 20.000000)">
                <g id="Container" transform="translate(233.166667, 70.000000)">
                    <g id="Header" transform="translate(20.000000, 20.000000)">
                        <g id="Delivery" transform="translate(0.000000, 732.000000)">
                            <g id="FedEx" transform="translate(20.000000, 48.000000)">
                                <g id="fedexPic">
                                    <g id="FedEx_Express" transform="translate(0.000000, 7.000000)">
                                        <polygon id="polygon10" fill="#FF5900" points="31.4710606 4.40511103 33.029438 6.12257064 34.5297295 4.40511103 37.7333516 4.40511103 34.6024678 7.9258509 37.776262 11.4753721 34.4433856 11.4753721 32.8996605 9.74430676 31.3700644 11.4753721 28.1517899 11.4753721 31.2978494 7.94050321 28.1517899 4.40511103"></polygon>
                                        <polygon id="polygon12" fill="#FF5900" points="28.1517899 4.40511103 28.1517899 6.79396024 24.588663 6.79396024 24.588663 8.98604992 28.1517899 8.98604992 28.1517899 11.4753721 21.9700866 11.4753721 21.9700866 0.338049459 28.1517899 0.338049459 28.1517899 2.82056877 24.588663 2.82056877 24.588663 4.40511103"></polygon>
                                        <path d="M19.3624994,0.338049459 L19.3624994,4.89596329 L19.3337181,4.89596329 C18.7559986,4.23242314 18.0348958,4.00164931 17.1981444,4.00164931 C15.4838246,4.00164931 14.1923285,5.16755425 13.7391536,6.70813959 C13.2216132,5.01056526 11.8882533,3.96972822 9.91123857,3.96972822 C8.30576445,3.96972822 7.03781666,4.69030771 6.3763697,5.86458539 L6.3763697,4.40511103 L3.05762233,4.40511103 L3.05762233,2.82056877 L6.67935846,2.82056877 L6.67935846,0.338049459 L0.0994263637,0.338049459 L0.0994263637,11.4753721 L3.05762233,11.4753721 L3.05762233,6.79396024 L6.00639896,6.79396024 C5.91848513,7.13776614 5.87138843,7.50616699 5.87138843,7.8949764 C5.87138843,10.2178902 7.64641067,11.8484826 9.91123857,11.8484826 C11.8160384,11.8484826 13.0714271,10.9541686 13.7349672,9.32409955 L11.1995949,9.32409955 C10.8568356,9.81442852 10.5967572,9.95938169 9.91123857,9.95938169 C9.11635096,9.95938169 8.43083235,9.26601363 8.43083235,8.44391459 L13.5931538,8.44391459 C13.8171248,10.2890586 15.2546207,11.8804037 17.2269258,11.8804037 C18.0778061,11.8804037 18.8569948,11.4617664 19.3331948,10.7553159 L19.3619761,10.7553159 L19.3619761,11.4764187 L21.9695633,11.4764187 L21.9695633,0.338049459 L19.3624994,0.338049459 Z M8.51351322,6.82692793 C8.67782837,6.11943086 9.22676655,5.65735992 9.91176187,5.65735992 C10.6658323,5.65735992 11.1865125,6.10530185 11.3236162,6.82692793 C11.3811789,6.82692793 8.51351322,6.82692793 8.51351322,6.82692793 Z M17.779527,9.77989094 C16.8182311,9.77989094 16.2206263,8.88400707 16.2206263,7.94887595 C16.2206263,6.94937935 16.7402599,5.9880834 17.779527,5.9880834 C18.8569948,5.9880834 19.2860981,6.94937935 19.2860981,7.94887595 C19.2860981,8.89656619 18.8313533,9.77989094 17.779527,9.77989094 Z" id="path14" fill="#2A007C"></path>
                                        <polygon id="path16" fill="#2A007C" points="21.9706099 17.044295 21.9706099 13.0531115 24.175782 13.0531115 24.175782 13.3508673 22.3343011 13.3508673 22.3343011 14.8223775 24.0978108 14.8223775 24.0978108 15.1201333 22.3343011 15.1201333 22.3343011 16.7454927 24.2579396 16.7454927 24.2579396 17.0437718 21.9706099 17.0437718"></polygon>
                                        <polygon id="path18" fill="#2A007C" points="24.5211578 17.044295 25.5965324 15.6109855 24.5766272 14.2551239 24.9900316 14.2551239 25.8225966 15.3629429 26.638416 14.2551239 27.0518204 14.2551239 26.015693 15.6109855 27.0957773 17.044295 26.67714 17.044295 25.7838726 15.8585048 24.9350854 17.044295 24.5211578 17.044295"></polygon>
                                        <path d="M27.7954249,18.0908884 L27.4589452,18.0908884 L27.4589452,15.0876889 C27.4589452,14.8119115 27.4589452,14.5314245 27.4421997,14.2551239 L27.7734465,14.2551239 L27.7844357,14.6742845 C27.9932311,14.3430377 28.2690084,14.1891885 28.682936,14.1891885 C29.5427124,14.1891885 29.9116366,14.8998254 29.9116366,15.6491862 C29.9116366,16.3995936 29.5427124,17.1102304 28.682936,17.1102304 C28.2967431,17.1102304 27.9937544,16.9616142 27.7954249,16.6413566 L27.7954249,18.0908884 L27.7954249,18.0908884 Z M29.5537017,15.6491862 C29.5537017,15.0541979 29.3051358,14.4696755 28.6442121,14.4696755 C28.0214891,14.4696755 27.7954249,14.9825062 27.7954249,15.6491862 C27.7954249,16.3163894 28.0214891,16.8286968 28.6442121,16.8286968 C29.3056591,16.8286968 29.5537017,16.2446978 29.5537017,15.6491862 Z" id="path20" fill="#2A007C"></path>
                                        <path d="M31.6406087,14.5136324 C31.0838211,14.5136324 30.8902013,14.9825062 30.8902013,15.4670789 L30.8902013,17.044295 L30.5537216,17.044295 L30.5537216,15.075653 C30.5537216,14.805632 30.5484886,14.5309012 30.5374994,14.2551239 L30.8692695,14.2551239 L30.8907246,14.657539 C31.0560864,14.3383281 31.332387,14.1891885 31.7013111,14.1891885 C31.7510243,14.1891885 31.8059705,14.1944215 31.8556836,14.2001777 L31.8556836,14.5366575 C31.7782357,14.5246217 31.7175333,14.5136324 31.6406087,14.5136324 Z" id="path22" fill="#2A007C"></path>
                                        <path d="M32.2675181,15.7098886 C32.2675181,16.3378446 32.5647506,16.8559083 33.1764844,16.8559083 C33.6500679,16.8559083 33.870899,16.5419303 33.9535799,16.2279523 L34.2733142,16.2279523 C34.1241746,16.8119513 33.7657164,17.1102304 33.1320042,17.1102304 C32.283217,17.1102304 31.9080133,16.4817511 31.9080133,15.6994227 C31.9080133,14.9003487 32.2994392,14.1891885 33.1759611,14.1891885 C34.0634722,14.1891885 34.3005256,14.9657608 34.3005256,15.7098886 L32.2675181,15.7098886 L32.2675181,15.7098886 Z M32.277984,15.456613 L33.9425907,15.456613 C33.9425907,14.9108146 33.6840821,14.4424641 33.1545059,14.4424641 C32.6751662,14.4419408 32.3439194,14.805632 32.277984,15.456613 Z" id="path24" fill="#2A007C"></path>
                                        <path d="M35.6134769,17.1102304 C35.0404671,17.1102304 34.6108405,16.8396861 34.6108405,16.2279523 L34.9473203,16.2279523 C34.9473203,16.6465896 35.2225743,16.8559083 35.6307457,16.8559083 C36.0111824,16.8559083 36.3084148,16.673801 36.3084148,16.3001672 C36.3084148,15.9636875 35.9614692,15.8752503 35.597778,15.770591 C35.1571622,15.6439532 34.6772992,15.5058029 34.6772992,14.9657608 C34.6772992,14.3655395 35.1786174,14.1891885 35.6474912,14.1891885 C36.18701,14.1891885 36.5899484,14.3979839 36.6061706,14.97675 L36.2696909,14.97675 C36.2534687,14.6465498 36.0164153,14.4592096 35.6579571,14.4592096 C35.3769468,14.4592096 35.0352341,14.5691019 35.0352341,14.9327931 C35.0352341,15.2640398 35.3769468,15.3577099 35.740638,15.456613 C36.1823004,15.5774945 36.6668731,15.7098886 36.6668731,16.250454 C36.6663498,16.87841 36.1817771,17.1102304 35.6134769,17.1102304 Z" id="path26" fill="#2A007C"></path>
                                        <path d="M37.9452868,17.1102304 C37.3717536,17.1102304 36.9421271,16.8396861 36.9421271,16.2279523 L37.2786068,16.2279523 C37.2786068,16.6465896 37.5538609,16.8559083 37.9625556,16.8559083 C38.3429922,16.8559083 38.6402247,16.673801 38.6402247,16.3001672 C38.6402247,15.9636875 38.2927558,15.8752503 37.9290646,15.770591 C37.4884488,15.6439532 37.0091091,15.5058029 37.0091091,14.9657608 C37.0091091,14.3655395 37.5104273,14.1891885 37.9793011,14.1891885 C38.5188199,14.1891885 38.9217583,14.3979839 38.9379805,14.97675 L38.6015008,14.97675 C38.5852786,14.6465498 38.3482252,14.4592096 37.989767,14.4592096 C37.7087567,14.4592096 37.367044,14.5691019 37.367044,14.9327931 C37.367044,15.2640398 37.7087567,15.3577099 38.0729712,15.456613 C38.5141102,15.5774945 38.9992062,15.7098886 38.9992062,16.250454 C38.9981596,16.87841 38.5130636,17.1102304 37.9452868,17.1102304 L37.9452868,17.1102304 Z" id="path28" fill="#2A007C"></path>
                                    </g>
                                </g>
                            </g>
                        </g>
                    </g>
                </g>
            </g>
        </g>
    </g>
</svg>