<svg width="44px" height="30px" viewBox="0 0 44 30" version="1.1" xmlns="http://www.w3.org/2000/svg" xmlns:xlink="http://www.w3.org/1999/xlink">
   <desc>Created with Sketch.</desc>
   <defs></defs>
   <g id="BP-1200" stroke="none" stroke-width="1" fill="none" fill-rule="evenodd">
       <g id="Processed-list" transform="translate(-281.000000, -464.000000)" fill-rule="nonzero" fill="#009BD6 ">
           <g id="Page" transform="translate(20.000000, 20.000000)">
               <g id="Container" transform="translate(232.166667, 69.000000)">
                   <g id="SectionOne" transform="translate(0.000000, 88.000000)">
                       <g id="Overflowing-Hint" transform="translate(0.833333, 197.000000)">
                           <path d="M32.3541173,101.070874 C30.1292336,108.553152 31.1356231,113.80104 35.0882897,116.894634 C38.7211972,119.737966 44.5326518,120.501089 51.946461,119.701067 C55.6243496,119.304188 59.5385412,118.535035 63.5220847,117.502605 C65.6183415,116.95931 67.6010715,116.377319 69.4095152,115.795027 C70.0434349,115.590915 70.6107387,115.401177 71.1037943,115.23061 C71.4017094,115.127549 71.6100188,115.053277 71.7210761,115.012588 L70.9472984,112.900643 C70.8487601,112.936746 70.6532404,113.006458 70.3684549,113.104977 C69.8903427,113.270374 69.3383312,113.454997 68.72015,113.654043 C66.9511624,114.22363 65.0096626,114.793519 62.9577871,115.325311 C59.0727276,116.332217 55.2624327,117.080953 51.7051482,117.464819 C44.8230047,118.207468 39.5264086,117.511953 36.474566,115.123398 C33.4072244,112.722712 32.5490898,108.505976 34.4012449,102.069325 L38.5629007,104.0991 L38.9016732,90 L28,98.947229 L32.3541173,101.070874 Z" id="Combined-Shape"></path>
                       </g>
                   </g>
               </g>
           </g>
       </g>
   </g>
</svg>
