<?xml version="1.0" encoding="UTF-8"?>
<svg width="7px" height="10px" viewBox="0 0 7 10" version="1.1" xmlns="http://www.w3.org/2000/svg" xmlns:xlink="http://www.w3.org/1999/xlink">
    <!-- Generator: Sketch 43.1 (39012) - http://www.bohemiancoding.com/sketch -->
    <title>?</title>
    <desc>Created with Sketch.</desc>
    <defs></defs>
    <g id="Symbols" stroke="none" stroke-width="1" fill="none" fill-rule="evenodd">
        <g id="Form/Input/File/Empty" transform="translate(-918.000000, -14.000000)" fill="#FFFFFF">
            <g id="Bulk-upload">
                <g id="questionBtn" transform="translate(912.000000, 10.000000)">
                    <path d="M6.85144043,6.73339844 L7.93688965,6.73339844 C7.97074398,6.28059669 8.1326076,5.9219577 8.42248535,5.6574707 C8.7123631,5.3929837 9.09639247,5.26074219 9.57458496,5.26074219 C10.0485457,5.26074219 10.4262274,5.38980991 10.7076416,5.64794922 C10.9890558,5.90608853 11.1297607,6.23193163 11.1297607,6.62548828 C11.1297607,6.96403164 11.0514738,7.24755745 10.8948975,7.47607422 C10.7383212,7.70459099 10.475954,7.93098846 10.1077881,8.15527344 C9.67191351,8.41341275 9.35030214,8.6948227 9.14294434,8.99951172 C8.93558653,9.30420074 8.83402504,9.66601353 8.83825684,10.0849609 L8.83825684,10.6689453 L9.94909668,10.6689453 L9.94909668,10.2563477 C9.94909668,9.92203609 10.0210361,9.64803167 10.164917,9.43432617 C10.3087979,9.22062068 10.5817444,8.99528113 10.9837646,8.75830078 C11.3900167,8.51285685 11.712686,8.21134619 11.9517822,7.85375977 C12.1908785,7.49617334 12.3104248,7.06771083 12.3104248,6.56835938 C12.3104248,5.91243162 12.0618108,5.36548071 11.5645752,4.92749023 C11.0673396,4.48949976 10.4188272,4.27050781 9.61901855,4.27050781 C8.72611044,4.27050781 8.05009181,4.50960047 7.59094238,4.98779297 C7.13179295,5.46598546 6.88529477,6.04784813 6.85144043,6.73339844 Z M9.47937012,13.6142578 C9.73750943,13.6142578 9.94803792,13.5317391 10.1109619,13.3666992 C10.2738859,13.2016593 10.3553467,12.9900729 10.3553467,12.7319336 C10.3553467,12.4695625 10.2738859,12.2558602 10.1109619,12.0908203 C9.94803792,11.9257804 9.73750943,11.8432617 9.47937012,11.8432617 C9.22123081,11.8432617 9.00964438,11.9257804 8.84460449,12.0908203 C8.6795646,12.2558602 8.5970459,12.4695625 8.5970459,12.7319336 C8.5970459,12.9900729 8.6795646,13.2016593 8.84460449,13.3666992 C9.00964438,13.5317391 9.22123081,13.6142578 9.47937012,13.6142578 Z" id="?"></path>
                </g>
            </g>
        </g>
    </g>
</svg>