<svg xmlns="http://www.w3.org/2000/svg" xmlns:xlink="http://www.w3.org/1999/xlink" x="0px" y="0px" width="48px" height="48px" viewBox="0 0 48 48"><g  transform="translate(0, 0)">
<path fill="#ff5c00" d="M2,3h4v30h2V2c0-0.553-0.447-1-1-1H2C1.447,1,1,1.447,1,2S1.447,3,2,3z"/>
<path fill="#ff5c00" d="M46,40H15v2h31c0.553,0,1-0.447,1-1S46.553,40,46,40z"/>
<circle fill="#ff5c00" cx="7" cy="41" r="6"/>
<path fill="#ff5c00" d="M42,15H16v18c0,1.105,0.895,2,2,2h22c1.105,0,2-0.895,2-2V15z"/>
<path fill="#ff5c00" d="M45,13H13c-0.552,0-1-0.448-1-1V8c0-0.552,0.448-1,1-1h32c0.552,0,1,0.448,1,1v4&#10;&#9;C46,12.552,45.552,13,45,13z"/>
</g></svg>
