<?xml version="1.0" encoding="UTF-8"?>
<svg width="28px" height="32px" viewBox="0 0 28 32" version="1.1" xmlns="http://www.w3.org/2000/svg" xmlns:xlink="http://www.w3.org/1999/xlink">
    <!-- Generator: Sketch 43.2 (39069) - http://www.bohemiancoding.com/sketch -->
    <title>Group</title>
    <desc>Created with Sketch.</desc>
    <defs></defs>
    <g id="BP-1200-/-1024" stroke="none" stroke-width="1" fill="none" fill-rule="evenodd">
        <g id="Shopping-cart-Alternative" transform="translate(-341.000000, -1084.000000)">
            <g id="Page" transform="translate(20.000000, 20.000000)">
                <g id="Container" transform="translate(233.166667, 70.000000)">
                    <g id="Header" transform="translate(20.000000, 20.000000)">
                        <g id="Delivery" transform="translate(0.000000, 732.000000)">
                            <g id="UPS" transform="translate(20.000000, 241.000000)">
                                <g id="upsPic" transform="translate(41.833333, 0.976567)">
                                    <g id="Group" transform="translate(20.000000, 16.000000) scale(-1, 1) rotate(-180.000000) translate(-20.000000, -16.000000) translate(6.000000, 0.000000)">
                                        <polygon id="Shape" fill="#301506" points="1.26652008 22.3738971 1.38102977 9.37689641 4.30106218 5.76976716 13.0614822 1.13205722 23.8256119 6.39960592 26.058612 11.7244127 25.8295926 28.9586396 17.699205 29.187659 9.22539814 27.8135299 1.49588158 23.3475941"></polygon>
                                        <path d="M13.8092003,0.275923214 C8.70645412,0.275923214 4.25543002,1.2638347 0.579035941,3.2120292 L0.579035941,18.7872568 C0.579035941,22.0645615 1.81043946,24.8050993 4.13949373,26.714304 C6.30200254,28.4882068 12.9898999,31.4115056 13.8094585,31.7665443 C14.5866706,31.4282892 21.3538385,28.4598037 23.4820054,26.714304 C25.8097686,24.8061321 27.0414819,22.0647681 27.0414819,18.7872568 L27.0414819,3.2120292 C23.3645714,1.26357649 18.9135473,0.275665004 13.8087355,0.275665004 L13.8092003,0.275923214 Z M21.3649415,3.29171281 C22.8866247,3.31160789 24.3807827,3.40560925 25.8251062,3.53983714 L25.8251062,18.7871381 C25.8251062,21.7172019 24.7619007,24.0840581 22.7104739,25.7737844 C20.8778025,27.2830219 15.3514887,29.7589977 13.8094585,30.4387097 C12.2467715,29.7498054 6.70661762,27.2425862 4.90689387,25.7744041 C2.86760288,24.1135974 1.79417223,21.6905547 1.79417223,18.7877578 L1.79417223,9.87847967 C7.65450655,4.50409659 14.7707743,3.20581667 21.3644251,3.29205881 L21.3649415,3.29171281 Z M14.1541689,10.3914552 C12.8986485,10.3914552 11.885639,10.6720985 11.0516207,11.2104457 L11.0516207,26.2119307 L13.3543375,26.2119307 L13.3543375,21.3654321 C13.5841444,21.4332122 13.9177001,21.4965563 14.3902244,21.4965563 C16.9445411,21.4965563 18.4126716,19.1939428 18.4126716,15.8319452 C18.4126716,12.4765061 16.9009553,10.3914603 14.1542205,10.3914603 L14.1541689,10.3914552 Z M22.0223442,10.3914552 C20.5079425,10.4353509 18.9242372,11.5323819 18.9338943,13.3921137 C18.9377674,14.6166488 19.277231,15.5324164 21.1750539,16.6459729 C22.1878568,17.2404756 22.5959319,17.6322318 22.6133869,18.3546001 C22.6327526,19.1576333 22.077911,19.6418287 21.2335643,19.6385752 C20.4989568,19.6327655 19.6207846,19.2250777 19.0327371,18.7015311 L19.0327371,20.8206606 C19.7537627,21.2505803 20.6534697,21.5347662 21.5623689,21.5347662 C23.837199,21.5347662 24.8529972,19.9278737 24.8968929,18.4554053 C24.9401431,17.113333 24.5692864,16.0978447 22.6456115,14.9675562 C21.7870632,14.4640467 21.1090554,14.1331247 21.1316746,13.2952333 C21.154268,12.4773272 21.8332828,12.1899911 22.4852631,12.1958267 C23.2895873,12.2029275 24.0676257,12.648381 24.5478963,13.140927 L24.5478963,11.1397994 C24.1431521,10.8280108 23.2862305,10.352672 22.0222925,10.3914035 L22.0223442,10.3914552 Z M2.97006061,10.6244484 L2.97006061,17.8605256 C2.97006061,20.2999905 4.12400113,21.5349573 6.40141339,21.5349573 C7.81062032,21.5349573 8.99089827,21.2088071 9.87010334,20.6110303 L9.87010334,10.6245 L7.57244741,10.6245 L7.57244741,19.3008727 C7.32198371,19.4725823 6.95047115,19.5822803 6.48311104,19.5822803 C5.42832316,19.5822803 5.27071177,18.6150256 5.27071177,17.9624256 L5.27071177,10.6246136 L2.97000896,10.6246136 L2.97006061,10.6244484 Z M14.1696615,12.2453359 C15.5052269,12.2453359 16.0588291,13.3116399 16.0588291,15.8905382 C16.0588297,18.4067947 15.4256982,19.6224991 14.1010809,19.6224991 C13.7892923,19.6224991 13.5183009,19.5452788 13.3536662,19.4833084 L13.3536662,12.4119691 C13.5402229,12.3190135 13.857217,12.2455424 14.1696615,12.2455424 L14.1696615,12.2453359 Z" id="Shape" fill="#FAB80A" fill-rule="nonzero" transform="translate(13.810259, 16.021105) scale(-1, 1) rotate(-180.000000) translate(-13.810259, -16.021105) "></path>
                                    </g>
                                </g>
                            </g>
                        </g>
                    </g>
                </g>
            </g>
        </g>
    </g>
</svg>