<?xml version="1.0" standalone="no"?>
<!DOCTYPE svg PUBLIC "-//W3C//DTD SVG 20010904//EN"
 "http://www.w3.org/TR/2001/REC-SVG-20010904/DTD/svg10.dtd">
<svg version="1.0" xmlns="http://www.w3.org/2000/svg"
 width="573.000000pt" height="573.000000pt" viewBox="0 0 573.000000 573.000000"
 preserveAspectRatio="xMidYMid meet">
<metadata>
Created by potrace 1.11, written by Peter Selinger 2001-2013
</metadata>
<g transform="translate(0.000000,573.000000) scale(0.100000,-0.100000)"
fill="#000000" stroke="none">
<path d="M568 4862 l-568 -327 0 -665 0 -666 570 -329 570 -329 0 -661 0 -661
562 -324 c309 -179 569 -326 578 -328 8 -1 268 144 578 323 310 179 565 325
566 325 2 0 257 -146 567 -325 328 -190 571 -324 581 -321 9 2 269 149 578
327 l560 324 0 665 0 665 -568 327 -567 326 -5 664 -5 663 -550 317 c-302 174
-560 322 -571 329 -19 10 -86 -26 -587 -315 -311 -179 -568 -326 -572 -326 -3
0 -260 146 -570 325 -310 179 -568 325 -572 325 -4 0 -263 -148 -575 -328z
m3391 -98 l511 -296 -2 -600 -3 -600 -509 -294 c-280 -162 -514 -294 -519
-294 -5 0 -241 133 -523 297 l-514 296 0 596 0 596 513 297 c281 163 517 297
524 297 6 1 241 -132 522 -295z m-2276 -34 l507 -294 0 -597 0 -597 -515 -297
c-405 -234 -520 -296 -534 -289 -10 5 -244 139 -520 299 l-501 290 0 595 0
595 518 298 c284 163 522 296 528 295 6 -2 239 -136 517 -298z m1133 -1946
l514 -297 0 -596 0 -596 -508 -292 c-279 -160 -512 -293 -519 -295 -6 -2 -244
130 -527 292 l-515 295 -1 596 0 596 513 296 c281 163 516 297 520 297 4 0
240 -133 523 -296z m2249 0 l515 -296 0 -596 -1 -597 -507 -292 c-279 -160
-512 -293 -519 -295 -6 -2 -244 130 -527 292 l-515 295 -1 596 0 596 513 296
c281 163 516 297 520 297 4 0 239 -133 522 -296z"/>
<path d="M2967 4677 l-467 -270 2 -540 3 -540 305 -176 c168 -97 378 -218 467
-270 l162 -93 465 269 466 268 -3 544 -2 545 -430 248 c-236 137 -446 257
-465 267 l-35 19 -468 -271z"/>
<path d="M690 4650 l-465 -269 0 -542 0 -542 465 -269 c255 -147 467 -268 470
-268 3 0 214 121 470 269 l465 268 3 540 2 540 -470 271 c-259 150 -471 272
-473 272 -1 -1 -211 -122 -467 -270z"/>
<path d="M1825 2702 l-460 -267 0 -544 0 -543 466 -269 466 -270 464 268 464
268 2 545 3 545 -464 268 c-255 147 -468 267 -472 266 -5 0 -216 -121 -469
-267z"/>
<path d="M4075 2702 l-460 -267 0 -544 0 -543 466 -269 466 -269 464 268 464
268 2 544 3 545 -464 268 c-255 147 -468 267 -472 266 -5 0 -216 -121 -469
-267z"/>
</g>
</svg>
